SplineFontDB: 3.2
FontName: Entity-Thin
FullName: Entity Thin
FamilyName: Entity
Weight: Thin
Copyright: Based on Geist Copyright 2024 The Geist Project Authors https:github.comvercelgeist-font.git
Version: 0.1
ItalicAngle: 0
UnderlinePosition: -125
UnderlineWidth: 50
Ascent: 800
Descent: 200
InvalidEm: 0
sfntRevision: 0x0000199a
LayerCount: 2
Layer: 0 0 "Back" 1
Layer: 1 0 "Fore" 0
XUID: [1021 1008 -1557834819 6112136]
StyleMap: 0x0040
FSType: 0
OS2Version: 4
OS2_WeightWidthSlopeOnly: 0
OS2_UseTypoMetrics: 1
CreationTime: 1728311655
ModificationTime: 1746816524
PfmFamily: 81
TTFWeight: 100
TTFWidth: 5
LineGap: 0
VLineGap: 0
Panose: 0 0 0 0 0 0 0 0 0 0
OS2TypoAscent: 1005
OS2TypoAOffset: 0
OS2TypoDescent: -295
OS2TypoDOffset: 0
OS2TypoLinegap: 0
OS2WinAscent: 1012
OS2WinAOffset: 0
OS2WinDescent: 262
OS2WinDOffset: 0
HheadAscent: 1005
HheadAOffset: 0
HheadDescent: -295
HheadDOffset: 0
OS2SubXSize: 650
OS2SubYSize: 600
OS2SubXOff: 0
OS2SubYOff: 75
OS2SupXSize: 650
OS2SupYSize: 600
OS2SupXOff: 0
OS2SupYOff: 350
OS2StrikeYSize: 50
OS2StrikeYPos: 318
OS2CapHeight: 710
OS2XHeight: 530
OS2Vendor: 'VRCL'
OS2CodePages: 20000097.00000000
OS2UnicodeRanges: a10002ff.5001e5fb.00000000.00000000
Lookup: 1 0 0 "'aalt' Access All Alternates in Latin lookup 0" { "'aalt' Access All Alternates in Latin lookup 0 subtable"  } ['aalt' ('DFLT' <'dflt' > 'latn' <'AZE ' 'CAT ' 'CRT ' 'KAZ ' 'MAH ' 'MOL ' 'NLD ' 'ROM ' 'TAT ' 'TRK ' 'dflt' > ) ]
Lookup: 3 0 0 "'aalt' Access All Alternates in Latin lookup 1" { "'aalt' Access All Alternates in Latin lookup 1 subtable"  } ['aalt' ('DFLT' <'dflt' > 'latn' <'AZE ' 'CAT ' 'CRT ' 'KAZ ' 'MAH ' 'MOL ' 'NLD ' 'ROM ' 'TAT ' 'TRK ' 'dflt' > ) ]

StartChar: .notdef
Encoding: 65536 -1 0
Width: 605
GlyphClass: 1
Flags: MW
HStem: 0 36<95 510 95 565> 674 36<95 95 95 510>
VStem: 40 33<64 646 64 710> 532 33<64 646 646 646>
LayerCount: 2
Fore
SplineSet
40 0 m 1
 40 710 l 1
 565 710 l 1
 565 0 l 1
 40 0 l 1
95 674 m 1
 303 384 l 1
 510 674 l 1
 95 674 l 1
73 646 m 1
 73 64 l 1
 282 355 l 1
 73 646 l 1
323 355 m 1
 532 64 l 1
 532 646 l 1
 323 355 l 1
95 36 m 1
 510 36 l 1
 303 326 l 1
 95 36 l 1
EndSplineSet
EndChar

StartChar: A
Encoding: 65 65 1
Width: 612
GlyphClass: 2
Flags: MW
HStem: 0 21G<24 24 24 57 555 555 555 588> 235 30<154 458 154 469 143 458> 678 32<306 306>
VStem: 24 564<0 0>
AnchorPoint: "Anchor-3" 306 710 basechar 0
AnchorPoint: "Anchor-2" 588 0 basechar 0
AnchorPoint: "Anchor-0" 306 0 basechar 0
LayerCount: 2
Fore
SplineSet
24 0 m 1
 287 710 l 1
 325 710 l 1
 588 0 l 1
 555 0 l 1
 469 235 l 1
 143 235 l 1
 57 0 l 1
 24 0 l 1
154 265 m 1
 458 265 l 1
 306 678 l 1
 154 265 l 1
EndSplineSet
Substitution2: "Single Substitution lookup 27 subtable" ordfeminine
Substitution2: "'aalt' Access All Alternates in Latin lookup 0 subtable" ordfeminine
EndChar

StartChar: Aacute
Encoding: 193 193 2
Width: 612
GlyphClass: 2
Flags: MW
HStem: 0 21G<24 24 24 57 555 555 555 588> 235 30<154 458 154 469 143 458> 678 32<306 306> 790 116<292 398 292 398>
VStem: 24 564<0 0>
AnchorPoint: "Anchor-3" 306 710 basechar 0
AnchorPoint: "Anchor-2" 588 0 basechar 0
AnchorPoint: "Anchor-0" 306 0 basechar 0
LayerCount: 2
Fore
SplineSet
292 790 m 1
 364 906 l 1
 398 906 l 1
 318 790 l 1
 292 790 l 1
24 0 m 1
 287 710 l 1
 325 710 l 1
 588 0 l 1
 555 0 l 1
 469 235 l 1
 143 235 l 1
 57 0 l 1
 24 0 l 1
154 265 m 1
 458 265 l 1
 306 678 l 1
 154 265 l 1
EndSplineSet
EndChar

StartChar: Abreve
Encoding: 258 258 3
Width: 612
GlyphClass: 2
Flags: MW
HStem: 0 21G<24 24 24 57 555 555 555 588> 235 30<154 458 154 469 143 458> 678 32<306 306> 798 28<280 332 280 341>
VStem: 24 564<0 0>
AnchorPoint: "Anchor-3" 306 710 basechar 0
AnchorPoint: "Anchor-2" 588 0 basechar 0
AnchorPoint: "Anchor-0" 306 0 basechar 0
LayerCount: 2
Fore
SplineSet
306 798 m 0
 236 798 192 844 182 914 c 1
 208 914 l 1
 216 856 254 826 306 826 c 0
 358 826 396 856 404 914 c 1
 430 914 l 1
 420 844 376 798 306 798 c 0
24 0 m 1
 287 710 l 1
 325 710 l 1
 588 0 l 1
 555 0 l 1
 469 235 l 1
 143 235 l 1
 57 0 l 1
 24 0 l 1
154 265 m 1
 458 265 l 1
 306 678 l 1
 154 265 l 1
EndSplineSet
EndChar

StartChar: uni01CD
Encoding: 461 461 4
Width: 612
GlyphClass: 2
Flags: MW
HStem: 0 21G<24 24 24 57 555 555 555 588> 235 30<154 458 154 469 143 458> 678 32<306 306> 790 25<306 306 306 317 295 306>
VStem: 24 564<0 0>
AnchorPoint: "Anchor-3" 306 710 basechar 0
AnchorPoint: "Anchor-2" 588 0 basechar 0
AnchorPoint: "Anchor-0" 306 0 basechar 0
LayerCount: 2
Fore
SplineSet
207 914 m 1
 235 914 l 1
 306 815 l 1
 377 914 l 1
 405 914 l 1
 317 790 l 1
 295 790 l 1
 207 914 l 1
24 0 m 1
 287 710 l 1
 325 710 l 1
 588 0 l 1
 555 0 l 1
 469 235 l 1
 143 235 l 1
 57 0 l 1
 24 0 l 1
154 265 m 1
 458 265 l 1
 306 678 l 1
 154 265 l 1
EndSplineSet
EndChar

StartChar: Acircumflex
Encoding: 194 194 5
Width: 612
GlyphClass: 2
Flags: MW
HStem: 0 21G<24 24 24 57 555 555 555 588> 235 30<154 458 154 469 143 458> 678 32<306 306> 889 25<307 307>
VStem: 24 564<0 0>
AnchorPoint: "Anchor-3" 306 710 basechar 0
AnchorPoint: "Anchor-2" 588 0 basechar 0
AnchorPoint: "Anchor-0" 306 0 basechar 0
LayerCount: 2
Fore
SplineSet
208 790 m 1
 296 914 l 1
 318 914 l 1
 406 790 l 1
 378 790 l 1
 307 889 l 1
 236 790 l 1
 208 790 l 1
24 0 m 1
 287 710 l 1
 325 710 l 1
 588 0 l 1
 555 0 l 1
 469 235 l 1
 143 235 l 1
 57 0 l 1
 24 0 l 1
154 265 m 1
 458 265 l 1
 306 678 l 1
 154 265 l 1
EndSplineSet
EndChar

StartChar: Adieresis
Encoding: 196 196 6
Width: 612
GlyphClass: 2
Flags: MW
HStem: 0 21G<24 24 24 57 555 555 555 588> 235 30<154 458 154 469 143 458> 678 32<306 306> 808 70<225 259 225 259 353 387>
VStem: 225 34<808 878 808 878> 353 34<808 878 808 878>
AnchorPoint: "Anchor-3" 306 710 basechar 0
AnchorPoint: "Anchor-2" 588 0 basechar 0
AnchorPoint: "Anchor-0" 306 0 basechar 0
LayerCount: 2
Fore
SplineSet
225 808 m 1
 225 878 l 1
 259 878 l 1
 259 808 l 1
 225 808 l 1
353 808 m 1
 353 878 l 1
 387 878 l 1
 387 808 l 1
 353 808 l 1
24 0 m 1
 287 710 l 1
 325 710 l 1
 588 0 l 1
 555 0 l 1
 469 235 l 1
 143 235 l 1
 57 0 l 1
 24 0 l 1
154 265 m 1
 458 265 l 1
 306 678 l 1
 154 265 l 1
EndSplineSet
Substitution2: "'ss08' Style Set 8 in Latin lookup 41 subtable" Adieresis.ss08
Substitution2: "'aalt' Access All Alternates in Latin lookup 0 subtable" Adieresis.ss08
EndChar

StartChar: Agrave
Encoding: 192 192 7
Width: 612
GlyphClass: 2
Flags: MW
HStem: 0 21G<24 24 24 57 555 555 555 588> 235 30<154 458 154 469 143 458> 678 32<306 306> 798 116<213 293 213 319>
VStem: 24 564<0 0>
AnchorPoint: "Anchor-3" 306 710 basechar 0
AnchorPoint: "Anchor-2" 588 0 basechar 0
AnchorPoint: "Anchor-0" 306 0 basechar 0
LayerCount: 2
Fore
SplineSet
293 798 m 1
 213 914 l 1
 247 914 l 1
 319 798 l 1
 293 798 l 1
24 0 m 1
 287 710 l 1
 325 710 l 1
 588 0 l 1
 555 0 l 1
 469 235 l 1
 143 235 l 1
 57 0 l 1
 24 0 l 1
154 265 m 1
 458 265 l 1
 306 678 l 1
 154 265 l 1
EndSplineSet
EndChar

StartChar: Amacron
Encoding: 256 256 8
Width: 612
GlyphClass: 2
Flags: MW
HStem: 0 21G<24 24 24 57 555 555 555 588> 235 30<154 458 154 469 143 458> 678 32<306 306> 824 28<182 430 182 430>
VStem: 24 564<0 0>
AnchorPoint: "Anchor-3" 306 710 basechar 0
AnchorPoint: "Anchor-2" 588 0 basechar 0
AnchorPoint: "Anchor-0" 306 0 basechar 0
LayerCount: 2
Fore
SplineSet
182 824 m 1
 182 852 l 1
 430 852 l 1
 430 824 l 1
 182 824 l 1
24 0 m 1
 287 710 l 1
 325 710 l 1
 588 0 l 1
 555 0 l 1
 469 235 l 1
 143 235 l 1
 57 0 l 1
 24 0 l 1
154 265 m 1
 458 265 l 1
 306 678 l 1
 154 265 l 1
EndSplineSet
EndChar

StartChar: Aogonek
Encoding: 260 260 9
Width: 612
GlyphClass: 2
Flags: MW
HStem: -192 26<557 578 557 581> 0 21G<24 24 24 57 555 555 555 563 588 588> 235 30<154 458 154 469 143 458> 678 32<306 306>
VStem: 498 30<-144.5 -116>
AnchorPoint: "Anchor-3" 306 710 basechar 0
AnchorPoint: "Anchor-2" 588 0 basechar 0
AnchorPoint: "Anchor-0" 306 0 basechar 0
LayerCount: 2
Fore
SplineSet
24 0 m 1
 287 710 l 1
 325 710 l 1
 588 0 l 1
 562 -40 l 2
 542 -70 528 -98 528 -130 c 0
 528 -159 546 -166 568 -166 c 0
 588 -166 605 -160 617 -151 c 1
 631 -173 l 1
 613 -185 594 -192 568 -192 c 0
 530 -192 498 -176 498 -132 c 0
 498 -100 520 -65 546 -26 c 2
 563 0 l 1
 555 0 l 1
 469 235 l 1
 143 235 l 1
 57 0 l 1
 24 0 l 1
154 265 m 1
 458 265 l 1
 306 678 l 1
 154 265 l 1
EndSplineSet
EndChar

StartChar: Aring
Encoding: 197 197 10
Width: 612
GlyphClass: 2
Flags: MW
HStem: 0 21G<24 24 24 57 555 555 555 588> 235 30<154 458 154 469 143 458> 678 32<306 306> 772 25<292 320 292 327> 888 26<292 320>
VStem: 234 26<829 857 829 863.5> 351 26<829 857>
AnchorPoint: "Anchor-3" 306 710 basechar 0
AnchorPoint: "Anchor-2" 588 0 basechar 0
AnchorPoint: "Anchor-0" 306 0 basechar 0
LayerCount: 2
Fore
SplineSet
306 772 m 0
 264 772 234 801 234 843 c 0
 234 884 264 914 306 914 c 0
 347 914 377 884 377 843 c 0
 377 802 348 772 306 772 c 0
306 797 m 0
 334 797 351 815 351 843 c 0
 351 871 334 888 306 888 c 0
 278 888 260 871 260 843 c 0
 260 815 278 797 306 797 c 0
24 0 m 1
 287 710 l 1
 325 710 l 1
 588 0 l 1
 555 0 l 1
 469 235 l 1
 143 235 l 1
 57 0 l 1
 24 0 l 1
154 265 m 1
 458 265 l 1
 306 678 l 1
 154 265 l 1
EndSplineSet
EndChar

StartChar: Atilde
Encoding: 195 195 11
Width: 612
GlyphClass: 2
Flags: MW
HStem: 0 21G<24 24 24 57 555 555 555 588> 235 30<154 458 154 469 143 458> 678 32<306 306> 810 24<353 374 353 382> 870 24<228 255>
VStem: 167 26<805 805> 405 26<903 903>
AnchorPoint: "Anchor-3" 306 710 basechar 0
AnchorPoint: "Anchor-2" 588 0 basechar 0
AnchorPoint: "Anchor-0" 306 0 basechar 0
LayerCount: 2
Fore
SplineSet
361 810 m 0
 333 810 316 821 297 842 c 0
 281 860 267 870 243 870 c 0
 213 870 195 849 193 805 c 1
 167 805 l 1
 171 861 201 894 243 894 c 0
 275 894 295 879 315 858 c 0
 333 840 345 834 361 834 c 0
 387 834 401 853 405 903 c 1
 431 903 l 1
 427 845 403 810 361 810 c 0
24 0 m 1
 287 710 l 1
 325 710 l 1
 588 0 l 1
 555 0 l 1
 469 235 l 1
 143 235 l 1
 57 0 l 1
 24 0 l 1
154 265 m 1
 458 265 l 1
 306 678 l 1
 154 265 l 1
EndSplineSet
EndChar

StartChar: AE
Encoding: 198 198 12
Width: 890
GlyphClass: 2
Flags: MW
HStem: 0 30<483 840 483 840> 235 30<197 451 197 451 182 451> 341 30<483 820 483 820> 680 30<412 451 412 412 483 832 483 483>
VStem: 451 32<30 235 235 235 265 341 371 680>
AnchorPoint: "Anchor-3" 470 710 basechar 0
AnchorPoint: "Anchor-0" 470 0 basechar 0
LayerCount: 2
Fore
SplineSet
24 0 m 1
 395 710 l 1
 832 710 l 1
 832 680 l 1
 483 680 l 1
 483 371 l 1
 820 371 l 1
 820 341 l 1
 483 341 l 1
 483 30 l 1
 840 30 l 1
 840 0 l 1
 451 0 l 1
 451 235 l 1
 182 235 l 1
 60 0 l 1
 24 0 l 1
451 680 m 1
 412 680 l 1
 197 265 l 1
 451 265 l 1
 451 680 l 1
EndSplineSet
EndChar

StartChar: B
Encoding: 66 66 13
Width: 638
GlyphClass: 2
Flags: MW
HStem: 0 30<128 353 128 353> 339 30<128 313 313 353 128 313> 680 30<128 313 128 128>
VStem: 96 32<30 30 30 339 369 680> 519 34<478 573.5> 549 34<135 235>
AnchorPoint: "Anchor-3" 319 710 basechar 0
AnchorPoint: "Anchor-0" 319 0 basechar 0
LayerCount: 2
Fore
SplineSet
96 0 m 1xf4
 96 710 l 1
 313 710 l 2
 473 710 553 647 553 520 c 0xf8
 553 436 499 373 418 358 c 1
 520 345 583 282 583 189 c 0
 583 63 507 0 353 0 c 2
 96 0 l 1xf4
128 369 m 1
 313 369 l 2
 445 369 519 423 519 520 c 0
 519 627 451 680 313 680 c 2
 128 680 l 1
 128 369 l 1
128 30 m 1
 353 30 l 2
 484 30 549 81 549 189 c 0xf4
 549 281 473 339 353 339 c 2
 128 339 l 1
 128 30 l 1
EndSplineSet
EndChar

StartChar: C
Encoding: 67 67 14
Width: 676
GlyphClass: 2
Flags: MW
HStem: -16 32<267 419 267 427> 694 32<267 416>
VStem: 50 34<249 459 249 469>
AnchorPoint: "Anchor-3" 348 710 basechar 0
AnchorPoint: "Anchor-0" 348 0 basechar 0
LayerCount: 2
Fore
SplineSet
348 -16 m 0
 166 -16 50 124 50 354 c 0
 50 584 166 726 348 726 c 0
 502 726 597 628 625 480 c 1
 591 477 l 1
 569 609 484 694 348 694 c 0
 186 694 84 564 84 354 c 0
 84 144 186 16 348 16 c 0
 490 16 579 103 597 249 c 1
 631 246 l 1
 607 84 506 -16 348 -16 c 0
EndSplineSet
EndChar

StartChar: Cacute
Encoding: 262 262 15
Width: 676
GlyphClass: 2
Flags: MW
HStem: -16 32<267 419 267 427> 694 32<267 416> 790 116<334 440 334 440>
VStem: 50 34<249 459 249 469>
AnchorPoint: "Anchor-3" 348 710 basechar 0
AnchorPoint: "Anchor-0" 348 0 basechar 0
LayerCount: 2
Fore
SplineSet
334 790 m 1
 406 906 l 1
 440 906 l 1
 360 790 l 1
 334 790 l 1
348 -16 m 0
 166 -16 50 124 50 354 c 0
 50 584 166 726 348 726 c 0
 502 726 597 628 625 480 c 1
 591 477 l 1
 569 609 484 694 348 694 c 0
 186 694 84 564 84 354 c 0
 84 144 186 16 348 16 c 0
 490 16 579 103 597 249 c 1
 631 246 l 1
 607 84 506 -16 348 -16 c 0
EndSplineSet
EndChar

StartChar: Ccaron
Encoding: 268 268 16
Width: 676
GlyphClass: 2
Flags: MW
HStem: -16 32<267 419 267 427> 694 32<267 416> 790 25<348 348 348 359 337 348>
VStem: 50 34<249 459 249 469>
AnchorPoint: "Anchor-3" 348 710 basechar 0
AnchorPoint: "Anchor-0" 348 0 basechar 0
LayerCount: 2
Fore
SplineSet
249 914 m 1
 277 914 l 1
 348 815 l 1
 419 914 l 1
 447 914 l 1
 359 790 l 1
 337 790 l 1
 249 914 l 1
348 -16 m 0
 166 -16 50 124 50 354 c 0
 50 584 166 726 348 726 c 0
 502 726 597 628 625 480 c 1
 591 477 l 1
 569 609 484 694 348 694 c 0
 186 694 84 564 84 354 c 0
 84 144 186 16 348 16 c 0
 490 16 579 103 597 249 c 1
 631 246 l 1
 607 84 506 -16 348 -16 c 0
EndSplineSet
EndChar

StartChar: Ccedilla
Encoding: 199 199 17
Width: 676
GlyphClass: 2
Flags: MW
HStem: -204 26<317 359 317 368> -72 24<336 336 336 351.5> -16 32<353 419 267 429.5> -15 31<326 326> 694 32<267 416>
VStem: 50 34<249 459 249 469> 406 28<-143 -106.5>
AnchorPoint: "Anchor-3" 348 710 basechar 0
AnchorPoint: "Anchor-0" 348 0 basechar 0
LayerCount: 2
Fore
SplineSet
340 -204 m 0xee
 290 -204 256 -182 244 -144 c 1
 268 -134 l 1
 276 -160 296 -178 338 -178 c 0
 380 -178 406 -162 406 -124 c 0
 406 -89 383 -72 320 -72 c 1
 306 -54 l 1
 326 -15 l 1xde
 157 -4 50 133 50 354 c 0
 50 584 166 726 348 726 c 0
 502 726 597 628 625 480 c 1
 591 477 l 1
 569 609 484 694 348 694 c 0
 186 694 84 564 84 354 c 0
 84 144 186 16 348 16 c 0
 490 16 579 103 597 249 c 1
 631 246 l 1
 607 84 506 -16 353 -16 c 1
 336 -48 l 1
 398 -50 434 -74 434 -126 c 0
 434 -176 396 -204 340 -204 c 0xee
EndSplineSet
EndChar

StartChar: Ccircumflex
Encoding: 264 264 18
Width: 676
GlyphClass: 2
Flags: MW
HStem: -16 32<267 419 267 427> 694 32<267 416> 889 25<349 349>
VStem: 50 34<249 459 249 469>
AnchorPoint: "Anchor-3" 348 710 basechar 0
AnchorPoint: "Anchor-0" 348 0 basechar 0
LayerCount: 2
Fore
SplineSet
250 790 m 1
 338 914 l 1
 360 914 l 1
 448 790 l 1
 420 790 l 1
 349 889 l 1
 278 790 l 1
 250 790 l 1
348 -16 m 0
 166 -16 50 124 50 354 c 0
 50 584 166 726 348 726 c 0
 502 726 597 628 625 480 c 1
 591 477 l 1
 569 609 484 694 348 694 c 0
 186 694 84 564 84 354 c 0
 84 144 186 16 348 16 c 0
 490 16 579 103 597 249 c 1
 631 246 l 1
 607 84 506 -16 348 -16 c 0
EndSplineSet
EndChar

StartChar: Cdotaccent
Encoding: 266 266 19
Width: 676
GlyphClass: 2
Flags: MW
HStem: -16 32<267 419 267 427> 694 32<267 416> 808 70<331 365 331 365>
VStem: 50 34<249 459 249 469> 331 34<808 878 808 878>
AnchorPoint: "Anchor-3" 348 710 basechar 0
AnchorPoint: "Anchor-0" 348 0 basechar 0
LayerCount: 2
Fore
SplineSet
331 808 m 1
 331 878 l 1
 365 878 l 1
 365 808 l 1
 331 808 l 1
348 -16 m 0
 166 -16 50 124 50 354 c 0
 50 584 166 726 348 726 c 0
 502 726 597 628 625 480 c 1
 591 477 l 1
 569 609 484 694 348 694 c 0
 186 694 84 564 84 354 c 0
 84 144 186 16 348 16 c 0
 490 16 579 103 597 249 c 1
 631 246 l 1
 607 84 506 -16 348 -16 c 0
EndSplineSet
Substitution2: "'ss08' Style Set 8 in Latin lookup 41 subtable" Cdotaccent.ss08
Substitution2: "'aalt' Access All Alternates in Latin lookup 0 subtable" Cdotaccent.ss08
EndChar

StartChar: D
Encoding: 68 68 20
Width: 676
GlyphClass: 2
Flags: MW
HStem: 0 30<128 298 298 304> 680 30<128 298 128 128>
VStem: 96 32<30 30 30 680> 592 34<250 458.5>
AnchorPoint: "Anchor-3" 319 710 basechar 0
AnchorPoint: "Anchor-1" 200 355 basechar 0
AnchorPoint: "Anchor-0" 318 0 basechar 0
LayerCount: 2
Fore
SplineSet
96 0 m 1
 96 710 l 1
 298 710 l 2
 508 710 626 582 626 354 c 0
 626 127 511 0 304 0 c 2
 96 0 l 1
128 30 m 1
 298 30 l 2
 487 30 592 146 592 354 c 0
 592 563 487 680 298 680 c 2
 128 680 l 1
 128 30 l 1
EndSplineSet
EndChar

StartChar: Dcaron
Encoding: 270 270 21
Width: 676
GlyphClass: 2
Flags: MW
HStem: 0 30<128 298 298 304> 680 30<128 298 128 128> 790 25<319 319 319 330 308 319>
VStem: 96 32<30 30 30 680> 592 34<250 458.5>
AnchorPoint: "Anchor-3" 319 710 basechar 0
AnchorPoint: "Anchor-1" 200 355 basechar 0
AnchorPoint: "Anchor-0" 318 0 basechar 0
LayerCount: 2
Fore
SplineSet
220 914 m 1
 248 914 l 1
 319 815 l 1
 390 914 l 1
 418 914 l 1
 330 790 l 1
 308 790 l 1
 220 914 l 1
96 0 m 1
 96 710 l 1
 298 710 l 2
 508 710 626 582 626 354 c 0
 626 127 511 0 304 0 c 2
 96 0 l 1
128 30 m 1
 298 30 l 2
 487 30 592 146 592 354 c 0
 592 563 487 680 298 680 c 2
 128 680 l 1
 128 30 l 1
EndSplineSet
EndChar

StartChar: Dcroat
Encoding: 272 272 22
Width: 676
GlyphClass: 2
Flags: MW
HStem: 0 30<128 298 298 304> 340 30<10 96 10 96 128 390> 680 30<128 298 128 128>
VStem: 96 32<30 30 30 340 370 680> 592 34<250 458.5>
AnchorPoint: "Anchor-3" 319 710 basechar 0
AnchorPoint: "Anchor-1" 200 355 basechar 0
AnchorPoint: "Anchor-0" 318 0 basechar 0
LayerCount: 2
Fore
SplineSet
96 0 m 1
 96 340 l 1
 10 340 l 1
 10 370 l 1
 96 370 l 1
 96 710 l 1
 298 710 l 2
 508 710 626 582 626 354 c 0
 626 127 511 0 304 0 c 2
 96 0 l 1
128 30 m 1
 298 30 l 2
 487 30 592 146 592 354 c 0
 592 563 487 680 298 680 c 2
 128 680 l 1
 128 370 l 1
 390 370 l 1
 390 340 l 1
 128 340 l 1
 128 30 l 1
EndSplineSet
EndChar

StartChar: Eth
Encoding: 208 208 23
Width: 676
GlyphClass: 2
Flags: MW
HStem: 0 30<128 298 298 304> 340 30<10 96 10 96 128 390> 680 30<128 298 128 128>
VStem: 96 32<30 30 30 340 370 680> 592 34<250 458.5>
AnchorPoint: "Anchor-3" 319 710 basechar 0
AnchorPoint: "Anchor-1" 200 355 basechar 0
AnchorPoint: "Anchor-0" 318 0 basechar 0
LayerCount: 2
Fore
SplineSet
96 0 m 1
 96 340 l 1
 10 340 l 1
 10 370 l 1
 96 370 l 1
 96 710 l 1
 298 710 l 2
 508 710 626 582 626 354 c 0
 626 127 511 0 304 0 c 2
 96 0 l 1
128 30 m 1
 298 30 l 2
 487 30 592 146 592 354 c 0
 592 563 487 680 298 680 c 2
 128 680 l 1
 128 370 l 1
 390 370 l 1
 390 340 l 1
 128 340 l 1
 128 30 l 1
EndSplineSet
EndChar

StartChar: E
Encoding: 69 69 24
Width: 573
GlyphClass: 2
Flags: MW
HStem: 0 30<128 523 128 523> 339 30<128 503 128 503> 680 30<128 515 128 128>
VStem: 96 32<30 339 369 680>
AnchorPoint: "Anchor-3" 306 710 basechar 0
AnchorPoint: "Anchor-2" 523 0 basechar 0
AnchorPoint: "Anchor-0" 306 0 basechar 0
LayerCount: 2
Fore
SplineSet
96 0 m 1
 96 710 l 1
 515 710 l 1
 515 680 l 1
 128 680 l 1
 128 369 l 1
 503 369 l 1
 503 339 l 1
 128 339 l 1
 128 30 l 1
 523 30 l 1
 523 0 l 1
 96 0 l 1
EndSplineSet
EndChar

StartChar: Eacute
Encoding: 201 201 25
Width: 573
GlyphClass: 2
Flags: MW
HStem: 0 30<128 523 128 523> 339 30<128 503 128 503> 680 30<128 515 128 128> 790 116<292 398 292 398>
VStem: 96 32<30 339 369 680>
AnchorPoint: "Anchor-3" 306 710 basechar 0
AnchorPoint: "Anchor-2" 523 0 basechar 0
AnchorPoint: "Anchor-0" 306 0 basechar 0
LayerCount: 2
Fore
SplineSet
292 790 m 1
 364 906 l 1
 398 906 l 1
 318 790 l 1
 292 790 l 1
96 0 m 1
 96 710 l 1
 515 710 l 1
 515 680 l 1
 128 680 l 1
 128 369 l 1
 503 369 l 1
 503 339 l 1
 128 339 l 1
 128 30 l 1
 523 30 l 1
 523 0 l 1
 96 0 l 1
EndSplineSet
EndChar

StartChar: Ecaron
Encoding: 282 282 26
Width: 573
GlyphClass: 2
Flags: MW
HStem: 0 30<128 523 128 523> 339 30<128 503 128 503> 680 30<128 515 128 128> 790 25<306 306 306 317 295 306>
VStem: 96 32<30 339 369 680>
AnchorPoint: "Anchor-3" 306 710 basechar 0
AnchorPoint: "Anchor-2" 523 0 basechar 0
AnchorPoint: "Anchor-0" 306 0 basechar 0
LayerCount: 2
Fore
SplineSet
207 914 m 1
 235 914 l 1
 306 815 l 1
 377 914 l 1
 405 914 l 1
 317 790 l 1
 295 790 l 1
 207 914 l 1
96 0 m 1
 96 710 l 1
 515 710 l 1
 515 680 l 1
 128 680 l 1
 128 369 l 1
 503 369 l 1
 503 339 l 1
 128 339 l 1
 128 30 l 1
 523 30 l 1
 523 0 l 1
 96 0 l 1
EndSplineSet
EndChar

StartChar: Ecircumflex
Encoding: 202 202 27
Width: 573
GlyphClass: 2
Flags: MW
HStem: 0 30<128 523 128 523> 339 30<128 503 128 503> 680 30<128 515 128 128> 889 25<307 307>
VStem: 96 32<30 339 369 680>
AnchorPoint: "Anchor-3" 306 710 basechar 0
AnchorPoint: "Anchor-2" 523 0 basechar 0
AnchorPoint: "Anchor-0" 306 0 basechar 0
LayerCount: 2
Fore
SplineSet
208 790 m 1
 296 914 l 1
 318 914 l 1
 406 790 l 1
 378 790 l 1
 307 889 l 1
 236 790 l 1
 208 790 l 1
96 0 m 1
 96 710 l 1
 515 710 l 1
 515 680 l 1
 128 680 l 1
 128 369 l 1
 503 369 l 1
 503 339 l 1
 128 339 l 1
 128 30 l 1
 523 30 l 1
 523 0 l 1
 96 0 l 1
EndSplineSet
EndChar

StartChar: Edieresis
Encoding: 203 203 28
Width: 573
GlyphClass: 2
Flags: MW
HStem: 0 30<128 523 128 523> 339 30<128 503 128 503> 680 30<128 515 128 128> 808 70<225 259 225 259 353 387>
VStem: 96 32<30 339 369 680> 225 34<808 878 808 878> 353 34<808 878 808 878>
AnchorPoint: "Anchor-3" 306 710 basechar 0
AnchorPoint: "Anchor-2" 523 0 basechar 0
AnchorPoint: "Anchor-0" 306 0 basechar 0
LayerCount: 2
Fore
SplineSet
225 808 m 1
 225 878 l 1
 259 878 l 1
 259 808 l 1
 225 808 l 1
353 808 m 1
 353 878 l 1
 387 878 l 1
 387 808 l 1
 353 808 l 1
96 0 m 1
 96 710 l 1
 515 710 l 1
 515 680 l 1
 128 680 l 1
 128 369 l 1
 503 369 l 1
 503 339 l 1
 128 339 l 1
 128 30 l 1
 523 30 l 1
 523 0 l 1
 96 0 l 1
EndSplineSet
Substitution2: "'ss08' Style Set 8 in Latin lookup 41 subtable" Edieresis.ss08
Substitution2: "'aalt' Access All Alternates in Latin lookup 0 subtable" Edieresis.ss08
EndChar

StartChar: Edotaccent
Encoding: 278 278 29
Width: 573
GlyphClass: 2
Flags: MW
HStem: 0 30<128 523 128 523> 339 30<128 503 128 503> 680 30<128 515 128 128> 808 70<289 323 289 323>
VStem: 96 32<30 339 369 680> 289 34<808 878 808 878>
AnchorPoint: "Anchor-3" 306 710 basechar 0
AnchorPoint: "Anchor-2" 523 0 basechar 0
AnchorPoint: "Anchor-0" 306 0 basechar 0
LayerCount: 2
Fore
SplineSet
289 808 m 1
 289 878 l 1
 323 878 l 1
 323 808 l 1
 289 808 l 1
96 0 m 1
 96 710 l 1
 515 710 l 1
 515 680 l 1
 128 680 l 1
 128 369 l 1
 503 369 l 1
 503 339 l 1
 128 339 l 1
 128 30 l 1
 523 30 l 1
 523 0 l 1
 96 0 l 1
EndSplineSet
Substitution2: "'ss08' Style Set 8 in Latin lookup 41 subtable" Edotaccent.ss08
Substitution2: "'aalt' Access All Alternates in Latin lookup 0 subtable" Edotaccent.ss08
EndChar

StartChar: Egrave
Encoding: 200 200 30
Width: 573
GlyphClass: 2
Flags: MW
HStem: 0 30<128 523 128 523> 339 30<128 503 128 503> 680 30<128 515 128 128> 798 116<213 293 213 319>
VStem: 96 32<30 339 369 680>
AnchorPoint: "Anchor-3" 306 710 basechar 0
AnchorPoint: "Anchor-2" 523 0 basechar 0
AnchorPoint: "Anchor-0" 306 0 basechar 0
LayerCount: 2
Fore
SplineSet
293 798 m 1
 213 914 l 1
 247 914 l 1
 319 798 l 1
 293 798 l 1
96 0 m 1
 96 710 l 1
 515 710 l 1
 515 680 l 1
 128 680 l 1
 128 369 l 1
 503 369 l 1
 503 339 l 1
 128 339 l 1
 128 30 l 1
 523 30 l 1
 523 0 l 1
 96 0 l 1
EndSplineSet
EndChar

StartChar: Emacron
Encoding: 274 274 31
Width: 573
GlyphClass: 2
Flags: MW
HStem: 0 30<128 523 128 523> 339 30<128 503 128 503> 680 30<128 515 128 128> 824 28<182 430 182 430>
VStem: 96 32<30 339 369 680>
AnchorPoint: "Anchor-3" 306 710 basechar 0
AnchorPoint: "Anchor-2" 523 0 basechar 0
AnchorPoint: "Anchor-0" 306 0 basechar 0
LayerCount: 2
Fore
SplineSet
182 824 m 1
 182 852 l 1
 430 852 l 1
 430 824 l 1
 182 824 l 1
96 0 m 1
 96 710 l 1
 515 710 l 1
 515 680 l 1
 128 680 l 1
 128 369 l 1
 503 369 l 1
 503 339 l 1
 128 339 l 1
 128 30 l 1
 523 30 l 1
 523 0 l 1
 96 0 l 1
EndSplineSet
EndChar

StartChar: Eogonek
Encoding: 280 280 32
Width: 573
GlyphClass: 2
Flags: MW
HStem: -192 26<492 513 492 516> 0 30<128 498 128 523> 339 30<128 503 128 503> 680 30<128 515 128 128>
VStem: 96 32<30 339 369 680> 433 30<-144.5 -116> 498 25<0 30>
AnchorPoint: "Anchor-3" 306 710 basechar 0
AnchorPoint: "Anchor-2" 523 0 basechar 0
AnchorPoint: "Anchor-0" 306 0 basechar 0
LayerCount: 2
Fore
SplineSet
96 0 m 1
 96 710 l 1
 515 710 l 1
 515 680 l 1
 128 680 l 1
 128 369 l 1
 503 369 l 1
 503 339 l 1
 128 339 l 1
 128 30 l 1
 523 30 l 1
 523 0 l 1
 497 -40 l 2
 477 -70 463 -98 463 -130 c 0
 463 -159 481 -166 503 -166 c 0
 523 -166 540 -160 552 -151 c 1
 566 -173 l 1
 548 -185 529 -192 503 -192 c 0
 465 -192 433 -176 433 -132 c 0
 433 -100 455 -65 481 -26 c 2
 498 0 l 1
 96 0 l 1
EndSplineSet
EndChar

StartChar: uni1EBC
Encoding: 7868 7868 33
Width: 573
GlyphClass: 2
Flags: MW
HStem: 0 30<128 523 128 523> 339 30<128 503 128 503> 680 30<128 515 128 128> 810 24<353 374 353 382> 870 24<228 255>
VStem: 96 32<30 339 369 680> 167 26<805 805> 405 26<903 903>
AnchorPoint: "Anchor-3" 306 710 basechar 0
AnchorPoint: "Anchor-2" 523 0 basechar 0
AnchorPoint: "Anchor-0" 306 0 basechar 0
LayerCount: 2
Fore
SplineSet
361 810 m 0
 333 810 316 821 297 842 c 0
 281 860 267 870 243 870 c 0
 213 870 195 849 193 805 c 1
 167 805 l 1
 171 861 201 894 243 894 c 0
 275 894 295 879 315 858 c 0
 333 840 345 834 361 834 c 0
 387 834 401 853 405 903 c 1
 431 903 l 1
 427 845 403 810 361 810 c 0
96 0 m 1
 96 710 l 1
 515 710 l 1
 515 680 l 1
 128 680 l 1
 128 369 l 1
 503 369 l 1
 503 339 l 1
 128 339 l 1
 128 30 l 1
 523 30 l 1
 523 0 l 1
 96 0 l 1
EndSplineSet
EndChar

StartChar: uni018F
Encoding: 399 399 34
Width: 701
GlyphClass: 1
Flags: MW
HStem: -15 32<275.5 426.5 275.5 439> 335 30<84 618 84 84> 694 32<295 428.5>
VStem: 50 34<335 365 335 365> 618 33<335 335 365 365>
LayerCount: 2
Fore
SplineSet
651 356 m 0
 651 128 527 -15 351 -15 c 0
 174 -15 50 128 50 356 c 2
 50 365 l 1
 618 365 l 1
 615 568 506 694 351 694 c 0
 239 694 145 621 108 516 c 1
 74 519 l 1
 111 641 219 726 351 726 c 0
 527 726 651 583 651 356 c 0
351 17 m 0
 502 17 614 137 618 335 c 1
 84 335 l 1
 92 137 200 17 351 17 c 0
EndSplineSet
EndChar

StartChar: F
Encoding: 70 70 35
Width: 560
GlyphClass: 1
Flags: MW
HStem: 0 21G<96 96 96 128> 339 30<128 497 128 497> 680 30<128 515 128 128>
VStem: 96 32<0 339 369 680>
LayerCount: 2
Fore
SplineSet
96 0 m 1
 96 710 l 1
 515 710 l 1
 515 680 l 1
 128 680 l 1
 128 369 l 1
 497 369 l 1
 497 339 l 1
 128 339 l 1
 128 0 l 1
 96 0 l 1
EndSplineSet
EndChar

StartChar: G
Encoding: 71 71 36
Width: 675
GlyphClass: 2
Flags: MW
HStem: -16 32<266 415> 0 21G<592 620 592 592> 302 28<354 588 354 620> 694 32<266 414>
VStem: 50 34<250 458.5 250 468.5> 588 32<302 302> 590.5 29.5
AnchorPoint: "Anchor-3" 352 710 basechar 0
AnchorPoint: "Anchor-0" 354 0 basechar 0
LayerCount: 2
Fore
SplineSet
346 -16 m 0xba
 165 -16 50 127 50 354 c 0
 50 583 159 726 352 726 c 0
 490 726 588 641 618 481 c 1
 585 477 l 1
 557 621 476 694 352 694 c 0
 180 694 84 563 84 354 c 0
 84 146 186 16 346 16 c 0xbc
 490 16 576 118 588 302 c 1
 354 302 l 1
 354 330 l 1
 620 330 l 1
 620 0 l 1x7c
 592 0 l 1x7a
 589 175 l 1
 563 69 484 -16 346 -16 c 0xba
EndSplineSet
Substitution2: "'ss06' Style Set 6 in Latin lookup 39 subtable" G.ss06
Substitution2: "'aalt' Access All Alternates in Latin lookup 0 subtable" G.ss06
EndChar

StartChar: Gbreve
Encoding: 286 286 37
Width: 675
GlyphClass: 2
Flags: MW
HStem: -16 32<266 415> 0 21G<592 620 592 592> 302 28<354 588 354 620> 694 32<266 414> 798 28<326 378 326 387>
VStem: 50 34<250 458.5 250 468.5> 588 32<302 302> 590.5 29.5
AnchorPoint: "Anchor-3" 352 710 basechar 0
AnchorPoint: "Anchor-0" 354 0 basechar 0
LayerCount: 2
Fore
SplineSet
352 798 m 0xbd
 282 798 238 844 228 914 c 1
 254 914 l 1
 262 856 300 826 352 826 c 0
 404 826 442 856 450 914 c 1
 476 914 l 1
 466 844 422 798 352 798 c 0xbd
346 -16 m 0
 165 -16 50 127 50 354 c 0
 50 583 159 726 352 726 c 0
 490 726 588 641 618 481 c 1
 585 477 l 1
 557 621 476 694 352 694 c 0
 180 694 84 563 84 354 c 0
 84 146 186 16 346 16 c 0xbe
 490 16 576 118 588 302 c 1
 354 302 l 1
 354 330 l 1
 620 330 l 1
 620 0 l 1x7e
 592 0 l 1x7d
 589 175 l 1
 563 69 484 -16 346 -16 c 0
EndSplineSet
Substitution2: "'ss06' Style Set 6 in Latin lookup 39 subtable" Gbreve.ss06
Substitution2: "'aalt' Access All Alternates in Latin lookup 0 subtable" Gbreve.ss06
EndChar

StartChar: Gcaron
Encoding: 486 486 38
Width: 675
GlyphClass: 2
Flags: MW
HStem: -16 32<266 415> 0 21G<592 620 592 592> 302 28<354 588 354 620> 694 32<266 414> 790 25<352 352 352 363 341 352>
VStem: 50 34<250 458.5 250 468.5> 588 32<302 302> 590.5 29.5
AnchorPoint: "Anchor-3" 352 710 basechar 0
AnchorPoint: "Anchor-0" 354 0 basechar 0
LayerCount: 2
Fore
SplineSet
253 914 m 1xbd
 281 914 l 1
 352 815 l 1
 423 914 l 1
 451 914 l 1
 363 790 l 1
 341 790 l 1
 253 914 l 1xbd
346 -16 m 0
 165 -16 50 127 50 354 c 0
 50 583 159 726 352 726 c 0
 490 726 588 641 618 481 c 1
 585 477 l 1
 557 621 476 694 352 694 c 0
 180 694 84 563 84 354 c 0
 84 146 186 16 346 16 c 0xb6
 490 16 576 118 588 302 c 1
 354 302 l 1
 354 330 l 1
 620 330 l 1
 620 0 l 1x76
 592 0 l 1x75
 589 175 l 1
 563 69 484 -16 346 -16 c 0
EndSplineSet
EndChar

StartChar: Gcircumflex
Encoding: 284 284 39
Width: 675
GlyphClass: 2
Flags: MW
HStem: -16 32<266 415> 0 21G<592 620 592 592> 302 28<354 588 354 620> 694 32<266 414> 889 25<353 353>
VStem: 50 34<250 458.5 250 468.5> 588 32<302 302> 590.5 29.5
AnchorPoint: "Anchor-3" 352 710 basechar 0
AnchorPoint: "Anchor-0" 354 0 basechar 0
LayerCount: 2
Fore
SplineSet
254 790 m 1xbd
 342 914 l 1
 364 914 l 1
 452 790 l 1
 424 790 l 1
 353 889 l 1
 282 790 l 1
 254 790 l 1xbd
346 -16 m 0
 165 -16 50 127 50 354 c 0
 50 583 159 726 352 726 c 0
 490 726 588 641 618 481 c 1
 585 477 l 1
 557 621 476 694 352 694 c 0
 180 694 84 563 84 354 c 0
 84 146 186 16 346 16 c 0xb6
 490 16 576 118 588 302 c 1
 354 302 l 1
 354 330 l 1
 620 330 l 1
 620 0 l 1x76
 592 0 l 1x75
 589 175 l 1
 563 69 484 -16 346 -16 c 0
EndSplineSet
Substitution2: "'ss06' Style Set 6 in Latin lookup 39 subtable" Gcircumflex.ss06
Substitution2: "'aalt' Access All Alternates in Latin lookup 0 subtable" Gcircumflex.ss06
EndChar

StartChar: uni0122
Encoding: 290 290 40
Width: 675
GlyphClass: 2
Flags: MW
HStem: -94 48<329 353 329 379> -16 32<266 415> 0 21G<592 620 592 592> 302 28<354 588 354 620> 694 32<266 414>
VStem: 50 34<250 458.5 250 468.5> 329 50<-89 -46 -89 -46 -89 -46> 588 32<302 302> 590.5 29.5
AnchorPoint: "Anchor-3" 352 710 basechar 0
AnchorPoint: "Anchor-0" 354 -169 basechar 0
LayerCount: 2
Fore
SplineSet
346 -16 m 0x5e80
 165 -16 50 127 50 354 c 0
 50 583 159 726 352 726 c 0
 490 726 588 641 618 481 c 1
 585 477 l 1
 557 621 476 694 352 694 c 0
 180 694 84 563 84 354 c 0
 84 146 186 16 346 16 c 0x5f
 490 16 576 118 588 302 c 1
 354 302 l 1
 354 330 l 1
 620 330 l 1
 620 0 l 1x3f
 592 0 l 1x3e80
 589 175 l 1
 563 69 484 -16 346 -16 c 0x5e80
317 -169 m 1
 353 -94 l 1
 329 -94 l 1
 329 -46 l 1
 379 -46 l 1x9f
 379 -89 l 1
 339 -169 l 1
 317 -169 l 1
EndSplineSet
Substitution2: "'ss06' Style Set 6 in Latin lookup 39 subtable" uni0122.ss06
Substitution2: "'aalt' Access All Alternates in Latin lookup 0 subtable" uni0122.ss06
EndChar

StartChar: Gdotaccent
Encoding: 288 288 41
Width: 675
GlyphClass: 2
Flags: MW
HStem: -16 32<266 415> 0 21G<592 620 592 592> 302 28<354 588 354 620> 694 32<266 414> 808 70<335 369 335 369>
VStem: 50 34<250 458.5 250 468.5> 335 34<808 878 808 878> 588 32<302 302> 590.5 29.5
AnchorPoint: "Anchor-3" 352 710 basechar 0
AnchorPoint: "Anchor-0" 354 0 basechar 0
LayerCount: 2
Fore
SplineSet
335 808 m 1xbe80
 335 878 l 1
 369 878 l 1
 369 808 l 1
 335 808 l 1xbe80
346 -16 m 0
 165 -16 50 127 50 354 c 0
 50 583 159 726 352 726 c 0
 490 726 588 641 618 481 c 1
 585 477 l 1
 557 621 476 694 352 694 c 0
 180 694 84 563 84 354 c 0
 84 146 186 16 346 16 c 0xbf
 490 16 576 118 588 302 c 1
 354 302 l 1
 354 330 l 1
 620 330 l 1
 620 0 l 1x7f
 592 0 l 1x7e80
 589 175 l 1
 563 69 484 -16 346 -16 c 0
EndSplineSet
Substitution2: "'ss08' Style Set 8 in Latin lookup 41 subtable" Gdotaccent.ss08
Substitution2: "'ss06' Style Set 6 in Latin lookup 39 subtable" Gdotaccent.ss06
AlternateSubs2: "'aalt' Access All Alternates in Latin lookup 1 subtable" Gdotaccent.ss06 Gdotaccent.ss08
EndChar

StartChar: uni1E20
Encoding: 7712 7712 42
Width: 675
GlyphClass: 2
Flags: MW
HStem: -16 32<266 415> 0 21G<592 620 592 592> 302 28<354 588 354 620> 694 32<266 414> 824 28<228 476 228 476>
VStem: 50 34<250 458.5 250 468.5> 588 32<302 302> 590.5 29.5
AnchorPoint: "Anchor-3" 352 710 basechar 0
AnchorPoint: "Anchor-0" 354 0 basechar 0
LayerCount: 2
Fore
SplineSet
228 824 m 1xbd
 228 852 l 1
 476 852 l 1
 476 824 l 1
 228 824 l 1xbd
346 -16 m 0
 165 -16 50 127 50 354 c 0
 50 583 159 726 352 726 c 0
 490 726 588 641 618 481 c 1
 585 477 l 1
 557 621 476 694 352 694 c 0
 180 694 84 563 84 354 c 0
 84 146 186 16 346 16 c 0xbe
 490 16 576 118 588 302 c 1
 354 302 l 1
 354 330 l 1
 620 330 l 1
 620 0 l 1x7e
 592 0 l 1x7d
 589 175 l 1
 563 69 484 -16 346 -16 c 0
EndSplineSet
Substitution2: "'ss06' Style Set 6 in Latin lookup 39 subtable" uni1E20.ss06
Substitution2: "'aalt' Access All Alternates in Latin lookup 0 subtable" uni1E20.ss06
EndChar

StartChar: uni01E4
Encoding: 484 484 43
Width: 714
GlyphClass: 2
Flags: MW
HStem: -16 32<262 399 262 408.5> 170 26<355 566 355 575 355 600 607 669> 302 28<354 588 354 620> 694 32<271 415>
VStem: 50 34<250 464.5 250 473> 588 32<286 302>
AnchorPoint: "Anchor-3" 353 710 basechar 0
AnchorPoint: "Anchor-0" 350 0 basechar 0
LayerCount: 2
Fore
SplineSet
344 -16 m 0
 163 -16 50 123 50 354 c 0
 50 592 167 726 354 726 c 0
 491 726 588 639 618 481 c 1
 585 477 l 1
 559 618 476 694 354 694 c 0
 188 694 84 575 84 354 c 0
 84 146 180 16 344 16 c 0
 454 16 531 75 566 170 c 1
 355 170 l 1
 355 196 l 1
 575 196 l 1
 583 228 588 264 588 302 c 1
 354 302 l 1
 354 330 l 1
 620 330 l 1
 620 306 l 2
 620 266 616 230 607 196 c 1
 669 196 l 1
 669 170 l 1
 600 170 l 1
 562 55 473 -16 344 -16 c 0
EndSplineSet
EndChar

StartChar: H
Encoding: 72 72 44
Width: 676
GlyphClass: 2
Flags: MW
HStem: 0 21G<96 96 96 128 548 548 548 580> 349 30<128 548 128 548> 690 20G<96 128 128 128 548 580 580 580>
VStem: 96 32<0 349 379 710> 548 32<0 349 349 349 379 710 0 710>
AnchorPoint: "Anchor-3" 338 710 basechar 0
AnchorPoint: "Anchor-1" 338 560 basechar 0
AnchorPoint: "Anchor-0" 338 0 basechar 0
LayerCount: 2
Fore
SplineSet
96 0 m 1
 96 710 l 1
 128 710 l 1
 128 379 l 1
 548 379 l 1
 548 710 l 1
 580 710 l 1
 580 0 l 1
 548 0 l 1
 548 349 l 1
 128 349 l 1
 128 0 l 1
 96 0 l 1
EndSplineSet
EndChar

StartChar: Hbar
Encoding: 294 294 45
Width: 676
GlyphClass: 2
Flags: MW
HStem: 0 21G<96 96 96 128 548 548 548 580> 349 30<128 548 128 548> 546 28<18 96 18 96 128 548 580 658> 546 164<18 128 18 128 96 128 96 548>
VStem: 96 32<0 349 379 546 574 710> 548 32<0 349 349 349 379 546 0 546 574 710>
AnchorPoint: "Anchor-3" 338 710 basechar 0
AnchorPoint: "Anchor-1" 338 560 basechar 0
AnchorPoint: "Anchor-0" 338 0 basechar 0
LayerCount: 2
Fore
SplineSet
96 0 m 1xec
 96 546 l 1
 18 546 l 1
 18 574 l 1
 96 574 l 1xec
 96 710 l 1
 128 710 l 1xdc
 128 574 l 1
 548 574 l 1xec
 548 710 l 1
 580 710 l 1xdc
 580 574 l 1
 658 574 l 1
 658 546 l 1
 580 546 l 1
 580 0 l 1
 548 0 l 1
 548 349 l 1
 128 349 l 1
 128 0 l 1
 96 0 l 1xec
128 379 m 1
 548 379 l 1
 548 546 l 1
 128 546 l 1
 128 379 l 1
EndSplineSet
EndChar

StartChar: Hcircumflex
Encoding: 292 292 46
Width: 676
GlyphClass: 2
Flags: MW
HStem: 0 21G<96 96 96 128 548 548 548 580> 349 30<128 548 128 548> 690 20G<96 128 128 128 548 580 580 580> 889 25<339 339>
VStem: 96 32<0 349 379 710> 548 32<0 349 349 349 379 710 0 710>
AnchorPoint: "Anchor-3" 338 710 basechar 0
AnchorPoint: "Anchor-1" 338 560 basechar 0
AnchorPoint: "Anchor-0" 338 0 basechar 0
LayerCount: 2
Fore
SplineSet
240 790 m 1
 328 914 l 1
 350 914 l 1
 438 790 l 1
 410 790 l 1
 339 889 l 1
 268 790 l 1
 240 790 l 1
96 0 m 1
 96 710 l 1
 128 710 l 1
 128 379 l 1
 548 379 l 1
 548 710 l 1
 580 710 l 1
 580 0 l 1
 548 0 l 1
 548 349 l 1
 128 349 l 1
 128 0 l 1
 96 0 l 1
EndSplineSet
EndChar

StartChar: I
Encoding: 73 73 47
Width: 224
GlyphClass: 2
Flags: MW
HStem: 0 21G<96 96 96 128> 690 20G<96 128 128 128>
VStem: 96 32<0 710 0 710>
AnchorPoint: "Anchor-3" 112 710 basechar 0
AnchorPoint: "Anchor-2" 128 0 basechar 0
AnchorPoint: "Anchor-0" 112 0 basechar 0
LayerCount: 2
Fore
SplineSet
96 0 m 1
 96 710 l 1
 128 710 l 1
 128 0 l 1
 96 0 l 1
EndSplineSet
Substitution2: "'ss05' Style Set 5 in Latin lookup 38 subtable" I.ss05
Substitution2: "'aalt' Access All Alternates in Latin lookup 0 subtable" I.ss05
EndChar

StartChar: IJ
Encoding: 306 306 48
Width: 764
GlyphClass: 2
Flags: MW
HStem: -16 32<421.5 527.5 421.5 536.5> 0 21G<96 96 96 128> 690 20G<96 128 128 128 651 683 683 683>
VStem: 96 32<0 710 0 710> 265 34<233 236> 651 32<248 710>
AnchorPoint: "Anchor-3" 667 710 basechar 0
AnchorPoint: "Anchor-2" 128 0 basechar 0
AnchorPoint: "Anchor-0" 112 0 basechar 0
LayerCount: 2
Fore
SplineSet
96 0 m 1x7c
 96 710 l 1
 128 710 l 1
 128 0 l 1
 96 0 l 1x7c
473 -16 m 0
 351 -16 267 76 265 233 c 1
 299 236 l 1
 301 92 370 16 473 16 c 0
 582 16 651 93 651 248 c 2
 651 710 l 1
 683 710 l 1
 683 248 l 2xbc
 683 76 600 -16 473 -16 c 0
EndSplineSet
EndChar

StartChar: Iacute
Encoding: 205 205 49
Width: 224
GlyphClass: 2
Flags: MW
HStem: 0 21G<96 96 96 128> 690 20G<96 128 128 128> 790 116<98 204 98 204>
VStem: 96 32<0 710 0 710>
AnchorPoint: "Anchor-3" 112 710 basechar 0
AnchorPoint: "Anchor-2" 128 0 basechar 0
AnchorPoint: "Anchor-0" 112 0 basechar 0
LayerCount: 2
Fore
SplineSet
98 790 m 1
 170 906 l 1
 204 906 l 1
 124 790 l 1
 98 790 l 1
96 0 m 1
 96 710 l 1
 128 710 l 1
 128 0 l 1
 96 0 l 1
EndSplineSet
Substitution2: "'ss05' Style Set 5 in Latin lookup 38 subtable" Iacute.ss05
Substitution2: "'aalt' Access All Alternates in Latin lookup 0 subtable" Iacute.ss05
EndChar

StartChar: Icircumflex
Encoding: 206 206 50
Width: 224
GlyphClass: 2
Flags: MW
HStem: 0 21G<96 96 96 128> 690 20G<96 128 128 128> 889 25<113 113>
VStem: 96 32<0 710 0 710>
AnchorPoint: "Anchor-3" 112 710 basechar 0
AnchorPoint: "Anchor-2" 128 0 basechar 0
AnchorPoint: "Anchor-0" 112 0 basechar 0
LayerCount: 2
Fore
SplineSet
14 790 m 1
 102 914 l 1
 124 914 l 1
 212 790 l 1
 184 790 l 1
 113 889 l 1
 42 790 l 1
 14 790 l 1
96 0 m 1
 96 710 l 1
 128 710 l 1
 128 0 l 1
 96 0 l 1
EndSplineSet
Substitution2: "'ss05' Style Set 5 in Latin lookup 38 subtable" Icircumflex.ss05
Substitution2: "'aalt' Access All Alternates in Latin lookup 0 subtable" Icircumflex.ss05
EndChar

StartChar: Idieresis
Encoding: 207 207 51
Width: 224
GlyphClass: 2
Flags: MW
HStem: 0 21G<96 96 96 128> 690 20G<96 128 128 128> 808 70<31 65 31 65 159 193>
VStem: 31 34<808 878 808 878> 96 32<0 710 0 710> 159 34<808 878 808 878>
AnchorPoint: "Anchor-3" 112 710 basechar 0
AnchorPoint: "Anchor-2" 128 0 basechar 0
AnchorPoint: "Anchor-0" 112 0 basechar 0
LayerCount: 2
Fore
SplineSet
31 808 m 1
 31 878 l 1
 65 878 l 1
 65 808 l 1
 31 808 l 1
159 808 m 1
 159 878 l 1
 193 878 l 1
 193 808 l 1
 159 808 l 1
96 0 m 1
 96 710 l 1
 128 710 l 1
 128 0 l 1
 96 0 l 1
EndSplineSet
Substitution2: "'ss08' Style Set 8 in Latin lookup 41 subtable" Idieresis.ss08
Substitution2: "'ss05' Style Set 5 in Latin lookup 38 subtable" Idieresis.ss05
AlternateSubs2: "'aalt' Access All Alternates in Latin lookup 1 subtable" Idieresis.ss05 Idieresis.ss08
EndChar

StartChar: Idotaccent
Encoding: 304 304 52
Width: 224
GlyphClass: 2
Flags: MW
HStem: 0 21G<96 96 96 128> 690 20G<96 128 128 128> 808 70<95 129 95 129>
VStem: 95 34<808 878 808 878> 96 32<0 710 0 710>
AnchorPoint: "Anchor-3" 112 710 basechar 0
AnchorPoint: "Anchor-2" 128 0 basechar 0
AnchorPoint: "Anchor-0" 112 0 basechar 0
LayerCount: 2
Fore
SplineSet
95 808 m 1xf0
 95 878 l 1
 129 878 l 1
 129 808 l 1
 95 808 l 1xf0
96 0 m 1xe8
 96 710 l 1
 128 710 l 1
 128 0 l 1
 96 0 l 1xe8
EndSplineSet
Substitution2: "'ss08' Style Set 8 in Latin lookup 41 subtable" Idotaccent.ss08
Substitution2: "'ss05' Style Set 5 in Latin lookup 38 subtable" Idotaccent.ss05
AlternateSubs2: "'aalt' Access All Alternates in Latin lookup 1 subtable" Idotaccent.ss05 Idotaccent.ss08
EndChar

StartChar: Igrave
Encoding: 204 204 53
Width: 224
GlyphClass: 2
Flags: MW
HStem: 0 21G<96 96 96 128> 690 20G<96 128 128 128> 798 116<19 99 19 125>
VStem: 96 32<0 710 0 710>
AnchorPoint: "Anchor-3" 112 710 basechar 0
AnchorPoint: "Anchor-2" 128 0 basechar 0
AnchorPoint: "Anchor-0" 112 0 basechar 0
LayerCount: 2
Fore
SplineSet
99 798 m 1
 19 914 l 1
 53 914 l 1
 125 798 l 1
 99 798 l 1
96 0 m 1
 96 710 l 1
 128 710 l 1
 128 0 l 1
 96 0 l 1
EndSplineSet
Substitution2: "'ss05' Style Set 5 in Latin lookup 38 subtable" Igrave.ss05
Substitution2: "'aalt' Access All Alternates in Latin lookup 0 subtable" Igrave.ss05
EndChar

StartChar: Imacron
Encoding: 298 298 54
Width: 224
GlyphClass: 2
Flags: MW
HStem: 0 21G<96 96 96 128> 690 20G<96 128 128 128> 824 28<-12 236 -12 236>
VStem: 96 32<0 710 0 710>
AnchorPoint: "Anchor-3" 112 710 basechar 0
AnchorPoint: "Anchor-2" 128 0 basechar 0
AnchorPoint: "Anchor-0" 112 0 basechar 0
LayerCount: 2
Fore
SplineSet
-12 824 m 1
 -12 852 l 1
 236 852 l 1
 236 824 l 1
 -12 824 l 1
96 0 m 1
 96 710 l 1
 128 710 l 1
 128 0 l 1
 96 0 l 1
EndSplineSet
Substitution2: "'ss05' Style Set 5 in Latin lookup 38 subtable" Imacron.ss05
Substitution2: "'aalt' Access All Alternates in Latin lookup 0 subtable" Imacron.ss05
EndChar

StartChar: Iogonek
Encoding: 302 302 55
Width: 224
GlyphClass: 2
Flags: MW
HStem: -192 26<97 118 97 121> 0 21G<96 96 96 103 128 128> 690 20G<96 128 128 128>
VStem: 38 30<-144.5 -116> 96 32<0 710 0 710>
AnchorPoint: "Anchor-3" 112 710 basechar 0
AnchorPoint: "Anchor-2" 128 0 basechar 0
AnchorPoint: "Anchor-0" 112 0 basechar 0
LayerCount: 2
Fore
SplineSet
96 0 m 1
 96 710 l 1
 128 710 l 1
 128 0 l 1xe8
 102 -40 l 2
 82 -70 68 -98 68 -130 c 0
 68 -159 86 -166 108 -166 c 0
 128 -166 145 -160 157 -151 c 1
 171 -173 l 1
 153 -185 134 -192 108 -192 c 0
 70 -192 38 -176 38 -132 c 0xf0
 38 -100 60 -65 86 -26 c 2
 103 0 l 1
 96 0 l 1
EndSplineSet
Substitution2: "'ss05' Style Set 5 in Latin lookup 38 subtable" Iogonek.ss05
Substitution2: "'aalt' Access All Alternates in Latin lookup 0 subtable" Iogonek.ss05
EndChar

StartChar: Itilde
Encoding: 296 296 56
Width: 224
GlyphClass: 2
Flags: MW
HStem: 0 21G<96 96 96 128> 690 20G<96 128 128 128> 810 24<159 180 159 188> 870 24<34 61>
VStem: -27 26<805 805> 96 32<0 710 0 710> 211 26<903 903>
AnchorPoint: "Anchor-3" 112 710 basechar 0
AnchorPoint: "Anchor-2" 128 0 basechar 0
AnchorPoint: "Anchor-0" 112 0 basechar 0
LayerCount: 2
Fore
SplineSet
167 810 m 0
 139 810 122 821 103 842 c 0
 87 860 73 870 49 870 c 0
 19 870 1 849 -1 805 c 1
 -27 805 l 1
 -23 861 7 894 49 894 c 0
 81 894 101 879 121 858 c 0
 139 840 151 834 167 834 c 0
 193 834 207 853 211 903 c 1
 237 903 l 1
 233 845 209 810 167 810 c 0
96 0 m 1
 96 710 l 1
 128 710 l 1
 128 0 l 1
 96 0 l 1
EndSplineSet
Substitution2: "'ss05' Style Set 5 in Latin lookup 38 subtable" Itilde.ss05
Substitution2: "'aalt' Access All Alternates in Latin lookup 0 subtable" Itilde.ss05
EndChar

StartChar: J
Encoding: 74 74 57
Width: 570
GlyphClass: 2
Flags: MW
HStem: -16 32<227.5 333.5 227.5 342.5> 690 20G<457 489 489 489>
VStem: 71 34<233 236> 457 32<248 710>
AnchorPoint: "Anchor-3" 473 710 basechar 0
LayerCount: 2
Fore
SplineSet
279 -16 m 0
 157 -16 73 76 71 233 c 1
 105 236 l 1
 107 92 176 16 279 16 c 0
 388 16 457 93 457 248 c 2
 457 710 l 1
 489 710 l 1
 489 248 l 2
 489 76 406 -16 279 -16 c 0
EndSplineSet
Substitution2: "Single Substitution lookup 16 subtable" uni004A0301
Substitution2: "'aalt' Access All Alternates in Latin lookup 0 subtable" uni004A0301
EndChar

StartChar: uni004A0301
Encoding: 65537 -1 58
Width: 570
GlyphClass: 2
Flags: MW
HStem: -16 32<227.5 333.5 227.5 342.5> 690 20G<457 489 489 489> 790 116<459 565 459 565>
VStem: 71 34<233 236> 457 32<248 710>
AnchorPoint: "Anchor-3" 473 710 basechar 0
LayerCount: 2
Fore
SplineSet
459 790 m 1
 531 906 l 1
 565 906 l 1
 485 790 l 1
 459 790 l 1
279 -16 m 0
 157 -16 73 76 71 233 c 1
 105 236 l 1
 107 92 176 16 279 16 c 0
 388 16 457 93 457 248 c 2
 457 710 l 1
 489 710 l 1
 489 248 l 2
 489 76 406 -16 279 -16 c 0
EndSplineSet
EndChar

StartChar: Jcircumflex
Encoding: 308 308 59
Width: 570
GlyphClass: 2
Flags: MW
HStem: -16 32<227.5 333.5 227.5 342.5> 690 20G<457 489 489 489> 889 25<474 474>
VStem: 71 34<233 236> 457 32<248 710>
AnchorPoint: "Anchor-3" 473 710 basechar 0
LayerCount: 2
Fore
SplineSet
375 790 m 1
 463 914 l 1
 485 914 l 1
 573 790 l 1
 545 790 l 1
 474 889 l 1
 403 790 l 1
 375 790 l 1
279 -16 m 0
 157 -16 73 76 71 233 c 1
 105 236 l 1
 107 92 176 16 279 16 c 0
 388 16 457 93 457 248 c 2
 457 710 l 1
 489 710 l 1
 489 248 l 2
 489 76 406 -16 279 -16 c 0
EndSplineSet
EndChar

StartChar: K
Encoding: 75 75 60
Width: 615
GlyphClass: 2
Flags: MW
HStem: 0 21G<96 96 96 128 558 558 558 595> 690 20G<96 128 128 128 534 573 573 573>
VStem: 96 32<0 233 275 710>
AnchorPoint: "Anchor-3" 317 710 basechar 0
AnchorPoint: "Anchor-0" 327 0 basechar 0
LayerCount: 2
Fore
SplineSet
96 0 m 1
 96 710 l 1
 128 710 l 1
 128 275 l 1
 534 710 l 1
 573 710 l 1
 284 401 l 1
 595 0 l 1
 558 0 l 1
 265 380 l 1
 128 233 l 1
 128 0 l 1
 96 0 l 1
EndSplineSet
EndChar

StartChar: uni01E8
Encoding: 488 488 61
Width: 615
GlyphClass: 2
Flags: MW
HStem: 0 21G<96 96 96 128 558 558 558 595> 690 20G<96 128 128 128 534 573 573 573> 790 25<317 317 317 328 306 317>
VStem: 96 32<0 233 275 710>
AnchorPoint: "Anchor-3" 317 710 basechar 0
AnchorPoint: "Anchor-0" 327 0 basechar 0
LayerCount: 2
Fore
SplineSet
218 914 m 1
 246 914 l 1
 317 815 l 1
 388 914 l 1
 416 914 l 1
 328 790 l 1
 306 790 l 1
 218 914 l 1
96 0 m 1
 96 710 l 1
 128 710 l 1
 128 275 l 1
 534 710 l 1
 573 710 l 1
 284 401 l 1
 595 0 l 1
 558 0 l 1
 265 380 l 1
 128 233 l 1
 128 0 l 1
 96 0 l 1
EndSplineSet
EndChar

StartChar: uni0136
Encoding: 310 310 62
Width: 615
GlyphClass: 2
Flags: MW
HStem: -94 48<302 326 302 352> 0 21G<96 96 96 128 558 558 558 595> 690 20G<96 128 128 128 534 573 573 573>
VStem: 96 32<0 233 275 710> 302 50<-89 -46 -89 -46 -89 -46>
AnchorPoint: "Anchor-3" 317 710 basechar 0
AnchorPoint: "Anchor-0" 327 -169 basechar 0
LayerCount: 2
Fore
SplineSet
96 0 m 1
 96 710 l 1
 128 710 l 1
 128 275 l 1
 534 710 l 1
 573 710 l 1
 284 401 l 1
 595 0 l 1
 558 0 l 1
 265 380 l 1
 128 233 l 1
 128 0 l 1
 96 0 l 1
290 -169 m 1
 326 -94 l 1
 302 -94 l 1
 302 -46 l 1
 352 -46 l 1
 352 -89 l 1
 312 -169 l 1
 290 -169 l 1
EndSplineSet
EndChar

StartChar: L
Encoding: 76 76 63
Width: 550
GlyphClass: 2
Flags: MW
HStem: 0 30<128 510 128 510> 690 20G<96 128 128 128>
VStem: 96 32<30 710 30 710 30 710>
AnchorPoint: "Anchor-4" 340 530 basechar 0
AnchorPoint: "Anchor-3" 112 710 basechar 0
AnchorPoint: "Anchor-1" 140 380 basechar 0
AnchorPoint: "Anchor-0" 303 0 basechar 0
LayerCount: 2
Fore
SplineSet
96 0 m 1
 96 710 l 1
 128 710 l 1
 128 30 l 1
 510 30 l 1
 510 0 l 1
 96 0 l 1
EndSplineSet
EndChar

StartChar: Lacute
Encoding: 313 313 64
Width: 550
GlyphClass: 2
Flags: MW
HStem: 0 30<128 510 128 510> 690 20G<96 128 128 128> 790 116<98 204 98 204>
VStem: 96 32<30 710 30 710 30 710>
AnchorPoint: "Anchor-4" 340 530 basechar 0
AnchorPoint: "Anchor-3" 112 710 basechar 0
AnchorPoint: "Anchor-1" 140 380 basechar 0
AnchorPoint: "Anchor-0" 303 0 basechar 0
LayerCount: 2
Fore
SplineSet
98 790 m 1
 170 906 l 1
 204 906 l 1
 124 790 l 1
 98 790 l 1
96 0 m 1
 96 710 l 1
 128 710 l 1
 128 30 l 1
 510 30 l 1
 510 0 l 1
 96 0 l 1
EndSplineSet
EndChar

StartChar: Lcaron
Encoding: 317 317 65
Width: 550
GlyphClass: 2
Flags: MW
HStem: 0 30<128 510 128 510> 690 20G<96 128 128 128 394 426 426 426>
VStem: 96 32<30 710 30 710 30 710>
AnchorPoint: "Anchor-4" 340 530 basechar 0
AnchorPoint: "Anchor-3" 112 710 basechar 0
AnchorPoint: "Anchor-1" 140 380 basechar 0
AnchorPoint: "Anchor-0" 303 0 basechar 0
LayerCount: 2
Fore
SplineSet
96 0 m 1
 96 710 l 1
 128 710 l 1
 128 30 l 1
 510 30 l 1
 510 0 l 1
 96 0 l 1
360 502 m 1
 394 710 l 1
 426 710 l 1
 386 502 l 1
 360 502 l 1
EndSplineSet
EndChar

StartChar: uni013B
Encoding: 315 315 66
Width: 550
GlyphClass: 2
Flags: MW
HStem: -94 48<278 302 278 328> 0 30<128 510 128 510> 690 20G<96 128 128 128>
VStem: 96 32<30 710 30 710 30 710> 278 50<-89 -46 -89 -46 -89 -46>
AnchorPoint: "Anchor-4" 340 530 basechar 0
AnchorPoint: "Anchor-3" 112 710 basechar 0
AnchorPoint: "Anchor-1" 140 380 basechar 0
AnchorPoint: "Anchor-0" 303 -169 basechar 0
LayerCount: 2
Fore
SplineSet
96 0 m 1
 96 710 l 1
 128 710 l 1
 128 30 l 1
 510 30 l 1
 510 0 l 1
 96 0 l 1
266 -169 m 1
 302 -94 l 1
 278 -94 l 1
 278 -46 l 1
 328 -46 l 1
 328 -89 l 1
 288 -169 l 1
 266 -169 l 1
EndSplineSet
Substitution2: "'locl' Localized Forms in Latin lookup 11 subtable" uni013B.loclMAH
Substitution2: "'aalt' Access All Alternates in Latin lookup 0 subtable" uni013B.loclMAH
EndChar

StartChar: Lslash
Encoding: 321 321 67
Width: 550
GlyphClass: 2
Flags: MW
HStem: 0 30<128 510 128 510> 690 20G<96 128 128 128>
VStem: 96 32<30 347 347 347 387 710> 96 157<0 445 347 445 419 445 419 710>
AnchorPoint: "Anchor-4" 340 530 basechar 0
AnchorPoint: "Anchor-3" 112 710 basechar 0
AnchorPoint: "Anchor-1" 140 380 basechar 0
AnchorPoint: "Anchor-0" 303 0 basechar 0
LayerCount: 2
Fore
SplineSet
96 0 m 1xe0
 96 347 l 1
 27 315 l 1
 27 341 l 1
 96 373 l 1
 96 710 l 1
 128 710 l 1
 128 387 l 1xe0
 253 445 l 1
 253 419 l 1xd0
 128 361 l 1
 128 30 l 1
 510 30 l 1
 510 0 l 1
 96 0 l 1xe0
EndSplineSet
EndChar

StartChar: M
Encoding: 77 77 68
Width: 850
GlyphClass: 2
Flags: MW
HStem: 0 34<407 425 425 425 425 443> 680 30<128 128 722 722>
VStem: 96 32<0 680 0 710 0 710> 722 32<0 680 680 680>
AnchorPoint: "Anchor-3" 425 710 basechar 0
AnchorPoint: "Anchor-0" 425 0 basechar 0
LayerCount: 2
Fore
SplineSet
96 0 m 1
 96 710 l 1
 150 710 l 1
 425 34 l 1
 700 710 l 1
 754 710 l 1
 754 0 l 1
 722 0 l 1
 722 680 l 1
 443 0 l 1
 407 0 l 1
 128 680 l 1
 128 0 l 1
 96 0 l 1
EndSplineSet
EndChar

StartChar: N
Encoding: 78 78 69
Width: 711
GlyphClass: 2
Flags: MW
HStem: 0 30<568 583 583 583 583 615> 680 30<128 128>
VStem: 96 32<0 680 0 710 0 710> 583 32<30 710 0 710>
AnchorPoint: "Anchor-3" 356 710 basechar 0
AnchorPoint: "Anchor-0" 356 0 basechar 0
LayerCount: 2
Fore
SplineSet
96 0 m 1
 96 710 l 1
 143 710 l 1
 583 30 l 1
 583 710 l 1
 615 710 l 1
 615 0 l 1
 568 0 l 1
 128 680 l 1
 128 0 l 1
 96 0 l 1
EndSplineSet
EndChar

StartChar: Nacute
Encoding: 323 323 70
Width: 711
GlyphClass: 2
Flags: MW
HStem: 0 30<568 583 583 583 583 615> 680 30<128 128> 790 116<342 448 342 448>
VStem: 96 32<0 680 0 710 0 710> 583 32<30 710 0 710>
AnchorPoint: "Anchor-3" 356 710 basechar 0
AnchorPoint: "Anchor-0" 356 0 basechar 0
LayerCount: 2
Fore
SplineSet
342 790 m 1
 414 906 l 1
 448 906 l 1
 368 790 l 1
 342 790 l 1
96 0 m 1
 96 710 l 1
 143 710 l 1
 583 30 l 1
 583 710 l 1
 615 710 l 1
 615 0 l 1
 568 0 l 1
 128 680 l 1
 128 0 l 1
 96 0 l 1
EndSplineSet
EndChar

StartChar: Ncaron
Encoding: 327 327 71
Width: 711
GlyphClass: 2
Flags: MW
HStem: 0 30<568 583 583 583 583 615> 680 30<128 128> 790 25<356 356 356 367 345 356>
VStem: 96 32<0 680 0 710 0 710> 583 32<30 710 0 710>
AnchorPoint: "Anchor-3" 356 710 basechar 0
AnchorPoint: "Anchor-0" 356 0 basechar 0
LayerCount: 2
Fore
SplineSet
257 914 m 1
 285 914 l 1
 356 815 l 1
 427 914 l 1
 455 914 l 1
 367 790 l 1
 345 790 l 1
 257 914 l 1
96 0 m 1
 96 710 l 1
 143 710 l 1
 583 30 l 1
 583 710 l 1
 615 710 l 1
 615 0 l 1
 568 0 l 1
 128 680 l 1
 128 0 l 1
 96 0 l 1
EndSplineSet
EndChar

StartChar: uni0145
Encoding: 325 325 72
Width: 711
GlyphClass: 2
Flags: MW
HStem: -94 48<331 355 331 381> 0 30<568 583 583 583 583 615> 680 30<128 128>
VStem: 96 32<0 680 0 710 0 710> 331 50<-89 -46 -89 -46 -89 -46> 583 32<30 710 0 710>
AnchorPoint: "Anchor-3" 356 710 basechar 0
AnchorPoint: "Anchor-0" 356 -169 basechar 0
LayerCount: 2
Fore
SplineSet
96 0 m 1
 96 710 l 1
 143 710 l 1
 583 30 l 1
 583 710 l 1
 615 710 l 1
 615 0 l 1
 568 0 l 1
 128 680 l 1
 128 0 l 1
 96 0 l 1
319 -169 m 1
 355 -94 l 1
 331 -94 l 1
 331 -46 l 1
 381 -46 l 1
 381 -89 l 1
 341 -169 l 1
 319 -169 l 1
EndSplineSet
Substitution2: "'locl' Localized Forms in Latin lookup 11 subtable" uni0145.loclMAH
Substitution2: "'aalt' Access All Alternates in Latin lookup 0 subtable" uni0145.loclMAH
EndChar

StartChar: Ntilde
Encoding: 209 209 73
Width: 711
GlyphClass: 2
Flags: MW
HStem: 0 30<568 583 583 583 583 615> 680 30<128 128> 810 24<403 424 403 432> 870 24<278 305>
VStem: 96 32<0 680 0 710 0 710> 217 26<805 805> 455 26<903 903> 583 32<30 710 0 710>
AnchorPoint: "Anchor-3" 356 710 basechar 0
AnchorPoint: "Anchor-0" 356 0 basechar 0
LayerCount: 2
Fore
SplineSet
411 810 m 0
 383 810 366 821 347 842 c 0
 331 860 317 870 293 870 c 0
 263 870 245 849 243 805 c 1
 217 805 l 1
 221 861 251 894 293 894 c 0
 325 894 345 879 365 858 c 0
 383 840 395 834 411 834 c 0
 437 834 451 853 455 903 c 1
 481 903 l 1
 477 845 453 810 411 810 c 0
96 0 m 1
 96 710 l 1
 143 710 l 1
 583 30 l 1
 583 710 l 1
 615 710 l 1
 615 0 l 1
 568 0 l 1
 128 680 l 1
 128 0 l 1
 96 0 l 1
EndSplineSet
EndChar

StartChar: Eng
Encoding: 330 330 74
Width: 711
GlyphClass: 2
Flags: MW
HStem: -150 28<394 492 394 492> 0 21G<96 96 96 128 568 568 568 583> 0 30<568 583 568 583> 680 30<128 128>
VStem: 96 32<0 680 0 710 0 710> 583 32<-30 0 0 0 30 710>
AnchorPoint: "Anchor-3" 356 710 basechar 0
AnchorPoint: "Anchor-0" 356 -150 basechar 0
LayerCount: 2
Fore
SplineSet
96 0 m 1xdc
 96 710 l 1
 143 710 l 1
 583 30 l 1xbc
 583 710 l 1
 615 710 l 1
 615 -30 l 2
 615 -100 569 -150 492 -150 c 2
 394 -150 l 1
 394 -122 l 1
 492 -122 l 2
 550 -122 583 -83 583 -30 c 2
 583 0 l 1
 568 0 l 1
 128 680 l 1
 128 0 l 1
 96 0 l 1xdc
EndSplineSet
EndChar

StartChar: O
Encoding: 79 79 75
Width: 714
GlyphClass: 2
Flags: MW
HStem: -16 32<272.5 441.5 272.5 452> 694 32<272.5 441.5>
VStem: 50 34<250 458.5 250 468.5> 630 34<250 458.5>
AnchorPoint: "Anchor-3" 357 710 basechar 0
AnchorPoint: "Anchor-1" 357 355 basechar 0
AnchorPoint: "Anchor-0" 357 0 basechar 0
LayerCount: 2
Fore
SplineSet
357 -16 m 0
 167 -16 50 127 50 354 c 0
 50 583 167 726 357 726 c 0
 547 726 664 583 664 354 c 0
 664 127 547 -16 357 -16 c 0
357 16 m 0
 526 16 630 146 630 354 c 0
 630 563 526 694 357 694 c 0
 188 694 84 563 84 354 c 0
 84 146 188 16 357 16 c 0
EndSplineSet
Substitution2: "Single Substitution lookup 27 subtable" ordmasculine
Substitution2: "'aalt' Access All Alternates in Latin lookup 0 subtable" ordmasculine
EndChar

StartChar: Oacute
Encoding: 211 211 76
Width: 714
GlyphClass: 2
Flags: MW
HStem: -16 32<272.5 441.5 272.5 452> 694 32<272.5 441.5> 790 116<343 449 343 449>
VStem: 50 34<250 458.5 250 468.5> 630 34<250 458.5>
AnchorPoint: "Anchor-3" 357 710 basechar 0
AnchorPoint: "Anchor-1" 357 355 basechar 0
AnchorPoint: "Anchor-0" 357 0 basechar 0
LayerCount: 2
Fore
SplineSet
343 790 m 1
 415 906 l 1
 449 906 l 1
 369 790 l 1
 343 790 l 1
357 -16 m 0
 167 -16 50 127 50 354 c 0
 50 583 167 726 357 726 c 0
 547 726 664 583 664 354 c 0
 664 127 547 -16 357 -16 c 0
357 16 m 0
 526 16 630 146 630 354 c 0
 630 563 526 694 357 694 c 0
 188 694 84 563 84 354 c 0
 84 146 188 16 357 16 c 0
EndSplineSet
EndChar

StartChar: Ocircumflex
Encoding: 212 212 77
Width: 714
GlyphClass: 2
Flags: MW
HStem: -16 32<272.5 441.5 272.5 452> 694 32<272.5 441.5> 889 25<358 358>
VStem: 50 34<250 458.5 250 468.5> 630 34<250 458.5>
AnchorPoint: "Anchor-3" 357 710 basechar 0
AnchorPoint: "Anchor-1" 357 355 basechar 0
AnchorPoint: "Anchor-0" 357 0 basechar 0
LayerCount: 2
Fore
SplineSet
259 790 m 1
 347 914 l 1
 369 914 l 1
 457 790 l 1
 429 790 l 1
 358 889 l 1
 287 790 l 1
 259 790 l 1
357 -16 m 0
 167 -16 50 127 50 354 c 0
 50 583 167 726 357 726 c 0
 547 726 664 583 664 354 c 0
 664 127 547 -16 357 -16 c 0
357 16 m 0
 526 16 630 146 630 354 c 0
 630 563 526 694 357 694 c 0
 188 694 84 563 84 354 c 0
 84 146 188 16 357 16 c 0
EndSplineSet
EndChar

StartChar: Odieresis
Encoding: 214 214 78
Width: 714
GlyphClass: 2
Flags: MW
HStem: -16 32<272.5 441.5 272.5 452> 694 32<272.5 441.5> 808 70<276 310 276 310 404 438>
VStem: 50 34<250 458.5 250 468.5> 276 34<808 878 808 878> 404 34<808 878 808 878> 630 34<250 458.5>
AnchorPoint: "Anchor-3" 357 710 basechar 0
AnchorPoint: "Anchor-1" 357 355 basechar 0
AnchorPoint: "Anchor-0" 357 0 basechar 0
LayerCount: 2
Fore
SplineSet
276 808 m 1
 276 878 l 1
 310 878 l 1
 310 808 l 1
 276 808 l 1
404 808 m 1
 404 878 l 1
 438 878 l 1
 438 808 l 1
 404 808 l 1
357 -16 m 0
 167 -16 50 127 50 354 c 0
 50 583 167 726 357 726 c 0
 547 726 664 583 664 354 c 0
 664 127 547 -16 357 -16 c 0
357 16 m 0
 526 16 630 146 630 354 c 0
 630 563 526 694 357 694 c 0
 188 694 84 563 84 354 c 0
 84 146 188 16 357 16 c 0
EndSplineSet
Substitution2: "'ss08' Style Set 8 in Latin lookup 41 subtable" Odieresis.ss08
Substitution2: "'aalt' Access All Alternates in Latin lookup 0 subtable" Odieresis.ss08
EndChar

StartChar: Ograve
Encoding: 210 210 79
Width: 714
GlyphClass: 2
Flags: MW
HStem: -16 32<272.5 441.5 272.5 452> 694 32<272.5 441.5> 798 116<264 344 264 370>
VStem: 50 34<250 458.5 250 468.5> 630 34<250 458.5>
AnchorPoint: "Anchor-3" 357 710 basechar 0
AnchorPoint: "Anchor-1" 357 355 basechar 0
AnchorPoint: "Anchor-0" 357 0 basechar 0
LayerCount: 2
Fore
SplineSet
344 798 m 1
 264 914 l 1
 298 914 l 1
 370 798 l 1
 344 798 l 1
357 -16 m 0
 167 -16 50 127 50 354 c 0
 50 583 167 726 357 726 c 0
 547 726 664 583 664 354 c 0
 664 127 547 -16 357 -16 c 0
357 16 m 0
 526 16 630 146 630 354 c 0
 630 563 526 694 357 694 c 0
 188 694 84 563 84 354 c 0
 84 146 188 16 357 16 c 0
EndSplineSet
EndChar

StartChar: Ohungarumlaut
Encoding: 336 336 80
Width: 714
GlyphClass: 2
Flags: MW
HStem: -16 32<272.5 441.5 272.5 452> 694 32<272.5 441.5> 790 116<297 403 297 403 391 403 369 417 391 391>
VStem: 50 34<250 458.5 250 468.5> 630 34<250 458.5>
AnchorPoint: "Anchor-3" 357 710 basechar 0
AnchorPoint: "Anchor-1" 357 355 basechar 0
AnchorPoint: "Anchor-0" 357 0 basechar 0
LayerCount: 2
Fore
SplineSet
297 790 m 1
 369 906 l 1
 403 906 l 1
 323 790 l 1
 297 790 l 1
391 790 m 1
 463 906 l 1
 497 906 l 1
 417 790 l 1
 391 790 l 1
357 -16 m 0
 167 -16 50 127 50 354 c 0
 50 583 167 726 357 726 c 0
 547 726 664 583 664 354 c 0
 664 127 547 -16 357 -16 c 0
357 16 m 0
 526 16 630 146 630 354 c 0
 630 563 526 694 357 694 c 0
 188 694 84 563 84 354 c 0
 84 146 188 16 357 16 c 0
EndSplineSet
EndChar

StartChar: Omacron
Encoding: 332 332 81
Width: 714
GlyphClass: 2
Flags: MW
HStem: -16 32<272.5 441.5 272.5 452> 694 32<272.5 441.5> 824 28<233 481 233 481>
VStem: 50 34<250 458.5 250 468.5> 630 34<250 458.5>
AnchorPoint: "Anchor-3" 357 710 basechar 0
AnchorPoint: "Anchor-1" 357 355 basechar 0
AnchorPoint: "Anchor-0" 357 0 basechar 0
LayerCount: 2
Fore
SplineSet
233 824 m 1
 233 852 l 1
 481 852 l 1
 481 824 l 1
 233 824 l 1
357 -16 m 0
 167 -16 50 127 50 354 c 0
 50 583 167 726 357 726 c 0
 547 726 664 583 664 354 c 0
 664 127 547 -16 357 -16 c 0
357 16 m 0
 526 16 630 146 630 354 c 0
 630 563 526 694 357 694 c 0
 188 694 84 563 84 354 c 0
 84 146 188 16 357 16 c 0
EndSplineSet
EndChar

StartChar: Oslash
Encoding: 216 216 82
Width: 714
GlyphClass: 2
Flags: MW
HStem: -16 32<321.5 441.5 321.5 452> 694 32<272.5 392.5>
VStem: 50 34<300 458.5 300 468.5> 630 34<250 408>
AnchorPoint: "Anchor-3" 357 710 basechar 0
AnchorPoint: "Anchor-1" 357 355 basechar 0
AnchorPoint: "Anchor-0" 357 0 basechar 0
LayerCount: 2
Fore
SplineSet
80 -16 m 1
 142 73 l 1
 83 137 50 234 50 354 c 0
 50 583 167 726 357 726 c 0
 435 726 501 702 552 657 c 1
 600 726 l 1
 634 726 l 1
 572 637 l 1
 631 573 664 475 664 354 c 0
 664 127 547 -16 357 -16 c 0
 279 -16 213 8 162 53 c 1
 114 -16 l 1
 80 -16 l 1
84 354 m 0
 84 246 112 160 162 101 c 1
 532 629 l 1
 487 671 428 694 357 694 c 0
 188 694 84 563 84 354 c 0
357 16 m 0
 526 16 630 146 630 354 c 0
 630 462 602 550 552 609 c 1
 182 81 l 1
 227 39 286 16 357 16 c 0
EndSplineSet
EndChar

StartChar: Otilde
Encoding: 213 213 83
Width: 714
GlyphClass: 2
Flags: MW
HStem: -16 32<272.5 441.5 272.5 452> 694 32<272.5 441.5> 810 24<404 425 404 433> 870 24<279 306>
VStem: 50 34<250 458.5 250 468.5> 218 26<805 805> 456 26<903 903> 630 34<250 458.5>
AnchorPoint: "Anchor-3" 357 710 basechar 0
AnchorPoint: "Anchor-1" 357 355 basechar 0
AnchorPoint: "Anchor-0" 357 0 basechar 0
LayerCount: 2
Fore
SplineSet
412 810 m 0
 384 810 367 821 348 842 c 0
 332 860 318 870 294 870 c 0
 264 870 246 849 244 805 c 1
 218 805 l 1
 222 861 252 894 294 894 c 0
 326 894 346 879 366 858 c 0
 384 840 396 834 412 834 c 0
 438 834 452 853 456 903 c 1
 482 903 l 1
 478 845 454 810 412 810 c 0
357 -16 m 0
 167 -16 50 127 50 354 c 0
 50 583 167 726 357 726 c 0
 547 726 664 583 664 354 c 0
 664 127 547 -16 357 -16 c 0
357 16 m 0
 526 16 630 146 630 354 c 0
 630 563 526 694 357 694 c 0
 188 694 84 563 84 354 c 0
 84 146 188 16 357 16 c 0
EndSplineSet
EndChar

StartChar: OE
Encoding: 338 338 84
Width: 1077
GlyphClass: 2
Flags: MW
HStem: -16 32<272 420.5> 0 30<662 1027 662 1027> 339 30<662 1007 662 1007> 517 20G<630 630> 680 30<662 1019 662 662> 694 32<272 421 263 441>
VStem: 50 34<250 458.5 250 466.5> 630 32<30 173 173 173 250 339 369 458.5 537 680>
AnchorPoint: "Anchor-3" 539 710 basechar 0
AnchorPoint: "Anchor-0" 539 0 basechar 0
LayerCount: 2
Fore
SplineSet
356 -16 m 0xbb
 171 -16 50 131 50 354 c 0
 50 579 170 726 356 726 c 0xb7
 486 726 582 657 630 537 c 1
 630 710 l 1
 1019 710 l 1
 1019 680 l 1
 662 680 l 1
 662 369 l 1
 1007 369 l 1
 1007 339 l 1
 662 339 l 1
 662 30 l 1
 1027 30 l 1
 1027 0 l 1
 630 0 l 1x7b
 630 173 l 1
 582 53 485 -16 356 -16 c 0xbb
356 16 m 0
 526 16 630 146 630 354 c 0
 630 563 526 694 356 694 c 0
 188 694 84 563 84 354 c 0
 84 146 188 16 356 16 c 0
EndSplineSet
EndChar

StartChar: P
Encoding: 80 80 85
Width: 618
GlyphClass: 2
Flags: MW
HStem: 0 21G<96 96 96 128> 305 30<128 333 128 333> 680 30<128 333 128 128>
VStem: 96 32<0 305 335 680> 539 34<450.5 561>
AnchorPoint: "Anchor-3" 309 710 basechar 0
AnchorPoint: "Anchor-0" 309 0 basechar 0
LayerCount: 2
Fore
SplineSet
96 0 m 1
 96 710 l 1
 333 710 l 2
 483 710 573 631 573 505 c 0
 573 382 483 305 333 305 c 2
 128 305 l 1
 128 0 l 1
 96 0 l 1
128 335 m 1
 333 335 l 2
 465 335 539 396 539 505 c 0
 539 617 465 680 333 680 c 2
 128 680 l 1
 128 335 l 1
EndSplineSet
EndChar

StartChar: Thorn
Encoding: 222 222 86
Width: 588
GlyphClass: 2
Flags: MW
HStem: 0 21G<96 96 96 128> 164 30<128 293 128 293> 539 30<128 293 128 293> 539 171<96 293 96 128>
VStem: 96 32<0 164 0 194 194 539 569 710> 509 34<304 424>
AnchorPoint: "Anchor-3" 295 710 basechar 0
AnchorPoint: "Anchor-0" 295 0 basechar 0
LayerCount: 2
Fore
SplineSet
96 0 m 1xec
 96 710 l 1
 128 710 l 1xdc
 128 569 l 1
 293 569 l 2
 453 569 543 490 543 364 c 0
 543 235 453 164 293 164 c 2
 128 164 l 1
 128 0 l 1
 96 0 l 1xec
293 539 m 2xec
 128 539 l 1
 128 194 l 1
 293 194 l 2
 427 194 509 244 509 364 c 0
 509 484 427 539 293 539 c 2xec
EndSplineSet
EndChar

StartChar: Q
Encoding: 81 81 87
Width: 708
GlyphClass: 2
Flags: MW
HStem: -16 32<271 378 271 381.5> 694 32<271 437>
VStem: 50 34<250 458.5 250 466.5> 624 34<287 458.5>
AnchorPoint: "Anchor-3" 354 710 basechar 0
AnchorPoint: "Anchor-0" 354 0 basechar 0
LayerCount: 2
Fore
SplineSet
570 -69 m 1
 500 22 l 1
 458 -3 409 -16 354 -16 c 0
 171 -16 50 131 50 354 c 0
 50 579 170 726 354 726 c 0
 538 726 658 579 658 354 c 0
 658 206 608 99 524 37 c 1
 608 -69 l 1
 570 -69 l 1
354 16 m 0
 402 16 444 27 481 47 c 1
 354 208 l 1
 392 208 l 1
 505 62 l 1
 580 117 624 220 624 354 c 0
 624 563 520 694 354 694 c 0
 188 694 84 563 84 354 c 0
 84 146 188 16 354 16 c 0
EndSplineSet
EndChar

StartChar: R
Encoding: 82 82 88
Width: 630
GlyphClass: 2
Flags: MW
HStem: 0 21G<96 96 96 128 542 542 542 575> 311 30<128 348 348 364 128 348> 680 30<128 335 128 128>
VStem: 96 32<0 311 341 680> 534.5 32.5 541 34<462 564.5>
AnchorPoint: "Anchor-3" 324 710 basechar 0
AnchorPoint: "Anchor-0" 318 0 basechar 0
LayerCount: 2
Fore
SplineSet
96 0 m 1xf8
 96 710 l 1
 337 710 l 2
 491 710 575 636 575 507 c 0xf4
 575 417 520 353 435 330 c 1
 513 318 553 272 559 195 c 2
 575 0 l 1
 542 0 l 1
 527 194 l 2
 521 274 472 311 364 311 c 2
 128 311 l 1
 128 0 l 1
 96 0 l 1xf8
128 341 m 1
 348 341 l 2
 467 341 541 400 541 507 c 0
 541 622 473 680 335 680 c 2
 128 680 l 1
 128 341 l 1
EndSplineSet
Substitution2: "'ss04' Style Set 4 in Latin lookup 37 subtable" R.ss04
Substitution2: "'aalt' Access All Alternates in Latin lookup 0 subtable" R.ss04
EndChar

StartChar: Racute
Encoding: 340 340 89
Width: 630
GlyphClass: 2
Flags: MW
HStem: 0 21G<96 96 96 128 542 542 542 575> 311 30<128 348 348 364 128 348> 680 30<128 335 128 128> 790 116<310 416 310 416>
VStem: 96 32<0 311 341 680> 534.5 32.5 541 34<462 564.5>
AnchorPoint: "Anchor-3" 324 710 basechar 0
AnchorPoint: "Anchor-0" 318 0 basechar 0
LayerCount: 2
Fore
SplineSet
310 790 m 1xfc
 382 906 l 1
 416 906 l 1
 336 790 l 1
 310 790 l 1xfc
96 0 m 1
 96 710 l 1
 337 710 l 2
 491 710 575 636 575 507 c 0xfa
 575 417 520 353 435 330 c 1
 513 318 553 272 559 195 c 2
 575 0 l 1
 542 0 l 1
 527 194 l 2
 521 274 472 311 364 311 c 2
 128 311 l 1
 128 0 l 1
 96 0 l 1
128 341 m 1
 348 341 l 2
 467 341 541 400 541 507 c 0
 541 622 473 680 335 680 c 2
 128 680 l 1
 128 341 l 1
EndSplineSet
Substitution2: "'ss04' Style Set 4 in Latin lookup 37 subtable" Racute.ss04
Substitution2: "'aalt' Access All Alternates in Latin lookup 0 subtable" Racute.ss04
EndChar

StartChar: Rcaron
Encoding: 344 344 90
Width: 630
GlyphClass: 2
Flags: MW
HStem: 0 21G<96 96 96 128 542 542 542 575> 311 30<128 348 348 364 128 348> 680 30<128 335 128 128> 790 25<324 324 324 335 313 324>
VStem: 96 32<0 311 341 680> 534.5 32.5 541 34<462 564.5>
AnchorPoint: "Anchor-3" 324 710 basechar 0
AnchorPoint: "Anchor-0" 318 0 basechar 0
LayerCount: 2
Fore
SplineSet
225 914 m 1xfc
 253 914 l 1
 324 815 l 1
 395 914 l 1
 423 914 l 1
 335 790 l 1
 313 790 l 1
 225 914 l 1xfc
96 0 m 1
 96 710 l 1
 337 710 l 2
 491 710 575 636 575 507 c 0xfa
 575 417 520 353 435 330 c 1
 513 318 553 272 559 195 c 2
 575 0 l 1
 542 0 l 1
 527 194 l 2
 521 274 472 311 364 311 c 2
 128 311 l 1
 128 0 l 1
 96 0 l 1
128 341 m 1
 348 341 l 2
 467 341 541 400 541 507 c 0
 541 622 473 680 335 680 c 2
 128 680 l 1
 128 341 l 1
EndSplineSet
Substitution2: "'ss04' Style Set 4 in Latin lookup 37 subtable" Rcaron.ss04
Substitution2: "'aalt' Access All Alternates in Latin lookup 0 subtable" Rcaron.ss04
EndChar

StartChar: uni0156
Encoding: 342 342 91
Width: 630
GlyphClass: 2
Flags: MW
HStem: -94 48<293 317 293 343> 0 21G<96 96 96 128 542 542 542 575> 311 30<128 348 348 364 128 348> 680 30<128 335 128 128>
VStem: 96 32<0 311 341 680> 293 50<-89 -46 -89 -46 -89 -46> 534.5 32.5 541 34<462 564.5>
AnchorPoint: "Anchor-3" 324 710 basechar 0
AnchorPoint: "Anchor-0" 318 -169 basechar 0
LayerCount: 2
Fore
SplineSet
96 0 m 1xfe
 96 710 l 1
 337 710 l 2
 491 710 575 636 575 507 c 0xfd
 575 417 520 353 435 330 c 1
 513 318 553 272 559 195 c 2
 575 0 l 1
 542 0 l 1
 527 194 l 2
 521 274 472 311 364 311 c 2
 128 311 l 1
 128 0 l 1
 96 0 l 1xfe
128 341 m 1
 348 341 l 2
 467 341 541 400 541 507 c 0
 541 622 473 680 335 680 c 2
 128 680 l 1
 128 341 l 1
281 -169 m 1
 317 -94 l 1
 293 -94 l 1
 293 -46 l 1
 343 -46 l 1
 343 -89 l 1
 303 -169 l 1
 281 -169 l 1
EndSplineSet
Substitution2: "'ss04' Style Set 4 in Latin lookup 37 subtable" uni0156.ss04
Substitution2: "'aalt' Access All Alternates in Latin lookup 0 subtable" uni0156.ss04
EndChar

StartChar: S
Encoding: 83 83 92
Width: 623
GlyphClass: 2
Flags: MW
HStem: -16 32<255 382 255 388.5> 694 32<242 371>
VStem: 60 33<167 219> 75 34<493.5 582 493.5 590> 510 34<508 556> 529 34<128 217.5>
AnchorPoint: "Anchor-3" 304 710 basechar 0
AnchorPoint: "Anchor-0" 310 0 basechar 0
LayerCount: 2
Fore
SplineSet
322 -16 m 0xd4
 172 -16 60 89 60 219 c 1
 93 222 l 1
 93 112 186 16 324 16 c 0
 440 16 529 76 529 180 c 0xe4
 529 255 488 308 298 352 c 0
 142 388 75 428 75 538 c 0
 75 642 158 726 306 726 c 0
 462 726 544 616 544 508 c 1
 510 505 l 1xd8
 510 607 438 694 304 694 c 0
 180 694 109 628 109 536 c 0
 109 451 152 418 308 382 c 0
 512 335 563 274 563 178 c 0
 563 58 455 -16 322 -16 c 0xd4
EndSplineSet
EndChar

StartChar: Sacute
Encoding: 346 346 93
Width: 623
GlyphClass: 2
Flags: MW
HStem: -16 32<255 382 255 388.5> 694 32<242 371> 790 116<290 396 290 396>
VStem: 60 33<167 219> 75 34<493.5 582 493.5 590> 510 34<508 556> 529 34<128 217.5>
AnchorPoint: "Anchor-3" 304 710 basechar 0
AnchorPoint: "Anchor-0" 310 0 basechar 0
LayerCount: 2
Fore
SplineSet
290 790 m 1xea
 362 906 l 1
 396 906 l 1
 316 790 l 1
 290 790 l 1xea
322 -16 m 0
 172 -16 60 89 60 219 c 1
 93 222 l 1
 93 112 186 16 324 16 c 0
 440 16 529 76 529 180 c 0xd2
 529 255 488 308 298 352 c 0
 142 388 75 428 75 538 c 0
 75 642 158 726 306 726 c 0
 462 726 544 616 544 508 c 1
 510 505 l 1xcc
 510 607 438 694 304 694 c 0
 180 694 109 628 109 536 c 0
 109 451 152 418 308 382 c 0
 512 335 563 274 563 178 c 0
 563 58 455 -16 322 -16 c 0
EndSplineSet
EndChar

StartChar: Scaron
Encoding: 352 352 94
Width: 623
GlyphClass: 2
Flags: MW
HStem: -16 32<255 382 255 388.5> 694 32<242 371> 790 25<304 304 304 315 293 304>
VStem: 60 33<167 219> 75 34<493.5 582 493.5 590> 510 34<508 556> 529 34<128 217.5>
AnchorPoint: "Anchor-3" 304 710 basechar 0
AnchorPoint: "Anchor-0" 310 0 basechar 0
LayerCount: 2
Fore
SplineSet
205 914 m 1xea
 233 914 l 1
 304 815 l 1
 375 914 l 1
 403 914 l 1
 315 790 l 1
 293 790 l 1
 205 914 l 1xea
322 -16 m 0
 172 -16 60 89 60 219 c 1
 93 222 l 1
 93 112 186 16 324 16 c 0
 440 16 529 76 529 180 c 0xd2
 529 255 488 308 298 352 c 0
 142 388 75 428 75 538 c 0
 75 642 158 726 306 726 c 0
 462 726 544 616 544 508 c 1
 510 505 l 1xcc
 510 607 438 694 304 694 c 0
 180 694 109 628 109 536 c 0
 109 451 152 418 308 382 c 0
 512 335 563 274 563 178 c 0
 563 58 455 -16 322 -16 c 0
EndSplineSet
EndChar

StartChar: Scedilla
Encoding: 350 350 95
Width: 623
GlyphClass: 2
Flags: MW
HStem: -204 26<279 321 279 330> -72 24<298 298 298 313.5> -16 32<315 322 315 316.5> -14 30<289 289> 694 32<242 371>
VStem: 60 33<167 219> 75 34<493.5 582 493.5 590> 368 28<-143 -106.5> 510 34<508 556> 529 34<128 217.5>
AnchorPoint: "Anchor-3" 304 710 basechar 0
AnchorPoint: "Anchor-0" 310 0 basechar 0
LayerCount: 2
Fore
SplineSet
322 -16 m 0xeb40
 320 -16 318 -16 315 -16 c 2xeb40
 298 -48 l 1
 360 -50 396 -74 396 -126 c 0
 396 -176 358 -204 302 -204 c 0
 252 -204 218 -182 206 -144 c 1
 230 -134 l 1
 238 -160 258 -178 300 -178 c 0
 342 -178 368 -162 368 -124 c 0
 368 -89 345 -72 282 -72 c 1
 268 -54 l 1
 289 -14 l 1xdd40
 156 0 60 99 60 219 c 1
 93 222 l 1
 93 112 186 16 324 16 c 0
 440 16 529 76 529 180 c 0xed40
 529 255 488 308 298 352 c 0
 142 388 75 428 75 538 c 0
 75 642 158 726 306 726 c 0
 462 726 544 616 544 508 c 1
 510 505 l 1xeb80
 510 607 438 694 304 694 c 0
 180 694 109 628 109 536 c 0
 109 451 152 418 308 382 c 0
 512 335 563 274 563 178 c 0
 563 58 455 -16 322 -16 c 0xeb40
EndSplineSet
Substitution2: "'locl' Localized Forms in Latin lookup 10 subtable" uni0218
Substitution2: "'aalt' Access All Alternates in Latin lookup 0 subtable" uni0218
EndChar

StartChar: Scircumflex
Encoding: 348 348 96
Width: 623
GlyphClass: 2
Flags: MW
HStem: -16 32<255 382 255 388.5> 694 32<242 371> 889 25<305 305>
VStem: 60 33<167 219> 75 34<493.5 582 493.5 590> 510 34<508 556> 529 34<128 217.5>
AnchorPoint: "Anchor-3" 304 710 basechar 0
AnchorPoint: "Anchor-0" 310 0 basechar 0
LayerCount: 2
Fore
SplineSet
206 790 m 1xea
 294 914 l 1
 316 914 l 1
 404 790 l 1
 376 790 l 1
 305 889 l 1
 234 790 l 1
 206 790 l 1xea
322 -16 m 0
 172 -16 60 89 60 219 c 1
 93 222 l 1
 93 112 186 16 324 16 c 0
 440 16 529 76 529 180 c 0xd2
 529 255 488 308 298 352 c 0
 142 388 75 428 75 538 c 0
 75 642 158 726 306 726 c 0
 462 726 544 616 544 508 c 1
 510 505 l 1xcc
 510 607 438 694 304 694 c 0
 180 694 109 628 109 536 c 0
 109 451 152 418 308 382 c 0
 512 335 563 274 563 178 c 0
 563 58 455 -16 322 -16 c 0
EndSplineSet
EndChar

StartChar: uni0218
Encoding: 536 536 97
Width: 623
GlyphClass: 2
Flags: MW
HStem: -94 48<285 309 285 335> -16 32<255 382 255 388.5> 694 32<242 371>
VStem: 60 33<167 219> 75 34<493.5 582 493.5 590> 285 50<-89 -46 -89 -46 -89 -46> 510 34<508 556> 529 34<128 217.5>
AnchorPoint: "Anchor-3" 304 710 basechar 0
AnchorPoint: "Anchor-0" 310 -169 basechar 0
LayerCount: 2
Fore
SplineSet
322 -16 m 0x6d
 172 -16 60 89 60 219 c 1
 93 222 l 1
 93 112 186 16 324 16 c 0
 440 16 529 76 529 180 c 0x75
 529 255 488 308 298 352 c 0
 142 388 75 428 75 538 c 0
 75 642 158 726 306 726 c 0
 462 726 544 616 544 508 c 1
 510 505 l 1x6e
 510 607 438 694 304 694 c 0
 180 694 109 628 109 536 c 0
 109 451 152 418 308 382 c 0
 512 335 563 274 563 178 c 0
 563 58 455 -16 322 -16 c 0x6d
273 -169 m 1
 309 -94 l 1
 285 -94 l 1
 285 -46 l 1
 335 -46 l 1xad
 335 -89 l 1
 295 -169 l 1
 273 -169 l 1
EndSplineSet
EndChar

StartChar: uni1E9E
Encoding: 7838 7838 98
Width: 654
GlyphClass: 2
Flags: MW
HStem: 0 30<223 357 223 357> 378 30<253 389> 680 30<272 273 273 530>
VStem: 96 32<0 530 530 531 0 592.5> 253 37<408 408 408 411 408 411> 530 31<680 680> 565 34<145 259.5>
AnchorPoint: "Anchor-3" 327 710 basechar 0
AnchorPoint: "Anchor-0" 327 0 basechar 0
LayerCount: 2
Fore
SplineSet
96 0 m 1
 96 530 l 2
 96 655 150 710 272 710 c 2
 561 710 l 1
 561 668 l 1xf4
 290 408 l 1
 488 408 599 337 599 200 c 0
 599 71 499 0 357 0 c 2
 223 0 l 1
 223 30 l 1
 357 30 l 2
 479 30 565 90 565 200 c 0xfa
 565 319 479 378 288 378 c 2
 253 378 l 1
 253 411 l 1
 530 680 l 1
 273 680 l 2
 168 680 128 639 128 531 c 2
 128 0 l 1
 96 0 l 1
EndSplineSet
EndChar

StartChar: T
Encoding: 84 84 99
Width: 544
GlyphClass: 2
Flags: MW
HStem: 0 21G<256 256 256 288> 680 30<14 256 14 530 288 288 288 530>
VStem: 256 32<0 680 0 680>
AnchorPoint: "Anchor-3" 272 710 basechar 0
AnchorPoint: "Anchor-1" 272 348 basechar 0
AnchorPoint: "Anchor-0" 272 0 basechar 0
LayerCount: 2
Fore
SplineSet
256 0 m 1
 256 680 l 1
 14 680 l 1
 14 710 l 1
 530 710 l 1
 530 680 l 1
 288 680 l 1
 288 0 l 1
 256 0 l 1
EndSplineSet
EndChar

StartChar: Tbar
Encoding: 358 358 100
Width: 544
GlyphClass: 2
Flags: MW
HStem: 0 21G<256 256 256 288> 333 30<82 256 82 256 288 462> 680 30<14 256 14 530 288 288 288 530>
VStem: 256 32<0 333 0 333 363 680>
AnchorPoint: "Anchor-3" 272 710 basechar 0
AnchorPoint: "Anchor-1" 272 348 basechar 0
AnchorPoint: "Anchor-0" 272 0 basechar 0
LayerCount: 2
Fore
SplineSet
256 0 m 1
 256 333 l 1
 82 333 l 1
 82 363 l 1
 256 363 l 1
 256 680 l 1
 14 680 l 1
 14 710 l 1
 530 710 l 1
 530 680 l 1
 288 680 l 1
 288 363 l 1
 462 363 l 1
 462 333 l 1
 288 333 l 1
 288 0 l 1
 256 0 l 1
EndSplineSet
EndChar

StartChar: Tcaron
Encoding: 356 356 101
Width: 544
GlyphClass: 2
Flags: MW
HStem: 0 21G<256 256 256 288> 680 30<14 256 14 530 288 288 288 530> 790 25<272 272 272 283 261 272>
VStem: 256 32<0 680 0 680>
AnchorPoint: "Anchor-3" 272 710 basechar 0
AnchorPoint: "Anchor-1" 272 348 basechar 0
AnchorPoint: "Anchor-0" 272 0 basechar 0
LayerCount: 2
Fore
SplineSet
173 914 m 1
 201 914 l 1
 272 815 l 1
 343 914 l 1
 371 914 l 1
 283 790 l 1
 261 790 l 1
 173 914 l 1
256 0 m 1
 256 680 l 1
 14 680 l 1
 14 710 l 1
 530 710 l 1
 530 680 l 1
 288 680 l 1
 288 0 l 1
 256 0 l 1
EndSplineSet
EndChar

StartChar: uni0162
Encoding: 354 354 102
Width: 544
GlyphClass: 2
Flags: MW
HStem: -204 26<241 283 241 292> -72 24<260 260 260 275.5> 0 21G<256 256 256 258 286 286 286 288> 680 30<14 256 14 530 288 288 288 530>
VStem: 256 32<0 680 0 680> 330 28<-143 -106.5>
AnchorPoint: "Anchor-3" 272 710 basechar 0
AnchorPoint: "Anchor-1" 272 348 basechar 0
AnchorPoint: "Anchor-0" 272 0 basechar 0
LayerCount: 2
Fore
SplineSet
256 0 m 1
 256 680 l 1
 14 680 l 1
 14 710 l 1
 530 710 l 1
 530 680 l 1
 288 680 l 1
 288 0 l 1
 286 0 l 1
 260 -48 l 1
 322 -50 358 -74 358 -126 c 0
 358 -176 320 -204 264 -204 c 0
 214 -204 180 -182 168 -144 c 1
 192 -134 l 1
 200 -160 220 -178 262 -178 c 0
 304 -178 330 -162 330 -124 c 0
 330 -89 307 -72 244 -72 c 1
 230 -54 l 1
 258 0 l 1
 256 0 l 1
EndSplineSet
Substitution2: "'locl' Localized Forms in Latin lookup 10 subtable" uni021A
Substitution2: "'aalt' Access All Alternates in Latin lookup 0 subtable" uni021A
EndChar

StartChar: uni021A
Encoding: 538 538 103
Width: 544
GlyphClass: 2
Flags: MW
HStem: -94 48<247 271 247 297> 0 21G<256 256 256 288> 680 30<14 256 14 530 288 288 288 530>
VStem: 247 41 256 32<0 680 0 680> 256 41
AnchorPoint: "Anchor-3" 272 710 basechar 0
AnchorPoint: "Anchor-1" 272 348 basechar 0
AnchorPoint: "Anchor-0" 272 -169 basechar 0
LayerCount: 2
Fore
SplineSet
256 0 m 1xe8
 256 680 l 1
 14 680 l 1
 14 710 l 1
 530 710 l 1
 530 680 l 1
 288 680 l 1
 288 0 l 1
 256 0 l 1xe8
235 -169 m 1
 271 -94 l 1
 247 -94 l 1
 247 -46 l 1xf0
 297 -46 l 1
 297 -89 l 1xe4
 257 -169 l 1
 235 -169 l 1
EndSplineSet
EndChar

StartChar: U
Encoding: 85 85 104
Width: 662
GlyphClass: 2
Flags: MW
HStem: -16 32<261 401 261 411> 691 20G<81 113 113 113 549 581 581 581>
VStem: 81 32<248 711> 549 32<248 711>
AnchorPoint: "Anchor-3" 331 710 basechar 0
AnchorPoint: "Anchor-2" 436 1 basechar 0
AnchorPoint: "Anchor-0" 331 0 basechar 0
LayerCount: 2
Fore
SplineSet
331 -16 m 0
 171 -16 81 79 81 248 c 2
 81 711 l 1
 113 711 l 1
 113 248 l 2
 113 99 191 16 331 16 c 0
 471 16 549 99 549 248 c 2
 549 711 l 1
 581 711 l 1
 581 248 l 2
 581 79 491 -16 331 -16 c 0
EndSplineSet
EndChar

StartChar: Uacute
Encoding: 218 218 105
Width: 662
GlyphClass: 2
Flags: MW
HStem: -16 32<261 401 261 411> 691 20G<81 113 113 113 549 581 581 581> 790 116<317 423 317 423>
VStem: 81 32<248 711> 549 32<248 711>
AnchorPoint: "Anchor-3" 331 710 basechar 0
AnchorPoint: "Anchor-2" 436 1 basechar 0
AnchorPoint: "Anchor-0" 331 0 basechar 0
LayerCount: 2
Fore
SplineSet
317 790 m 1
 389 906 l 1
 423 906 l 1
 343 790 l 1
 317 790 l 1
331 -16 m 0
 171 -16 81 79 81 248 c 2
 81 711 l 1
 113 711 l 1
 113 248 l 2
 113 99 191 16 331 16 c 0
 471 16 549 99 549 248 c 2
 549 711 l 1
 581 711 l 1
 581 248 l 2
 581 79 491 -16 331 -16 c 0
EndSplineSet
EndChar

StartChar: Ubreve
Encoding: 364 364 106
Width: 662
GlyphClass: 2
Flags: MW
HStem: -16 32<261 401 261 411> 691 20G<81 113 113 113 549 581 581 581> 798 28<305 357 305 366>
VStem: 81 32<248 711> 549 32<248 711>
AnchorPoint: "Anchor-3" 331 710 basechar 0
AnchorPoint: "Anchor-2" 436 1 basechar 0
AnchorPoint: "Anchor-0" 331 0 basechar 0
LayerCount: 2
Fore
SplineSet
331 798 m 0
 261 798 217 844 207 914 c 1
 233 914 l 1
 241 856 279 826 331 826 c 0
 383 826 421 856 429 914 c 1
 455 914 l 1
 445 844 401 798 331 798 c 0
331 -16 m 0
 171 -16 81 79 81 248 c 2
 81 711 l 1
 113 711 l 1
 113 248 l 2
 113 99 191 16 331 16 c 0
 471 16 549 99 549 248 c 2
 549 711 l 1
 581 711 l 1
 581 248 l 2
 581 79 491 -16 331 -16 c 0
EndSplineSet
EndChar

StartChar: Ucircumflex
Encoding: 219 219 107
Width: 662
GlyphClass: 2
Flags: MW
HStem: -16 32<261 401 261 411> 691 20G<81 113 113 113 549 581 581 581> 889 25<332 332>
VStem: 81 32<248 711> 549 32<248 711>
AnchorPoint: "Anchor-3" 331 710 basechar 0
AnchorPoint: "Anchor-2" 436 1 basechar 0
AnchorPoint: "Anchor-0" 331 0 basechar 0
LayerCount: 2
Fore
SplineSet
233 790 m 1
 321 914 l 1
 343 914 l 1
 431 790 l 1
 403 790 l 1
 332 889 l 1
 261 790 l 1
 233 790 l 1
331 -16 m 0
 171 -16 81 79 81 248 c 2
 81 711 l 1
 113 711 l 1
 113 248 l 2
 113 99 191 16 331 16 c 0
 471 16 549 99 549 248 c 2
 549 711 l 1
 581 711 l 1
 581 248 l 2
 581 79 491 -16 331 -16 c 0
EndSplineSet
EndChar

StartChar: Udieresis
Encoding: 220 220 108
Width: 662
GlyphClass: 2
Flags: MW
HStem: -16 32<261 401 261 411> 691 20G<81 113 113 113 549 581 581 581> 808 70<250 284 250 284 378 412>
VStem: 81 32<248 711> 250 34<808 878 808 878> 378 34<808 878 808 878> 549 32<248 711>
AnchorPoint: "Anchor-3" 331 710 basechar 0
AnchorPoint: "Anchor-2" 436 1 basechar 0
AnchorPoint: "Anchor-0" 331 0 basechar 0
LayerCount: 2
Fore
SplineSet
250 808 m 1
 250 878 l 1
 284 878 l 1
 284 808 l 1
 250 808 l 1
378 808 m 1
 378 878 l 1
 412 878 l 1
 412 808 l 1
 378 808 l 1
331 -16 m 0
 171 -16 81 79 81 248 c 2
 81 711 l 1
 113 711 l 1
 113 248 l 2
 113 99 191 16 331 16 c 0
 471 16 549 99 549 248 c 2
 549 711 l 1
 581 711 l 1
 581 248 l 2
 581 79 491 -16 331 -16 c 0
EndSplineSet
Substitution2: "'ss08' Style Set 8 in Latin lookup 41 subtable" Udieresis.ss08
Substitution2: "'aalt' Access All Alternates in Latin lookup 0 subtable" Udieresis.ss08
EndChar

StartChar: Ugrave
Encoding: 217 217 109
Width: 662
GlyphClass: 2
Flags: MW
HStem: -16 32<261 401 261 411> 691 20G<81 113 113 113 549 581 581 581> 798 116<238 318 238 344>
VStem: 81 32<248 711> 549 32<248 711>
AnchorPoint: "Anchor-3" 331 710 basechar 0
AnchorPoint: "Anchor-2" 436 1 basechar 0
AnchorPoint: "Anchor-0" 331 0 basechar 0
LayerCount: 2
Fore
SplineSet
318 798 m 1
 238 914 l 1
 272 914 l 1
 344 798 l 1
 318 798 l 1
331 -16 m 0
 171 -16 81 79 81 248 c 2
 81 711 l 1
 113 711 l 1
 113 248 l 2
 113 99 191 16 331 16 c 0
 471 16 549 99 549 248 c 2
 549 711 l 1
 581 711 l 1
 581 248 l 2
 581 79 491 -16 331 -16 c 0
EndSplineSet
EndChar

StartChar: Uhungarumlaut
Encoding: 368 368 110
Width: 662
GlyphClass: 2
Flags: MW
HStem: -16 32<261 401 261 411> 691 20G<81 113 113 113 549 581 581 581> 790 116<271 377 271 377 365 377 343 391 365 365>
VStem: 81 32<248 711> 549 32<248 711>
AnchorPoint: "Anchor-3" 331 710 basechar 0
AnchorPoint: "Anchor-2" 436 1 basechar 0
AnchorPoint: "Anchor-0" 331 0 basechar 0
LayerCount: 2
Fore
SplineSet
271 790 m 1
 343 906 l 1
 377 906 l 1
 297 790 l 1
 271 790 l 1
365 790 m 1
 437 906 l 1
 471 906 l 1
 391 790 l 1
 365 790 l 1
331 -16 m 0
 171 -16 81 79 81 248 c 2
 81 711 l 1
 113 711 l 1
 113 248 l 2
 113 99 191 16 331 16 c 0
 471 16 549 99 549 248 c 2
 549 711 l 1
 581 711 l 1
 581 248 l 2
 581 79 491 -16 331 -16 c 0
EndSplineSet
EndChar

StartChar: Umacron
Encoding: 362 362 111
Width: 662
GlyphClass: 2
Flags: MW
HStem: -16 32<261 401 261 411> 691 20G<81 113 113 113 549 581 581 581> 824 28<207 455 207 455>
VStem: 81 32<248 711> 549 32<248 711>
AnchorPoint: "Anchor-3" 331 710 basechar 0
AnchorPoint: "Anchor-2" 436 1 basechar 0
AnchorPoint: "Anchor-0" 331 0 basechar 0
LayerCount: 2
Fore
SplineSet
207 824 m 1
 207 852 l 1
 455 852 l 1
 455 824 l 1
 207 824 l 1
331 -16 m 0
 171 -16 81 79 81 248 c 2
 81 711 l 1
 113 711 l 1
 113 248 l 2
 113 99 191 16 331 16 c 0
 471 16 549 99 549 248 c 2
 549 711 l 1
 581 711 l 1
 581 248 l 2
 581 79 491 -16 331 -16 c 0
EndSplineSet
EndChar

StartChar: Uogonek
Encoding: 370 370 112
Width: 662
GlyphClass: 2
Flags: MW
HStem: -191 26<405 426 405 429> -16 32<261 344.5> 691 20G<81 113 113 113 549 581 581 581>
VStem: 81 32<248 711> 346 30<-143.5 -115> 549 32<248 711>
AnchorPoint: "Anchor-3" 331 710 basechar 0
AnchorPoint: "Anchor-2" 436 1 basechar 0
AnchorPoint: "Anchor-0" 331 0 basechar 0
LayerCount: 2
Fore
SplineSet
331 -16 m 0
 171 -16 81 79 81 248 c 2
 81 711 l 1
 113 711 l 1
 113 248 l 2
 113 99 191 16 331 16 c 0
 471 16 549 99 549 248 c 2
 549 711 l 1
 581 711 l 1
 581 248 l 2
 581 121 530 35 436 1 c 1
 410 -39 l 2
 390 -69 376 -97 376 -129 c 0
 376 -158 394 -165 416 -165 c 0
 436 -165 453 -159 465 -150 c 1
 479 -172 l 1
 461 -184 442 -191 416 -191 c 0
 378 -191 346 -175 346 -131 c 0
 346 -99 368 -64 394 -25 c 2
 405 -8 l 1
 383 -13 358 -16 331 -16 c 0
EndSplineSet
EndChar

StartChar: Uring
Encoding: 366 366 113
Width: 662
GlyphClass: 2
Flags: MW
HStem: -16 32<261 401 261 411> 691 20G<81 113 113 113 549 581 581 581> 772 25<317 345 317 352> 888 26<317 345>
VStem: 81 32<248 711> 259 26<829 857 829 863.5> 376 26<829 857> 549 32<248 711>
AnchorPoint: "Anchor-3" 331 710 basechar 0
AnchorPoint: "Anchor-2" 436 1 basechar 0
AnchorPoint: "Anchor-0" 331 0 basechar 0
LayerCount: 2
Fore
SplineSet
331 772 m 0
 289 772 259 801 259 843 c 0
 259 884 289 914 331 914 c 0
 372 914 402 884 402 843 c 0
 402 802 373 772 331 772 c 0
331 797 m 0
 359 797 376 815 376 843 c 0
 376 871 359 888 331 888 c 0
 303 888 285 871 285 843 c 0
 285 815 303 797 331 797 c 0
331 -16 m 0
 171 -16 81 79 81 248 c 2
 81 711 l 1
 113 711 l 1
 113 248 l 2
 113 99 191 16 331 16 c 0
 471 16 549 99 549 248 c 2
 549 711 l 1
 581 711 l 1
 581 248 l 2
 581 79 491 -16 331 -16 c 0
EndSplineSet
EndChar

StartChar: Utilde
Encoding: 360 360 114
Width: 662
GlyphClass: 2
Flags: MW
HStem: -16 32<261 401 261 411> 691 20G<81 113 113 113 549 581 581 581> 810 24<378 399 378 407> 870 24<253 280>
VStem: 81 32<248 711> 192 26<805 805> 430 26<903 903> 549 32<248 711>
AnchorPoint: "Anchor-3" 331 710 basechar 0
AnchorPoint: "Anchor-2" 436 1 basechar 0
AnchorPoint: "Anchor-0" 331 0 basechar 0
LayerCount: 2
Fore
SplineSet
386 810 m 0
 358 810 341 821 322 842 c 0
 306 860 292 870 268 870 c 0
 238 870 220 849 218 805 c 1
 192 805 l 1
 196 861 226 894 268 894 c 0
 300 894 320 879 340 858 c 0
 358 840 370 834 386 834 c 0
 412 834 426 853 430 903 c 1
 456 903 l 1
 452 845 428 810 386 810 c 0
331 -16 m 0
 171 -16 81 79 81 248 c 2
 81 711 l 1
 113 711 l 1
 113 248 l 2
 113 99 191 16 331 16 c 0
 471 16 549 99 549 248 c 2
 549 711 l 1
 581 711 l 1
 581 248 l 2
 581 79 491 -16 331 -16 c 0
EndSplineSet
EndChar

StartChar: V
Encoding: 86 86 115
Width: 642
GlyphClass: 2
Flags: MW
HStem: 0 34<303 321 321 321 321 339> 690 20G<24 59 59 59 583 618 618 618>
VStem: 24 594<710 710>
AnchorPoint: "Anchor-3" 321 710 basechar 0
AnchorPoint: "Anchor-0" 321 0 basechar 0
LayerCount: 2
Fore
SplineSet
303 0 m 1
 24 710 l 1
 59 710 l 1
 321 34 l 1
 583 710 l 1
 618 710 l 1
 339 0 l 1
 303 0 l 1
EndSplineSet
EndChar

StartChar: W
Encoding: 87 87 116
Width: 914
GlyphClass: 2
Flags: MW
HStem: 0 33<241 264 264 264 264 289> 676 34<457 457>
VStem: 42 830<710 710>
AnchorPoint: "Anchor-3" 457 710 basechar 0
AnchorPoint: "Anchor-0" 457 0 basechar 0
LayerCount: 2
Fore
SplineSet
241 0 m 1
 42 710 l 1
 75 710 l 1
 264 33 l 1
 435 710 l 1
 479 710 l 1
 650 33 l 1
 839 710 l 1
 872 710 l 1
 673 0 l 1
 625 0 l 1
 457 676 l 1
 289 0 l 1
 241 0 l 1
EndSplineSet
EndChar

StartChar: Wacute
Encoding: 7810 7810 117
Width: 914
GlyphClass: 2
Flags: MW
HStem: 0 33<241 264 264 264 264 289> 676 34<457 457> 790 116<443 549 443 549>
VStem: 42 830<710 710>
AnchorPoint: "Anchor-3" 457 710 basechar 0
AnchorPoint: "Anchor-0" 457 0 basechar 0
LayerCount: 2
Fore
SplineSet
443 790 m 1
 515 906 l 1
 549 906 l 1
 469 790 l 1
 443 790 l 1
241 0 m 1
 42 710 l 1
 75 710 l 1
 264 33 l 1
 435 710 l 1
 479 710 l 1
 650 33 l 1
 839 710 l 1
 872 710 l 1
 673 0 l 1
 625 0 l 1
 457 676 l 1
 289 0 l 1
 241 0 l 1
EndSplineSet
EndChar

StartChar: Wcircumflex
Encoding: 372 372 118
Width: 914
GlyphClass: 2
Flags: MW
HStem: 0 33<241 264 264 264 264 289> 676 34<457 457> 889 25<458 458>
VStem: 42 830<710 710>
AnchorPoint: "Anchor-3" 457 710 basechar 0
AnchorPoint: "Anchor-0" 457 0 basechar 0
LayerCount: 2
Fore
SplineSet
359 790 m 1
 447 914 l 1
 469 914 l 1
 557 790 l 1
 529 790 l 1
 458 889 l 1
 387 790 l 1
 359 790 l 1
241 0 m 1
 42 710 l 1
 75 710 l 1
 264 33 l 1
 435 710 l 1
 479 710 l 1
 650 33 l 1
 839 710 l 1
 872 710 l 1
 673 0 l 1
 625 0 l 1
 457 676 l 1
 289 0 l 1
 241 0 l 1
EndSplineSet
EndChar

StartChar: Wdieresis
Encoding: 7812 7812 119
Width: 914
GlyphClass: 2
Flags: MW
HStem: 0 33<241 264 264 264 264 289> 676 34<457 457> 808 70<376 410 376 410 504 538>
VStem: 376 34<808 878 808 878> 504 34<808 878 808 878>
AnchorPoint: "Anchor-3" 457 710 basechar 0
AnchorPoint: "Anchor-0" 457 0 basechar 0
LayerCount: 2
Fore
SplineSet
376 808 m 1
 376 878 l 1
 410 878 l 1
 410 808 l 1
 376 808 l 1
504 808 m 1
 504 878 l 1
 538 878 l 1
 538 808 l 1
 504 808 l 1
241 0 m 1
 42 710 l 1
 75 710 l 1
 264 33 l 1
 435 710 l 1
 479 710 l 1
 650 33 l 1
 839 710 l 1
 872 710 l 1
 673 0 l 1
 625 0 l 1
 457 676 l 1
 289 0 l 1
 241 0 l 1
EndSplineSet
Substitution2: "'ss08' Style Set 8 in Latin lookup 41 subtable" Wdieresis.ss08
Substitution2: "'aalt' Access All Alternates in Latin lookup 0 subtable" Wdieresis.ss08
EndChar

StartChar: Wgrave
Encoding: 7808 7808 120
Width: 914
GlyphClass: 2
Flags: MW
HStem: 0 33<241 264 264 264 264 289> 676 34<457 457> 798 116<364 444 364 470>
VStem: 42 830<710 710>
AnchorPoint: "Anchor-3" 457 710 basechar 0
AnchorPoint: "Anchor-0" 457 0 basechar 0
LayerCount: 2
Fore
SplineSet
444 798 m 1
 364 914 l 1
 398 914 l 1
 470 798 l 1
 444 798 l 1
241 0 m 1
 42 710 l 1
 75 710 l 1
 264 33 l 1
 435 710 l 1
 479 710 l 1
 650 33 l 1
 839 710 l 1
 872 710 l 1
 673 0 l 1
 625 0 l 1
 457 676 l 1
 289 0 l 1
 241 0 l 1
EndSplineSet
EndChar

StartChar: X
Encoding: 88 88 121
Width: 598
GlyphClass: 2
Flags: MW
HStem: 0 21G<20 20 20 59 539 539 539 578> 690 20G<27 66 66 66 532 571 571 571>
VStem: 20 558<0 0>
AnchorPoint: "Anchor-3" 299 710 basechar 0
AnchorPoint: "Anchor-0" 299 0 basechar 0
LayerCount: 2
Fore
SplineSet
20 0 m 1
 278 358 l 1
 27 710 l 1
 66 710 l 1
 298 382 l 1
 532 710 l 1
 571 710 l 1
 320 356 l 1
 578 0 l 1
 539 0 l 1
 300 332 l 1
 59 0 l 1
 20 0 l 1
EndSplineSet
EndChar

StartChar: Y
Encoding: 89 89 122
Width: 541
GlyphClass: 2
Flags: MW
HStem: 0 21G<255 255 255 287> 690 20G<-2 36 36 36 505 543 543 543>
VStem: 255 32<0 290 0 290>
AnchorPoint: "Anchor-3" 271 710 basechar 0
AnchorPoint: "Anchor-0" 271 0 basechar 0
LayerCount: 2
Fore
SplineSet
255 0 m 1
 255 290 l 1
 -2 710 l 1
 36 710 l 1
 271 320 l 1
 505 710 l 1
 543 710 l 1
 287 290 l 1
 287 0 l 1
 255 0 l 1
EndSplineSet
EndChar

StartChar: Yacute
Encoding: 221 221 123
Width: 541
GlyphClass: 2
Flags: MW
HStem: 0 21G<255 255 255 287> 690 20G<-2 36 36 36 505 543 543 543> 790 116<257 363 257 363>
VStem: 255 32<0 290 0 290>
AnchorPoint: "Anchor-3" 271 710 basechar 0
AnchorPoint: "Anchor-0" 271 0 basechar 0
LayerCount: 2
Fore
SplineSet
257 790 m 1
 329 906 l 1
 363 906 l 1
 283 790 l 1
 257 790 l 1
255 0 m 1
 255 290 l 1
 -2 710 l 1
 36 710 l 1
 271 320 l 1
 505 710 l 1
 543 710 l 1
 287 290 l 1
 287 0 l 1
 255 0 l 1
EndSplineSet
EndChar

StartChar: Ycircumflex
Encoding: 374 374 124
Width: 541
GlyphClass: 2
Flags: MW
HStem: 0 21G<255 255 255 287> 690 20G<-2 36 36 36 505 543 543 543> 889 25<272 272>
VStem: 255 32<0 290 0 290>
AnchorPoint: "Anchor-3" 271 710 basechar 0
AnchorPoint: "Anchor-0" 271 0 basechar 0
LayerCount: 2
Fore
SplineSet
173 790 m 1
 261 914 l 1
 283 914 l 1
 371 790 l 1
 343 790 l 1
 272 889 l 1
 201 790 l 1
 173 790 l 1
255 0 m 1
 255 290 l 1
 -2 710 l 1
 36 710 l 1
 271 320 l 1
 505 710 l 1
 543 710 l 1
 287 290 l 1
 287 0 l 1
 255 0 l 1
EndSplineSet
EndChar

StartChar: Ydieresis
Encoding: 376 376 125
Width: 541
GlyphClass: 2
Flags: MW
HStem: 0 21G<255 255 255 287> 690 20G<-2 36 36 36 505 543 543 543> 808 70<190 224 190 224 318 352>
VStem: 190 34<808 878 808 878> 255 32<0 290 0 290> 318 34<808 878 808 878>
AnchorPoint: "Anchor-3" 271 710 basechar 0
AnchorPoint: "Anchor-0" 271 0 basechar 0
LayerCount: 2
Fore
SplineSet
190 808 m 1
 190 878 l 1
 224 878 l 1
 224 808 l 1
 190 808 l 1
318 808 m 1
 318 878 l 1
 352 878 l 1
 352 808 l 1
 318 808 l 1
255 0 m 1
 255 290 l 1
 -2 710 l 1
 36 710 l 1
 271 320 l 1
 505 710 l 1
 543 710 l 1
 287 290 l 1
 287 0 l 1
 255 0 l 1
EndSplineSet
Substitution2: "'ss08' Style Set 8 in Latin lookup 41 subtable" Ydieresis.ss08
Substitution2: "'aalt' Access All Alternates in Latin lookup 0 subtable" Ydieresis.ss08
EndChar

StartChar: Ygrave
Encoding: 7922 7922 126
Width: 541
GlyphClass: 2
Flags: MW
HStem: 0 21G<255 255 255 287> 690 20G<-2 36 36 36 505 543 543 543> 798 116<178 258 178 284>
VStem: 255 32<0 290 0 290>
AnchorPoint: "Anchor-3" 271 710 basechar 0
AnchorPoint: "Anchor-0" 271 0 basechar 0
LayerCount: 2
Fore
SplineSet
258 798 m 1
 178 914 l 1
 212 914 l 1
 284 798 l 1
 258 798 l 1
255 0 m 1
 255 290 l 1
 -2 710 l 1
 36 710 l 1
 271 320 l 1
 505 710 l 1
 543 710 l 1
 287 290 l 1
 287 0 l 1
 255 0 l 1
EndSplineSet
EndChar

StartChar: uni1EF8
Encoding: 7928 7928 127
Width: 541
GlyphClass: 2
Flags: MW
HStem: 0 21G<255 255 255 287> 690 20G<-2 36 36 36 505 543 543 543> 810 24<318 339 318 347> 870 24<193 220>
VStem: 132 26<805 805> 255 32<0 290 0 290> 370 26<903 903>
AnchorPoint: "Anchor-3" 271 710 basechar 0
AnchorPoint: "Anchor-0" 271 0 basechar 0
LayerCount: 2
Fore
SplineSet
326 810 m 0
 298 810 281 821 262 842 c 0
 246 860 232 870 208 870 c 0
 178 870 160 849 158 805 c 1
 132 805 l 1
 136 861 166 894 208 894 c 0
 240 894 260 879 280 858 c 0
 298 840 310 834 326 834 c 0
 352 834 366 853 370 903 c 1
 396 903 l 1
 392 845 368 810 326 810 c 0
255 0 m 1
 255 290 l 1
 -2 710 l 1
 36 710 l 1
 271 320 l 1
 505 710 l 1
 543 710 l 1
 287 290 l 1
 287 0 l 1
 255 0 l 1
EndSplineSet
EndChar

StartChar: Z
Encoding: 90 90 128
Width: 523
GlyphClass: 2
Flags: MW
HStem: 0 30<30 30 65 493> 680 30<43 448 43 483 43 483>
VStem: 30 35<0 30 30 30> 448 35<680 710>
AnchorPoint: "Anchor-3" 266 710 basechar 0
AnchorPoint: "Anchor-0" 266 0 basechar 0
LayerCount: 2
Fore
SplineSet
30 0 m 1
 30 30 l 1
 448 680 l 1
 43 680 l 1
 43 710 l 1
 483 710 l 1
 483 680 l 1
 65 30 l 1
 493 30 l 1
 493 0 l 1
 30 0 l 1
EndSplineSet
EndChar

StartChar: Zacute
Encoding: 377 377 129
Width: 523
GlyphClass: 2
Flags: MW
HStem: 0 30<30 30 65 493> 680 30<43 448 43 483 43 483> 790 116<252 358 252 358>
VStem: 30 35<0 30 30 30> 448 35<680 710>
AnchorPoint: "Anchor-3" 266 710 basechar 0
AnchorPoint: "Anchor-0" 266 0 basechar 0
LayerCount: 2
Fore
SplineSet
252 790 m 1
 324 906 l 1
 358 906 l 1
 278 790 l 1
 252 790 l 1
30 0 m 1
 30 30 l 1
 448 680 l 1
 43 680 l 1
 43 710 l 1
 483 710 l 1
 483 680 l 1
 65 30 l 1
 493 30 l 1
 493 0 l 1
 30 0 l 1
EndSplineSet
EndChar

StartChar: Zcaron
Encoding: 381 381 130
Width: 523
GlyphClass: 2
Flags: MW
HStem: 0 30<30 30 65 493> 680 30<43 448 43 483 43 483> 790 25<266 266 266 277 255 266>
VStem: 30 35<0 30 30 30> 448 35<680 710>
AnchorPoint: "Anchor-3" 266 710 basechar 0
AnchorPoint: "Anchor-0" 266 0 basechar 0
LayerCount: 2
Fore
SplineSet
167 914 m 1
 195 914 l 1
 266 815 l 1
 337 914 l 1
 365 914 l 1
 277 790 l 1
 255 790 l 1
 167 914 l 1
30 0 m 1
 30 30 l 1
 448 680 l 1
 43 680 l 1
 43 710 l 1
 483 710 l 1
 483 680 l 1
 65 30 l 1
 493 30 l 1
 493 0 l 1
 30 0 l 1
EndSplineSet
EndChar

StartChar: Zdotaccent
Encoding: 379 379 131
Width: 523
GlyphClass: 2
Flags: MW
HStem: 0 30<30 30 65 493> 680 30<43 448 43 483 43 483> 808 70<249 283 249 283>
VStem: 30 35<0 30 30 30> 249 34<808 878 808 878> 448 35<680 710>
AnchorPoint: "Anchor-3" 266 710 basechar 0
AnchorPoint: "Anchor-0" 266 0 basechar 0
LayerCount: 2
Fore
SplineSet
249 808 m 1
 249 878 l 1
 283 878 l 1
 283 808 l 1
 249 808 l 1
30 0 m 1
 30 30 l 1
 448 680 l 1
 43 680 l 1
 43 710 l 1
 483 710 l 1
 483 680 l 1
 65 30 l 1
 493 30 l 1
 493 0 l 1
 30 0 l 1
EndSplineSet
Substitution2: "'ss08' Style Set 8 in Latin lookup 41 subtable" Zdotaccent.ss08
Substitution2: "'aalt' Access All Alternates in Latin lookup 0 subtable" Zdotaccent.ss08
EndChar

StartChar: uniA78B
Encoding: 42891 42891 132
Width: 134
GlyphClass: 1
Flags: MW
HStem: 690 20G<50 84 84 84>
VStem: 50 34<650 710 650 710>
LayerCount: 2
Fore
SplineSet
54 370 m 1
 50 650 l 1
 50 710 l 1
 84 710 l 1
 84 650 l 1
 80 370 l 1
 54 370 l 1
EndSplineSet
EndChar

StartChar: uni013B.loclMAH
Encoding: 65538 -1 133
Width: 550
GlyphClass: 2
Flags: MW
HStem: -94 48<278 302 278 328> 0 30<128 510 128 510> 690 20G<96 128 128 128>
VStem: 96 32<30 710 30 710 30 710> 278 50<-89 -46 -89 -46 -89 -46>
AnchorPoint: "Anchor-4" 340 530 basechar 0
AnchorPoint: "Anchor-3" 112 710 basechar 0
AnchorPoint: "Anchor-1" 140 380 basechar 0
AnchorPoint: "Anchor-0" 303 -169 basechar 0
LayerCount: 2
Fore
SplineSet
96 0 m 1
 96 710 l 1
 128 710 l 1
 128 30 l 1
 510 30 l 1
 510 0 l 1
 96 0 l 1
266 -169 m 1
 302 -94 l 1
 278 -94 l 1
 278 -46 l 1
 328 -46 l 1
 328 -89 l 1
 288 -169 l 1
 266 -169 l 1
EndSplineSet
EndChar

StartChar: uni0145.loclMAH
Encoding: 65539 -1 134
Width: 711
GlyphClass: 2
Flags: MW
HStem: -94 48<331 355 331 381> 0 30<568 583 583 583 583 615> 680 30<128 128>
VStem: 96 32<0 680 0 710 0 710> 331 50<-89 -46 -89 -46 -89 -46> 583 32<30 710 0 710>
AnchorPoint: "Anchor-3" 356 710 basechar 0
AnchorPoint: "Anchor-0" 356 -169 basechar 0
LayerCount: 2
Fore
SplineSet
96 0 m 1
 96 710 l 1
 143 710 l 1
 583 30 l 1
 583 710 l 1
 615 710 l 1
 615 0 l 1
 568 0 l 1
 128 680 l 1
 128 0 l 1
 96 0 l 1
319 -169 m 1
 355 -94 l 1
 331 -94 l 1
 331 -46 l 1
 381 -46 l 1
 381 -89 l 1
 341 -169 l 1
 319 -169 l 1
EndSplineSet
EndChar

StartChar: R.ss04
Encoding: 65540 -1 135
Width: 628
GlyphClass: 2
Flags: MW
HStem: 0 21G<96 96 96 128 539 539 539 573> 311 30<128 333 128 333> 680 30<128 333 128 128>
VStem: 96 32<0 311 341 680> 539 34<0 0 454 561>
AnchorPoint: "Anchor-3" 318 710 basechar 0
AnchorPoint: "Anchor-0" 318 0 basechar 0
LayerCount: 2
Fore
SplineSet
96 0 m 1
 96 710 l 1
 333 710 l 2
 480 710 573 631 573 505 c 0
 573 403 505 333 392 315 c 1
 573 0 l 1
 539 0 l 1
 360 312 l 1
 352 311 342 311 333 311 c 2
 128 311 l 1
 128 0 l 1
 96 0 l 1
128 341 m 1
 333 341 l 2
 465 341 539 400 539 505 c 0
 539 617 465 680 333 680 c 2
 128 680 l 1
 128 341 l 1
EndSplineSet
EndChar

StartChar: Racute.ss04
Encoding: 65541 -1 136
Width: 628
GlyphClass: 2
Flags: MW
HStem: 0 21G<96 96 96 128 539 539 539 573> 311 30<128 333 128 333> 680 30<128 333 128 128> 790 116<304 410 304 410>
VStem: 96 32<0 311 341 680> 539 34<0 0 454 561>
AnchorPoint: "Anchor-3" 318 710 basechar 0
AnchorPoint: "Anchor-0" 318 0 basechar 0
LayerCount: 2
Fore
SplineSet
304 790 m 1
 376 906 l 1
 410 906 l 1
 330 790 l 1
 304 790 l 1
96 0 m 1
 96 710 l 1
 333 710 l 2
 480 710 573 631 573 505 c 0
 573 403 505 333 392 315 c 1
 573 0 l 1
 539 0 l 1
 360 312 l 1
 352 311 342 311 333 311 c 2
 128 311 l 1
 128 0 l 1
 96 0 l 1
128 341 m 1
 333 341 l 2
 465 341 539 400 539 505 c 0
 539 617 465 680 333 680 c 2
 128 680 l 1
 128 341 l 1
EndSplineSet
EndChar

StartChar: Rcaron.ss04
Encoding: 65542 -1 137
Width: 628
GlyphClass: 2
Flags: MW
HStem: 0 21G<96 96 96 128 539 539 539 573> 311 30<128 333 128 333> 680 30<128 333 128 128> 790 25<318 318 318 329 307 318>
VStem: 96 32<0 311 341 680> 539 34<0 0 454 561>
AnchorPoint: "Anchor-3" 318 710 basechar 0
AnchorPoint: "Anchor-0" 318 0 basechar 0
LayerCount: 2
Fore
SplineSet
219 914 m 1
 247 914 l 1
 318 815 l 1
 389 914 l 1
 417 914 l 1
 329 790 l 1
 307 790 l 1
 219 914 l 1
96 0 m 1
 96 710 l 1
 333 710 l 2
 480 710 573 631 573 505 c 0
 573 403 505 333 392 315 c 1
 573 0 l 1
 539 0 l 1
 360 312 l 1
 352 311 342 311 333 311 c 2
 128 311 l 1
 128 0 l 1
 96 0 l 1
128 341 m 1
 333 341 l 2
 465 341 539 400 539 505 c 0
 539 617 465 680 333 680 c 2
 128 680 l 1
 128 341 l 1
EndSplineSet
EndChar

StartChar: uni0156.ss04
Encoding: 65543 -1 138
Width: 628
GlyphClass: 2
Flags: MW
HStem: -94 48<293 317 293 343> 0 21G<96 96 96 128 539 539 539 573> 311 30<128 333 128 333> 680 30<128 333 128 128>
VStem: 96 32<0 311 341 680> 293 50<-89 -46 -89 -46 -89 -46> 539 34<0 0 454 561>
AnchorPoint: "Anchor-3" 318 710 basechar 0
AnchorPoint: "Anchor-0" 318 -169 basechar 0
LayerCount: 2
Fore
SplineSet
96 0 m 1
 96 710 l 1
 333 710 l 2
 480 710 573 631 573 505 c 0
 573 403 505 333 392 315 c 1
 573 0 l 1
 539 0 l 1
 360 312 l 1
 352 311 342 311 333 311 c 2
 128 311 l 1
 128 0 l 1
 96 0 l 1
128 341 m 1
 333 341 l 2
 465 341 539 400 539 505 c 0
 539 617 465 680 333 680 c 2
 128 680 l 1
 128 341 l 1
281 -169 m 1
 317 -94 l 1
 293 -94 l 1
 293 -46 l 1
 343 -46 l 1
 343 -89 l 1
 303 -169 l 1
 281 -169 l 1
EndSplineSet
EndChar

StartChar: I.ss05
Encoding: 65544 -1 139
Width: 320
GlyphClass: 2
Flags: MW
HStem: 0 30<50 144 50 144 176 270> 680 30<56 144 56 264 176 176 176 264>
VStem: 144 32<30 680 30 680>
AnchorPoint: "Anchor-3" 160 710 basechar 0
AnchorPoint: "Anchor-2" 270 0 basechar 0
AnchorPoint: "Anchor-0" 160 0 basechar 0
LayerCount: 2
Fore
SplineSet
50 0 m 1
 50 30 l 1
 144 30 l 1
 144 680 l 1
 56 680 l 1
 56 710 l 1
 264 710 l 1
 264 680 l 1
 176 680 l 1
 176 30 l 1
 270 30 l 1
 270 0 l 1
 50 0 l 1
EndSplineSet
EndChar

StartChar: Iacute.ss05
Encoding: 65545 -1 140
Width: 320
GlyphClass: 2
Flags: MW
HStem: 0 30<50 144 50 144 176 270> 680 30<56 144 56 264 176 176 176 264> 790 116<146 252 146 252>
VStem: 144 32<30 680 30 680>
AnchorPoint: "Anchor-3" 160 710 basechar 0
AnchorPoint: "Anchor-2" 270 0 basechar 0
AnchorPoint: "Anchor-0" 160 0 basechar 0
LayerCount: 2
Fore
SplineSet
146 790 m 1
 218 906 l 1
 252 906 l 1
 172 790 l 1
 146 790 l 1
50 0 m 1
 50 30 l 1
 144 30 l 1
 144 680 l 1
 56 680 l 1
 56 710 l 1
 264 710 l 1
 264 680 l 1
 176 680 l 1
 176 30 l 1
 270 30 l 1
 270 0 l 1
 50 0 l 1
EndSplineSet
EndChar

StartChar: Icircumflex.ss05
Encoding: 65546 -1 141
Width: 320
GlyphClass: 2
Flags: MW
HStem: 0 30<50 144 50 144 176 270> 680 30<56 144 56 264 176 176 176 264> 889 25<161 161>
VStem: 144 32<30 680 30 680>
AnchorPoint: "Anchor-3" 160 710 basechar 0
AnchorPoint: "Anchor-2" 270 0 basechar 0
AnchorPoint: "Anchor-0" 160 0 basechar 0
LayerCount: 2
Fore
SplineSet
62 790 m 1
 150 914 l 1
 172 914 l 1
 260 790 l 1
 232 790 l 1
 161 889 l 1
 90 790 l 1
 62 790 l 1
50 0 m 1
 50 30 l 1
 144 30 l 1
 144 680 l 1
 56 680 l 1
 56 710 l 1
 264 710 l 1
 264 680 l 1
 176 680 l 1
 176 30 l 1
 270 30 l 1
 270 0 l 1
 50 0 l 1
EndSplineSet
EndChar

StartChar: Idieresis.ss05
Encoding: 65547 -1 142
Width: 320
GlyphClass: 2
Flags: MW
HStem: 0 30<50 144 50 144 176 270> 680 30<56 144 56 264 176 176 176 264> 808 70<79 113 79 113 207 241>
VStem: 79 34<808 878 808 878> 144 32<30 680 30 680> 207 34<808 878 808 878>
AnchorPoint: "Anchor-3" 160 710 basechar 0
AnchorPoint: "Anchor-2" 270 0 basechar 0
AnchorPoint: "Anchor-0" 160 0 basechar 0
LayerCount: 2
Fore
SplineSet
79 808 m 1
 79 878 l 1
 113 878 l 1
 113 808 l 1
 79 808 l 1
207 808 m 1
 207 878 l 1
 241 878 l 1
 241 808 l 1
 207 808 l 1
50 0 m 1
 50 30 l 1
 144 30 l 1
 144 680 l 1
 56 680 l 1
 56 710 l 1
 264 710 l 1
 264 680 l 1
 176 680 l 1
 176 30 l 1
 270 30 l 1
 270 0 l 1
 50 0 l 1
EndSplineSet
Substitution2: "'ss08' Style Set 8 in Latin lookup 41 subtable" Idieresis.ss05.ss08
Substitution2: "'aalt' Access All Alternates in Latin lookup 0 subtable" Idieresis.ss05.ss08
EndChar

StartChar: Idotaccent.ss05
Encoding: 65548 -1 143
Width: 320
GlyphClass: 2
Flags: MW
HStem: 0 30<50 144 50 144 176 270> 680 30<56 144 56 264 176 176 176 264> 808 70<143 177 143 177>
VStem: 143 34<808 878 808 878> 144 32<30 680 30 680>
AnchorPoint: "Anchor-3" 160 710 basechar 0
AnchorPoint: "Anchor-2" 270 0 basechar 0
AnchorPoint: "Anchor-0" 160 0 basechar 0
LayerCount: 2
Fore
SplineSet
143 808 m 1xf0
 143 878 l 1
 177 878 l 1
 177 808 l 1
 143 808 l 1xf0
50 0 m 1
 50 30 l 1
 144 30 l 1
 144 680 l 1
 56 680 l 1
 56 710 l 1
 264 710 l 1
 264 680 l 1
 176 680 l 1
 176 30 l 1xe8
 270 30 l 1
 270 0 l 1
 50 0 l 1
EndSplineSet
Substitution2: "'ss08' Style Set 8 in Latin lookup 41 subtable" Idotaccent.ss05.ss08
Substitution2: "'aalt' Access All Alternates in Latin lookup 0 subtable" Idotaccent.ss05.ss08
EndChar

StartChar: Igrave.ss05
Encoding: 65549 -1 144
Width: 320
GlyphClass: 2
Flags: MW
HStem: 0 30<50 144 50 144 176 270> 680 30<56 144 56 264 176 176 176 264> 798 116<67 147 67 173>
VStem: 144 32<30 680 30 680>
AnchorPoint: "Anchor-3" 160 710 basechar 0
AnchorPoint: "Anchor-2" 270 0 basechar 0
AnchorPoint: "Anchor-0" 160 0 basechar 0
LayerCount: 2
Fore
SplineSet
147 798 m 1
 67 914 l 1
 101 914 l 1
 173 798 l 1
 147 798 l 1
50 0 m 1
 50 30 l 1
 144 30 l 1
 144 680 l 1
 56 680 l 1
 56 710 l 1
 264 710 l 1
 264 680 l 1
 176 680 l 1
 176 30 l 1
 270 30 l 1
 270 0 l 1
 50 0 l 1
EndSplineSet
EndChar

StartChar: Imacron.ss05
Encoding: 65550 -1 145
Width: 320
GlyphClass: 2
Flags: MW
HStem: 0 30<50 144 50 144 176 270> 680 30<56 144 56 264 176 176 176 264> 824 28<36 284 36 284>
VStem: 144 32<30 680 30 680>
AnchorPoint: "Anchor-3" 160 710 basechar 0
AnchorPoint: "Anchor-2" 270 0 basechar 0
AnchorPoint: "Anchor-0" 160 0 basechar 0
LayerCount: 2
Fore
SplineSet
36 824 m 1
 36 852 l 1
 284 852 l 1
 284 824 l 1
 36 824 l 1
50 0 m 1
 50 30 l 1
 144 30 l 1
 144 680 l 1
 56 680 l 1
 56 710 l 1
 264 710 l 1
 264 680 l 1
 176 680 l 1
 176 30 l 1
 270 30 l 1
 270 0 l 1
 50 0 l 1
EndSplineSet
EndChar

StartChar: Iogonek.ss05
Encoding: 65551 -1 146
Width: 320
GlyphClass: 2
Flags: MW
HStem: -192 26<239 260 239 263> 0 30<50 144 50 144 176 245> 680 30<56 144 56 264 176 176 176 264>
VStem: 144 32<30 680 30 680> 180 30<-144.5 -116> 245 25<0 30>
AnchorPoint: "Anchor-3" 160 710 basechar 0
AnchorPoint: "Anchor-2" 270 0 basechar 0
AnchorPoint: "Anchor-0" 160 0 basechar 0
LayerCount: 2
Fore
SplineSet
50 0 m 1
 50 30 l 1
 144 30 l 1
 144 680 l 1
 56 680 l 1
 56 710 l 1
 264 710 l 1
 264 680 l 1
 176 680 l 1
 176 30 l 1xf0
 270 30 l 1
 270 0 l 1
 244 -40 l 2
 224 -70 210 -98 210 -130 c 0
 210 -159 228 -166 250 -166 c 0
 270 -166 287 -160 299 -151 c 1
 313 -173 l 1
 295 -185 276 -192 250 -192 c 0
 212 -192 180 -176 180 -132 c 0
 180 -100 202 -65 228 -26 c 2
 245 0 l 1
 50 0 l 1
EndSplineSet
EndChar

StartChar: Itilde.ss05
Encoding: 65552 -1 147
Width: 320
GlyphClass: 2
Flags: MW
HStem: 0 30<50 144 50 144 176 270> 680 30<56 144 56 264 176 176 176 264> 810 24<207 228 207 236> 870 24<82 109>
VStem: 21 26<805 805> 144 32<30 680 30 680> 259 26<903 903>
AnchorPoint: "Anchor-3" 160 710 basechar 0
AnchorPoint: "Anchor-2" 270 0 basechar 0
AnchorPoint: "Anchor-0" 160 0 basechar 0
LayerCount: 2
Fore
SplineSet
215 810 m 0
 187 810 170 821 151 842 c 0
 135 860 121 870 97 870 c 0
 67 870 49 849 47 805 c 1
 21 805 l 1
 25 861 55 894 97 894 c 0
 129 894 149 879 169 858 c 0
 187 840 199 834 215 834 c 0
 241 834 255 853 259 903 c 1
 285 903 l 1
 281 845 257 810 215 810 c 0
50 0 m 1
 50 30 l 1
 144 30 l 1
 144 680 l 1
 56 680 l 1
 56 710 l 1
 264 710 l 1
 264 680 l 1
 176 680 l 1
 176 30 l 1
 270 30 l 1
 270 0 l 1
 50 0 l 1
EndSplineSet
EndChar

StartChar: G.ss06
Encoding: 65553 -1 148
Width: 665
GlyphClass: 2
Flags: MW
HStem: -16 32<262 421.5 262 431> 302 28<354 588 354 620> 694 32<271 415>
VStem: 50 34<250 464.5 250 473> 588 32<217 302>
AnchorPoint: "Anchor-3" 353 710 basechar 0
AnchorPoint: "Anchor-0" 350 0 basechar 0
LayerCount: 2
Fore
SplineSet
344 -16 m 0
 163 -16 50 123 50 354 c 0
 50 592 167 726 354 726 c 0
 491 726 588 639 618 481 c 1
 585 477 l 1
 559 618 476 694 354 694 c 0
 188 694 84 575 84 354 c 0
 84 146 180 16 344 16 c 0
 499 16 588 132 588 302 c 1
 354 302 l 1
 354 330 l 1
 620 330 l 1
 620 306 l 2
 620 114 518 -16 344 -16 c 0
EndSplineSet
EndChar

StartChar: Gbreve.ss06
Encoding: 65554 -1 149
Width: 665
GlyphClass: 2
Flags: MW
HStem: -16 32<262 421.5 262 431> 302 28<354 588 354 620> 694 32<271 415> 798 28<327 379 327 388>
VStem: 50 34<250 464.5 250 473> 588 32<217 302>
AnchorPoint: "Anchor-3" 353 710 basechar 0
AnchorPoint: "Anchor-0" 350 0 basechar 0
LayerCount: 2
Fore
SplineSet
353 798 m 0
 283 798 239 844 229 914 c 1
 255 914 l 1
 263 856 301 826 353 826 c 0
 405 826 443 856 451 914 c 1
 477 914 l 1
 467 844 423 798 353 798 c 0
344 -16 m 0
 163 -16 50 123 50 354 c 0
 50 592 167 726 354 726 c 0
 491 726 588 639 618 481 c 1
 585 477 l 1
 559 618 476 694 354 694 c 0
 188 694 84 575 84 354 c 0
 84 146 180 16 344 16 c 0
 499 16 588 132 588 302 c 1
 354 302 l 1
 354 330 l 1
 620 330 l 1
 620 306 l 2
 620 114 518 -16 344 -16 c 0
EndSplineSet
EndChar

StartChar: Gcircumflex.ss06
Encoding: 65555 -1 150
Width: 665
GlyphClass: 2
Flags: MW
HStem: -16 32<262 421.5 262 431> 302 28<354 588 354 620> 694 32<271 415> 889 25<354 354>
VStem: 50 34<250 464.5 250 473> 588 32<217 302>
AnchorPoint: "Anchor-3" 353 710 basechar 0
AnchorPoint: "Anchor-0" 350 0 basechar 0
LayerCount: 2
Fore
SplineSet
255 790 m 1
 343 914 l 1
 365 914 l 1
 453 790 l 1
 425 790 l 1
 354 889 l 1
 283 790 l 1
 255 790 l 1
344 -16 m 0
 163 -16 50 123 50 354 c 0
 50 592 167 726 354 726 c 0
 491 726 588 639 618 481 c 1
 585 477 l 1
 559 618 476 694 354 694 c 0
 188 694 84 575 84 354 c 0
 84 146 180 16 344 16 c 0
 499 16 588 132 588 302 c 1
 354 302 l 1
 354 330 l 1
 620 330 l 1
 620 306 l 2
 620 114 518 -16 344 -16 c 0
EndSplineSet
EndChar

StartChar: uni0122.ss06
Encoding: 65556 -1 151
Width: 665
GlyphClass: 2
Flags: MW
HStem: -94 48<325 349 325 375> -16 32<262 421.5 262 431> 302 28<354 588 354 620> 694 32<271 415>
VStem: 50 34<250 464.5 250 473> 325 50<-89 -46 -89 -46 -89 -46> 588 32<217 302>
AnchorPoint: "Anchor-3" 353 710 basechar 0
AnchorPoint: "Anchor-0" 350 -169 basechar 0
LayerCount: 2
Fore
SplineSet
344 -16 m 0
 163 -16 50 123 50 354 c 0
 50 592 167 726 354 726 c 0
 491 726 588 639 618 481 c 1
 585 477 l 1
 559 618 476 694 354 694 c 0
 188 694 84 575 84 354 c 0
 84 146 180 16 344 16 c 0
 499 16 588 132 588 302 c 1
 354 302 l 1
 354 330 l 1
 620 330 l 1
 620 306 l 2
 620 114 518 -16 344 -16 c 0
313 -169 m 1
 349 -94 l 1
 325 -94 l 1
 325 -46 l 1
 375 -46 l 1xbe
 375 -89 l 1
 335 -169 l 1
 313 -169 l 1
EndSplineSet
EndChar

StartChar: Gdotaccent.ss06
Encoding: 65557 -1 152
Width: 665
GlyphClass: 2
Flags: MW
HStem: -16 32<262 421.5 262 431> 302 28<354 588 354 620> 694 32<271 415> 808 70<336 370 336 370>
VStem: 50 34<250 464.5 250 473> 336 34<808 878 808 878> 588 32<217 302>
AnchorPoint: "Anchor-3" 353 710 basechar 0
AnchorPoint: "Anchor-0" 350 0 basechar 0
LayerCount: 2
Fore
SplineSet
336 808 m 1
 336 878 l 1
 370 878 l 1
 370 808 l 1
 336 808 l 1
344 -16 m 0
 163 -16 50 123 50 354 c 0
 50 592 167 726 354 726 c 0
 491 726 588 639 618 481 c 1
 585 477 l 1
 559 618 476 694 354 694 c 0
 188 694 84 575 84 354 c 0
 84 146 180 16 344 16 c 0
 499 16 588 132 588 302 c 1
 354 302 l 1
 354 330 l 1
 620 330 l 1
 620 306 l 2
 620 114 518 -16 344 -16 c 0
EndSplineSet
Substitution2: "'ss08' Style Set 8 in Latin lookup 41 subtable" Gdotaccent.ss06.ss08
Substitution2: "'aalt' Access All Alternates in Latin lookup 0 subtable" Gdotaccent.ss06.ss08
EndChar

StartChar: uni1E20.ss06
Encoding: 65558 -1 153
Width: 665
GlyphClass: 2
Flags: MW
HStem: -16 32<262 421.5 262 431> 302 28<354 588 354 620> 694 32<271 415> 824 28<229 477 229 477>
VStem: 50 34<250 464.5 250 473> 588 32<217 302>
AnchorPoint: "Anchor-3" 353 710 basechar 0
AnchorPoint: "Anchor-0" 350 0 basechar 0
LayerCount: 2
Fore
SplineSet
229 824 m 1
 229 852 l 1
 477 852 l 1
 477 824 l 1
 229 824 l 1
344 -16 m 0
 163 -16 50 123 50 354 c 0
 50 592 167 726 354 726 c 0
 491 726 588 639 618 481 c 1
 585 477 l 1
 559 618 476 694 354 694 c 0
 188 694 84 575 84 354 c 0
 84 146 180 16 344 16 c 0
 499 16 588 132 588 302 c 1
 354 302 l 1
 354 330 l 1
 620 330 l 1
 620 306 l 2
 620 114 518 -16 344 -16 c 0
EndSplineSet
EndChar

StartChar: Adieresis.ss08
Encoding: 65559 -1 154
Width: 612
GlyphClass: 2
Flags: MW
HStem: 0 21G<24 24 24 57 555 555 555 588> 235 30<154 458 154 469 143 458> 678 32<306 306> 814 56<219 233 379 393>
VStem: 200 52<833 851> 360 52<833 851>
AnchorPoint: "Anchor-3" 306 710 basechar 0
AnchorPoint: "Anchor-2" 588 0 basechar 0
AnchorPoint: "Anchor-0" 306 0 basechar 0
LayerCount: 2
Fore
SplineSet
226 814 m 0
 212 814 200 824 200 842 c 0
 200 860 212 870 226 870 c 0
 240 870 252 860 252 842 c 0
 252 824 240 814 226 814 c 0
386 814 m 0
 372 814 360 824 360 842 c 0
 360 860 372 870 386 870 c 0
 400 870 412 860 412 842 c 0
 412 824 400 814 386 814 c 0
24 0 m 1
 287 710 l 1
 325 710 l 1
 588 0 l 1
 555 0 l 1
 469 235 l 1
 143 235 l 1
 57 0 l 1
 24 0 l 1
154 265 m 1
 458 265 l 1
 306 678 l 1
 154 265 l 1
EndSplineSet
EndChar

StartChar: Cdotaccent.ss08
Encoding: 65560 -1 155
Width: 676
GlyphClass: 2
Flags: MW
HStem: -16 32<267 419 267 427> 694 32<267 416> 814 56<341 355>
VStem: 50 34<249 459 249 469> 322 52<833 851>
AnchorPoint: "Anchor-3" 348 710 basechar 0
AnchorPoint: "Anchor-0" 348 0 basechar 0
LayerCount: 2
Fore
SplineSet
348 814 m 0
 334 814 322 824 322 842 c 0
 322 860 334 870 348 870 c 0
 362 870 374 860 374 842 c 0
 374 824 362 814 348 814 c 0
348 -16 m 0
 166 -16 50 124 50 354 c 0
 50 584 166 726 348 726 c 0
 502 726 597 628 625 480 c 1
 591 477 l 1
 569 609 484 694 348 694 c 0
 186 694 84 564 84 354 c 0
 84 144 186 16 348 16 c 0
 490 16 579 103 597 249 c 1
 631 246 l 1
 607 84 506 -16 348 -16 c 0
EndSplineSet
EndChar

StartChar: Edieresis.ss08
Encoding: 65561 -1 156
Width: 573
GlyphClass: 2
Flags: MW
HStem: 0 30<128 523 128 523> 339 30<128 503 128 503> 680 30<128 515 128 128> 814 56<219 233 379 393>
VStem: 96 32<30 339 369 680> 200 52<833 851> 360 52<833 851>
AnchorPoint: "Anchor-3" 306 710 basechar 0
AnchorPoint: "Anchor-2" 523 0 basechar 0
AnchorPoint: "Anchor-0" 306 0 basechar 0
LayerCount: 2
Fore
SplineSet
226 814 m 0
 212 814 200 824 200 842 c 0
 200 860 212 870 226 870 c 0
 240 870 252 860 252 842 c 0
 252 824 240 814 226 814 c 0
386 814 m 0
 372 814 360 824 360 842 c 0
 360 860 372 870 386 870 c 0
 400 870 412 860 412 842 c 0
 412 824 400 814 386 814 c 0
96 0 m 1
 96 710 l 1
 515 710 l 1
 515 680 l 1
 128 680 l 1
 128 369 l 1
 503 369 l 1
 503 339 l 1
 128 339 l 1
 128 30 l 1
 523 30 l 1
 523 0 l 1
 96 0 l 1
EndSplineSet
EndChar

StartChar: Edotaccent.ss08
Encoding: 65562 -1 157
Width: 573
GlyphClass: 2
Flags: MW
HStem: 0 30<128 523 128 523> 339 30<128 503 128 503> 680 30<128 515 128 128> 814 56<299 313>
VStem: 96 32<30 339 369 680> 280 52<833 851>
AnchorPoint: "Anchor-3" 306 710 basechar 0
AnchorPoint: "Anchor-2" 523 0 basechar 0
AnchorPoint: "Anchor-0" 306 0 basechar 0
LayerCount: 2
Fore
SplineSet
306 814 m 0
 292 814 280 824 280 842 c 0
 280 860 292 870 306 870 c 0
 320 870 332 860 332 842 c 0
 332 824 320 814 306 814 c 0
96 0 m 1
 96 710 l 1
 515 710 l 1
 515 680 l 1
 128 680 l 1
 128 369 l 1
 503 369 l 1
 503 339 l 1
 128 339 l 1
 128 30 l 1
 523 30 l 1
 523 0 l 1
 96 0 l 1
EndSplineSet
EndChar

StartChar: Gdotaccent.ss08
Encoding: 65563 -1 158
Width: 675
GlyphClass: 2
Flags: MW
HStem: -16 32<266 415> 0 21G<592 620 592 592> 302 28<354 588 354 620> 694 32<266 414> 814 56<345 359>
VStem: 50 34<250 458.5 250 468.5> 326 52<833 851> 588 32<302 302> 590.5 29.5
AnchorPoint: "Anchor-3" 352 710 basechar 0
AnchorPoint: "Anchor-0" 354 0 basechar 0
LayerCount: 2
Fore
SplineSet
352 814 m 0xbe80
 338 814 326 824 326 842 c 0
 326 860 338 870 352 870 c 0
 366 870 378 860 378 842 c 0
 378 824 366 814 352 814 c 0xbe80
346 -16 m 0
 165 -16 50 127 50 354 c 0
 50 583 159 726 352 726 c 0
 490 726 588 641 618 481 c 1
 585 477 l 1
 557 621 476 694 352 694 c 0
 180 694 84 563 84 354 c 0
 84 146 186 16 346 16 c 0xb5
 490 16 576 118 588 302 c 1
 354 302 l 1
 354 330 l 1
 620 330 l 1
 620 0 l 1x75
 592 0 l 1x7480
 589 175 l 1
 563 69 484 -16 346 -16 c 0
EndSplineSet
EndChar

StartChar: Idieresis.ss08
Encoding: 65564 -1 159
Width: 224
GlyphClass: 2
Flags: MW
HStem: 0 21G<96 96 96 128> 690 20G<96 128 128 128> 814 56<25 39 185 199>
VStem: 6 52<833 851> 96 32<0 710 0 710> 166 52<833 851>
AnchorPoint: "Anchor-3" 112 710 basechar 0
AnchorPoint: "Anchor-2" 128 0 basechar 0
AnchorPoint: "Anchor-0" 112 0 basechar 0
LayerCount: 2
Fore
SplineSet
32 814 m 0
 18 814 6 824 6 842 c 0
 6 860 18 870 32 870 c 0
 46 870 58 860 58 842 c 0
 58 824 46 814 32 814 c 0
192 814 m 0
 178 814 166 824 166 842 c 0
 166 860 178 870 192 870 c 0
 206 870 218 860 218 842 c 0
 218 824 206 814 192 814 c 0
96 0 m 1
 96 710 l 1
 128 710 l 1
 128 0 l 1
 96 0 l 1
EndSplineSet
EndChar

StartChar: Idotaccent.ss08
Encoding: 65565 -1 160
Width: 224
GlyphClass: 2
Flags: MW
HStem: 0 21G<96 96 96 128> 690 20G<96 128 128 128> 814 56<105 119>
VStem: 86 52<833 851> 96 32<0 710 0 710>
AnchorPoint: "Anchor-3" 112 710 basechar 0
AnchorPoint: "Anchor-2" 128 0 basechar 0
AnchorPoint: "Anchor-0" 112 0 basechar 0
LayerCount: 2
Fore
SplineSet
112 814 m 0xf0
 98 814 86 824 86 842 c 0
 86 860 98 870 112 870 c 0
 126 870 138 860 138 842 c 0
 138 824 126 814 112 814 c 0xf0
96 0 m 1xe8
 96 710 l 1
 128 710 l 1
 128 0 l 1
 96 0 l 1xe8
EndSplineSet
EndChar

StartChar: Odieresis.ss08
Encoding: 65566 -1 161
Width: 714
GlyphClass: 2
Flags: MW
HStem: -16 32<272.5 441.5 272.5 452> 694 32<272.5 441.5> 814 56<270 284 430 444>
VStem: 50 34<250 458.5 250 468.5> 251 52<833 851> 411 52<833 851> 630 34<250 458.5>
AnchorPoint: "Anchor-3" 357 710 basechar 0
AnchorPoint: "Anchor-1" 357 355 basechar 0
AnchorPoint: "Anchor-0" 357 0 basechar 0
LayerCount: 2
Fore
SplineSet
277 814 m 0
 263 814 251 824 251 842 c 0
 251 860 263 870 277 870 c 0
 291 870 303 860 303 842 c 0
 303 824 291 814 277 814 c 0
437 814 m 0
 423 814 411 824 411 842 c 0
 411 860 423 870 437 870 c 0
 451 870 463 860 463 842 c 0
 463 824 451 814 437 814 c 0
357 -16 m 0
 167 -16 50 127 50 354 c 0
 50 583 167 726 357 726 c 0
 547 726 664 583 664 354 c 0
 664 127 547 -16 357 -16 c 0
357 16 m 0
 526 16 630 146 630 354 c 0
 630 563 526 694 357 694 c 0
 188 694 84 563 84 354 c 0
 84 146 188 16 357 16 c 0
EndSplineSet
EndChar

StartChar: Udieresis.ss08
Encoding: 65567 -1 162
Width: 662
GlyphClass: 2
Flags: MW
HStem: -16 32<261 401 261 411> 691 20G<81 113 113 113 549 581 581 581> 814 56<244 258 404 418>
VStem: 81 32<248 711> 225 52<833 851> 385 52<833 851> 549 32<248 711>
AnchorPoint: "Anchor-3" 331 710 basechar 0
AnchorPoint: "Anchor-2" 436 1 basechar 0
AnchorPoint: "Anchor-0" 331 0 basechar 0
LayerCount: 2
Fore
SplineSet
251 814 m 0
 237 814 225 824 225 842 c 0
 225 860 237 870 251 870 c 0
 265 870 277 860 277 842 c 0
 277 824 265 814 251 814 c 0
411 814 m 0
 397 814 385 824 385 842 c 0
 385 860 397 870 411 870 c 0
 425 870 437 860 437 842 c 0
 437 824 425 814 411 814 c 0
331 -16 m 0
 171 -16 81 79 81 248 c 2
 81 711 l 1
 113 711 l 1
 113 248 l 2
 113 99 191 16 331 16 c 0
 471 16 549 99 549 248 c 2
 549 711 l 1
 581 711 l 1
 581 248 l 2
 581 79 491 -16 331 -16 c 0
EndSplineSet
EndChar

StartChar: Wdieresis.ss08
Encoding: 65568 -1 163
Width: 914
GlyphClass: 2
Flags: MW
HStem: 0 33<241 264 264 264 264 289> 676 34<457 457> 814 56<370 384 530 544>
VStem: 351 52<833 851> 511 52<833 851>
AnchorPoint: "Anchor-3" 457 710 basechar 0
AnchorPoint: "Anchor-0" 457 0 basechar 0
LayerCount: 2
Fore
SplineSet
377 814 m 0
 363 814 351 824 351 842 c 0
 351 860 363 870 377 870 c 0
 391 870 403 860 403 842 c 0
 403 824 391 814 377 814 c 0
537 814 m 0
 523 814 511 824 511 842 c 0
 511 860 523 870 537 870 c 0
 551 870 563 860 563 842 c 0
 563 824 551 814 537 814 c 0
241 0 m 1
 42 710 l 1
 75 710 l 1
 264 33 l 1
 435 710 l 1
 479 710 l 1
 650 33 l 1
 839 710 l 1
 872 710 l 1
 673 0 l 1
 625 0 l 1
 457 676 l 1
 289 0 l 1
 241 0 l 1
EndSplineSet
EndChar

StartChar: Ydieresis.ss08
Encoding: 65569 -1 164
Width: 541
GlyphClass: 2
Flags: MW
HStem: 0 21G<255 255 255 287> 690 20G<-2 36 36 36 505 543 543 543> 814 56<184 198 344 358>
VStem: 165 52<833 851> 255 32<0 290 0 290> 325 52<833 851>
AnchorPoint: "Anchor-3" 271 710 basechar 0
AnchorPoint: "Anchor-0" 271 0 basechar 0
LayerCount: 2
Fore
SplineSet
191 814 m 0
 177 814 165 824 165 842 c 0
 165 860 177 870 191 870 c 0
 205 870 217 860 217 842 c 0
 217 824 205 814 191 814 c 0
351 814 m 0
 337 814 325 824 325 842 c 0
 325 860 337 870 351 870 c 0
 365 870 377 860 377 842 c 0
 377 824 365 814 351 814 c 0
255 0 m 1
 255 290 l 1
 -2 710 l 1
 36 710 l 1
 271 320 l 1
 505 710 l 1
 543 710 l 1
 287 290 l 1
 287 0 l 1
 255 0 l 1
EndSplineSet
EndChar

StartChar: Zdotaccent.ss08
Encoding: 65570 -1 165
Width: 523
GlyphClass: 2
Flags: MW
HStem: 0 30<30 30 65 493> 680 30<43 448 43 483 43 483> 814 56<259 273>
VStem: 30 35<0 30 30 30> 240 52<833 851> 448 35<680 710>
AnchorPoint: "Anchor-3" 266 710 basechar 0
AnchorPoint: "Anchor-0" 266 0 basechar 0
LayerCount: 2
Fore
SplineSet
266 814 m 0
 252 814 240 824 240 842 c 0
 240 860 252 870 266 870 c 0
 280 870 292 860 292 842 c 0
 292 824 280 814 266 814 c 0
30 0 m 1
 30 30 l 1
 448 680 l 1
 43 680 l 1
 43 710 l 1
 483 710 l 1
 483 680 l 1
 65 30 l 1
 493 30 l 1
 493 0 l 1
 30 0 l 1
EndSplineSet
EndChar

StartChar: Idieresis.ss05.ss08
Encoding: 65571 -1 166
Width: 320
GlyphClass: 2
Flags: MW
HStem: 0 30<50 144 50 144 176 270> 680 30<56 144 56 264 176 176 176 264> 814 56<73 87 233 247>
VStem: 54 52<833 851> 144 32<30 680 30 680> 214 52<833 851>
AnchorPoint: "Anchor-3" 160 710 basechar 0
AnchorPoint: "Anchor-2" 270 0 basechar 0
AnchorPoint: "Anchor-0" 160 0 basechar 0
LayerCount: 2
Fore
SplineSet
80 814 m 0
 66 814 54 824 54 842 c 0
 54 860 66 870 80 870 c 0
 94 870 106 860 106 842 c 0
 106 824 94 814 80 814 c 0
240 814 m 0
 226 814 214 824 214 842 c 0
 214 860 226 870 240 870 c 0
 254 870 266 860 266 842 c 0
 266 824 254 814 240 814 c 0
50 0 m 1
 50 30 l 1
 144 30 l 1
 144 680 l 1
 56 680 l 1
 56 710 l 1
 264 710 l 1
 264 680 l 1
 176 680 l 1
 176 30 l 1
 270 30 l 1
 270 0 l 1
 50 0 l 1
EndSplineSet
EndChar

StartChar: Idotaccent.ss05.ss08
Encoding: 65572 -1 167
Width: 320
GlyphClass: 2
Flags: MW
HStem: 0 30<50 144 50 144 176 270> 680 30<56 144 56 264 176 176 176 264> 814 56<153 167>
VStem: 134 52<833 851> 144 32<30 680 30 680>
AnchorPoint: "Anchor-3" 160 710 basechar 0
AnchorPoint: "Anchor-2" 270 0 basechar 0
AnchorPoint: "Anchor-0" 160 0 basechar 0
LayerCount: 2
Fore
SplineSet
160 814 m 0xf0
 146 814 134 824 134 842 c 0
 134 860 146 870 160 870 c 0
 174 870 186 860 186 842 c 0
 186 824 174 814 160 814 c 0xf0
50 0 m 1
 50 30 l 1
 144 30 l 1
 144 680 l 1
 56 680 l 1
 56 710 l 1
 264 710 l 1
 264 680 l 1
 176 680 l 1
 176 30 l 1xc8
 270 30 l 1
 270 0 l 1
 50 0 l 1
EndSplineSet
EndChar

StartChar: Gdotaccent.ss06.ss08
Encoding: 65573 -1 168
Width: 665
GlyphClass: 2
Flags: MW
HStem: -16 32<262 421.5 262 431> 302 28<354 588 354 620> 694 32<271 415> 814 56<346 360>
VStem: 50 34<250 464.5 250 473> 327 52<833 851> 588 32<217 302>
AnchorPoint: "Anchor-3" 353 710 basechar 0
AnchorPoint: "Anchor-0" 350 0 basechar 0
LayerCount: 2
Fore
SplineSet
353 814 m 0
 339 814 327 824 327 842 c 0
 327 860 339 870 353 870 c 0
 367 870 379 860 379 842 c 0
 379 824 367 814 353 814 c 0
344 -16 m 0
 163 -16 50 123 50 354 c 0
 50 592 167 726 354 726 c 0
 491 726 588 639 618 481 c 1
 585 477 l 1
 559 618 476 694 354 694 c 0
 188 694 84 575 84 354 c 0
 84 146 180 16 344 16 c 0
 499 16 588 132 588 302 c 1
 354 302 l 1
 354 330 l 1
 620 330 l 1
 620 306 l 2
 620 114 518 -16 344 -16 c 0
EndSplineSet
EndChar

StartChar: A_I.dlig
Encoding: 65574 -1 169
Width: 932
GlyphClass: 3
Flags: MW
HStem: 0 30<662 756 788 882 662 756> 235 30<154 458 154 469 143 458> 680 30<668 756 788 788 788 876>
VStem: 756 32<30 680 30 680>
AnchorPoint: "Anchor-8" 306 710 baselig 0
AnchorPoint: "Anchor-7" 588 0 baselig 0
AnchorPoint: "Anchor-5" 306 0 baselig 0
AnchorPoint: "Anchor-8" 772 710 baselig 1
AnchorPoint: "Anchor-5" 772 0 baselig 1
AnchorPoint: "Anchor-7" 882 0 baselig 1
LayerCount: 2
Fore
SplineSet
24 0 m 1
 287 710 l 1
 325 710 l 1
 588 0 l 1
 555 0 l 1
 469 235 l 1
 143 235 l 1
 57 0 l 1
 24 0 l 1
662 0 m 1
 662 30 l 1
 756 30 l 1
 756 680 l 1
 668 680 l 1
 668 710 l 1
 876 710 l 1
 876 680 l 1
 788 680 l 1
 788 30 l 1
 882 30 l 1
 882 0 l 1
 662 0 l 1
154 265 m 1
 458 265 l 1
 306 678 l 1
 154 265 l 1
EndSplineSet
Ligature2: "'dlig' Discretionary Ligatures in Latin lookup 32 subtable" A I
EndChar

StartChar: U_I.dlig
Encoding: 65575 -1 170
Width: 982
GlyphClass: 3
Flags: MW
HStem: -16 32<261 401 261 411> 0 30<712 806 712 806 838 932> 680 30<718 806 718 926 838 838 838 926>
VStem: 81 32<248 711> 549 32<248 711> 806 32<30 680 30 680>
AnchorPoint: "Anchor-8" 331 710 baselig 0
AnchorPoint: "Anchor-7" 436 1 baselig 0
AnchorPoint: "Anchor-5" 331 0 baselig 0
AnchorPoint: "Anchor-8" 822 710 baselig 1
AnchorPoint: "Anchor-5" 822 0 baselig 1
AnchorPoint: "Anchor-7" 932 0 baselig 1
LayerCount: 2
Fore
SplineSet
331 -16 m 0xbc
 171 -16 81 79 81 248 c 2
 81 711 l 1
 113 711 l 1
 113 248 l 2
 113 99 191 16 331 16 c 0
 471 16 549 99 549 248 c 2
 549 711 l 1
 581 711 l 1
 581 248 l 2
 581 79 491 -16 331 -16 c 0xbc
712 0 m 1x7c
 712 30 l 1
 806 30 l 1
 806 680 l 1
 718 680 l 1
 718 710 l 1
 926 710 l 1
 926 680 l 1
 838 680 l 1
 838 30 l 1
 932 30 l 1
 932 0 l 1
 712 0 l 1x7c
EndSplineSet
Ligature2: "'dlig' Discretionary Ligatures in Latin lookup 32 subtable" U I
EndChar

StartChar: a
Encoding: 97 97 171
Width: 539
GlyphClass: 2
Flags: MW
HStem: -12 30<177 268.5> -1 31<473.5 510> 512 30<215 318>
VStem: 50 32<95 164 95 170> 422 32 424 30<204 287 287 287 316 326>
AnchorPoint: "Anchor-3" 264 530 basechar 0
AnchorPoint: "Anchor-2" 510 0 basechar 0
AnchorPoint: "Anchor-0" 264 0 basechar 0
LayerCount: 2
Fore
SplineSet
220 -12 m 0xb8
 118 -12 50 44 50 130 c 0
 50 210 117 258 211 276 c 2
 424 316 l 1xb4
 424 454 372 512 264 512 c 0
 166 512 107 461 92 370 c 1
 59 373 l 1
 77 481 149 542 264 542 c 0
 386 542 454 472 454 326 c 2
 454 100 l 2
 454 43 470 30 504 30 c 2
 510 30 l 1
 510 0 l 1
 504 -1 500 -1 495 -1 c 0x78
 452 -1 425 18 422 108 c 1
 392 43 317 -12 220 -12 c 0xb8
222 18 m 0
 338 18 424 98 424 204 c 2
 424 287 l 1
 220 248 l 2
 136 232 82 196 82 132 c 0
 82 58 132 18 222 18 c 0
EndSplineSet
Substitution2: "'ss02' Style Set 2 in Latin lookup 35 subtable" a.ss02
Substitution2: "'ss01' Style Set 1 in Latin lookup 34 subtable" a.ss01
Substitution2: "Single Substitution lookup 27 subtable" ordfeminine
AlternateSubs2: "'aalt' Access All Alternates in Latin lookup 1 subtable" ordfeminine a.ss01 a.ss02
EndChar

StartChar: aacute
Encoding: 225 225 172
Width: 539
GlyphClass: 2
Flags: MW
HStem: -12 30<177 268.5> -1 31<473.5 510> 512 30<215 318> 610 116<250 356 250 356> 706 20G<322 356 356 356>
VStem: 50 32<95 164 95 170> 422 32 424 30<204 287 287 287 316 326>
AnchorPoint: "Anchor-3" 264 530 basechar 0
AnchorPoint: "Anchor-2" 510 0 basechar 0
AnchorPoint: "Anchor-0" 264 0 basechar 0
LayerCount: 2
Fore
SplineSet
250 610 m 1xb6
 322 726 l 1
 356 726 l 1
 276 610 l 1
 250 610 l 1xb6
220 -12 m 0
 118 -12 50 44 50 130 c 0
 50 210 117 258 211 276 c 2
 424 316 l 1xad
 424 454 372 512 264 512 c 0
 166 512 107 461 92 370 c 1
 59 373 l 1
 77 481 149 542 264 542 c 0
 386 542 454 472 454 326 c 2
 454 100 l 2
 454 43 470 30 504 30 c 2
 510 30 l 1
 510 0 l 1
 504 -1 500 -1 495 -1 c 0x6e
 452 -1 425 18 422 108 c 1
 392 43 317 -12 220 -12 c 0
222 18 m 0
 338 18 424 98 424 204 c 2
 424 287 l 1
 220 248 l 2
 136 232 82 196 82 132 c 0
 82 58 132 18 222 18 c 0
EndSplineSet
Substitution2: "'ss02' Style Set 2 in Latin lookup 35 subtable" aacute.ss02
Substitution2: "'ss01' Style Set 1 in Latin lookup 34 subtable" aacute.ss01
AlternateSubs2: "'aalt' Access All Alternates in Latin lookup 1 subtable" aacute.ss01 aacute.ss02
EndChar

StartChar: abreve
Encoding: 259 259 173
Width: 539
GlyphClass: 2
Flags: MW
HStem: -12 30<177 268.5> -1 31<473.5 510> 512 30<215 318> 618 28<238 290 238 299>
VStem: 50 32<95 164 95 170> 422 32 424 30<204 287 287 287 316 326>
AnchorPoint: "Anchor-3" 264 530 basechar 0
AnchorPoint: "Anchor-2" 510 0 basechar 0
AnchorPoint: "Anchor-0" 264 0 basechar 0
LayerCount: 2
Fore
SplineSet
264 618 m 0xbc
 194 618 150 664 140 734 c 1
 166 734 l 1
 174 676 212 646 264 646 c 0
 316 646 354 676 362 734 c 1
 388 734 l 1
 378 664 334 618 264 618 c 0xbc
220 -12 m 0
 118 -12 50 44 50 130 c 0
 50 210 117 258 211 276 c 2
 424 316 l 1xba
 424 454 372 512 264 512 c 0
 166 512 107 461 92 370 c 1
 59 373 l 1
 77 481 149 542 264 542 c 0
 386 542 454 472 454 326 c 2
 454 100 l 2
 454 43 470 30 504 30 c 2
 510 30 l 1
 510 0 l 1
 504 -1 500 -1 495 -1 c 0x7c
 452 -1 425 18 422 108 c 1
 392 43 317 -12 220 -12 c 0
222 18 m 0
 338 18 424 98 424 204 c 2
 424 287 l 1
 220 248 l 2
 136 232 82 196 82 132 c 0
 82 58 132 18 222 18 c 0
EndSplineSet
Substitution2: "'ss02' Style Set 2 in Latin lookup 35 subtable" abreve.ss02
Substitution2: "'ss01' Style Set 1 in Latin lookup 34 subtable" abreve.ss01
AlternateSubs2: "'aalt' Access All Alternates in Latin lookup 1 subtable" abreve.ss01 abreve.ss02
EndChar

StartChar: uni01CE
Encoding: 462 462 174
Width: 539
GlyphClass: 2
Flags: MW
HStem: -12 30<177 268.5> -1 31<473.5 510> 512 30<215 318> 610 25<264 264 264 275 253 264>
VStem: 50 32<95 164 95 170> 422 32 424 30<204 287 287 287 316 326>
AnchorPoint: "Anchor-3" 264 530 basechar 0
AnchorPoint: "Anchor-2" 510 0 basechar 0
AnchorPoint: "Anchor-0" 264 0 basechar 0
LayerCount: 2
Fore
SplineSet
165 734 m 1xbc
 193 734 l 1
 264 635 l 1
 335 734 l 1
 363 734 l 1
 275 610 l 1
 253 610 l 1
 165 734 l 1xbc
220 -12 m 0
 118 -12 50 44 50 130 c 0
 50 210 117 258 211 276 c 2
 424 316 l 1xaa
 424 454 372 512 264 512 c 0
 166 512 107 461 92 370 c 1
 59 373 l 1
 77 481 149 542 264 542 c 0
 386 542 454 472 454 326 c 2
 454 100 l 2
 454 43 470 30 504 30 c 2
 510 30 l 1
 510 0 l 1
 504 -1 500 -1 495 -1 c 0x6c
 452 -1 425 18 422 108 c 1
 392 43 317 -12 220 -12 c 0
222 18 m 0
 338 18 424 98 424 204 c 2
 424 287 l 1
 220 248 l 2
 136 232 82 196 82 132 c 0
 82 58 132 18 222 18 c 0
EndSplineSet
Substitution2: "'ss02' Style Set 2 in Latin lookup 35 subtable" uni01CE.ss02
Substitution2: "'ss01' Style Set 1 in Latin lookup 34 subtable" uni01CE.ss01
AlternateSubs2: "'aalt' Access All Alternates in Latin lookup 1 subtable" uni01CE.ss01 uni01CE.ss02
EndChar

StartChar: acircumflex
Encoding: 226 226 175
Width: 539
GlyphClass: 2
Flags: MW
HStem: -12 30<177 268.5> -1 31<473.5 510> 512 30<215 318> 709 25<265 265>
VStem: 50 32<95 164 95 170> 422 32 424 30<204 287 287 287 316 326>
AnchorPoint: "Anchor-3" 264 530 basechar 0
AnchorPoint: "Anchor-2" 510 0 basechar 0
AnchorPoint: "Anchor-0" 264 0 basechar 0
LayerCount: 2
Fore
SplineSet
166 610 m 1xbc
 254 734 l 1
 276 734 l 1
 364 610 l 1
 336 610 l 1
 265 709 l 1
 194 610 l 1
 166 610 l 1xbc
220 -12 m 0
 118 -12 50 44 50 130 c 0
 50 210 117 258 211 276 c 2
 424 316 l 1xaa
 424 454 372 512 264 512 c 0
 166 512 107 461 92 370 c 1
 59 373 l 1
 77 481 149 542 264 542 c 0
 386 542 454 472 454 326 c 2
 454 100 l 2
 454 43 470 30 504 30 c 2
 510 30 l 1
 510 0 l 1
 504 -1 500 -1 495 -1 c 0x6c
 452 -1 425 18 422 108 c 1
 392 43 317 -12 220 -12 c 0
222 18 m 0
 338 18 424 98 424 204 c 2
 424 287 l 1
 220 248 l 2
 136 232 82 196 82 132 c 0
 82 58 132 18 222 18 c 0
EndSplineSet
Substitution2: "'ss02' Style Set 2 in Latin lookup 35 subtable" acircumflex.ss02
Substitution2: "'ss01' Style Set 1 in Latin lookup 34 subtable" acircumflex.ss01
AlternateSubs2: "'aalt' Access All Alternates in Latin lookup 1 subtable" acircumflex.ss01 acircumflex.ss02
EndChar

StartChar: adieresis
Encoding: 228 228 176
Width: 539
GlyphClass: 2
Flags: MW
HStem: -12 30<177 268.5> -1 31<473.5 510> 512 30<215 318> 628 70<183 217 183 217 311 345>
VStem: 50 32<95 164 95 170> 183 34<628 698 628 698> 311 34<628 698 628 698> 422 32 424 30<204 287 287 287 316 326>
AnchorPoint: "Anchor-3" 264 530 basechar 0
AnchorPoint: "Anchor-2" 510 0 basechar 0
AnchorPoint: "Anchor-0" 264 0 basechar 0
LayerCount: 2
Fore
SplineSet
183 628 m 1xbf
 183 698 l 1
 217 698 l 1
 217 628 l 1
 183 628 l 1xbf
311 628 m 1
 311 698 l 1
 345 698 l 1
 345 628 l 1
 311 628 l 1
220 -12 m 0
 118 -12 50 44 50 130 c 0
 50 210 117 258 211 276 c 2
 424 316 l 1xbe80
 424 454 372 512 264 512 c 0
 166 512 107 461 92 370 c 1
 59 373 l 1
 77 481 149 542 264 542 c 0
 386 542 454 472 454 326 c 2
 454 100 l 2
 454 43 470 30 504 30 c 2
 510 30 l 1
 510 0 l 1
 504 -1 500 -1 495 -1 c 0x7f
 452 -1 425 18 422 108 c 1
 392 43 317 -12 220 -12 c 0
222 18 m 0
 338 18 424 98 424 204 c 2
 424 287 l 1
 220 248 l 2
 136 232 82 196 82 132 c 0
 82 58 132 18 222 18 c 0
EndSplineSet
Substitution2: "'ss08' Style Set 8 in Latin lookup 41 subtable" adieresis.ss08
Substitution2: "'ss02' Style Set 2 in Latin lookup 35 subtable" adieresis.ss02
Substitution2: "'ss01' Style Set 1 in Latin lookup 34 subtable" adieresis.ss01
AlternateSubs2: "'aalt' Access All Alternates in Latin lookup 1 subtable" adieresis.ss01 adieresis.ss02 adieresis.ss08
EndChar

StartChar: agrave
Encoding: 224 224 177
Width: 539
GlyphClass: 2
Flags: MW
HStem: -12 30<177 268.5> -1 31<473.5 510> 512 30<215 318> 618 116<171 251 171 277>
VStem: 50 32<95 164 95 170> 422 32 424 30<204 287 287 287 316 326>
AnchorPoint: "Anchor-3" 264 530 basechar 0
AnchorPoint: "Anchor-2" 510 0 basechar 0
AnchorPoint: "Anchor-0" 264 0 basechar 0
LayerCount: 2
Fore
SplineSet
251 618 m 1xbc
 171 734 l 1
 205 734 l 1
 277 618 l 1
 251 618 l 1xbc
220 -12 m 0
 118 -12 50 44 50 130 c 0
 50 210 117 258 211 276 c 2
 424 316 l 1xaa
 424 454 372 512 264 512 c 0
 166 512 107 461 92 370 c 1
 59 373 l 1
 77 481 149 542 264 542 c 0
 386 542 454 472 454 326 c 2
 454 100 l 2
 454 43 470 30 504 30 c 2
 510 30 l 1
 510 0 l 1
 504 -1 500 -1 495 -1 c 0x6c
 452 -1 425 18 422 108 c 1
 392 43 317 -12 220 -12 c 0
222 18 m 0
 338 18 424 98 424 204 c 2
 424 287 l 1
 220 248 l 2
 136 232 82 196 82 132 c 0
 82 58 132 18 222 18 c 0
EndSplineSet
Substitution2: "'ss02' Style Set 2 in Latin lookup 35 subtable" agrave.ss02
Substitution2: "'ss01' Style Set 1 in Latin lookup 34 subtable" agrave.ss01
AlternateSubs2: "'aalt' Access All Alternates in Latin lookup 1 subtable" agrave.ss01 agrave.ss02
EndChar

StartChar: amacron
Encoding: 257 257 178
Width: 539
GlyphClass: 2
Flags: MW
HStem: -12 30<177 268.5> -1 31<473.5 510> 512 30<215 318> 644 28<140 388 140 388>
VStem: 50 32<95 164 95 170> 422 32 424 30<204 287 287 287 316 326>
AnchorPoint: "Anchor-3" 264 530 basechar 0
AnchorPoint: "Anchor-2" 510 0 basechar 0
AnchorPoint: "Anchor-0" 264 0 basechar 0
LayerCount: 2
Fore
SplineSet
140 644 m 1xbc
 140 672 l 1
 388 672 l 1
 388 644 l 1
 140 644 l 1xbc
220 -12 m 0
 118 -12 50 44 50 130 c 0
 50 210 117 258 211 276 c 2
 424 316 l 1xba
 424 454 372 512 264 512 c 0
 166 512 107 461 92 370 c 1
 59 373 l 1
 77 481 149 542 264 542 c 0
 386 542 454 472 454 326 c 2
 454 100 l 2
 454 43 470 30 504 30 c 2
 510 30 l 1
 510 0 l 1
 504 -1 500 -1 495 -1 c 0x7c
 452 -1 425 18 422 108 c 1
 392 43 317 -12 220 -12 c 0
222 18 m 0
 338 18 424 98 424 204 c 2
 424 287 l 1
 220 248 l 2
 136 232 82 196 82 132 c 0
 82 58 132 18 222 18 c 0
EndSplineSet
Substitution2: "'ss02' Style Set 2 in Latin lookup 35 subtable" amacron.ss02
Substitution2: "'ss01' Style Set 1 in Latin lookup 34 subtable" amacron.ss01
AlternateSubs2: "'aalt' Access All Alternates in Latin lookup 1 subtable" amacron.ss01 amacron.ss02
EndChar

StartChar: aogonek
Encoding: 261 261 179
Width: 539
GlyphClass: 2
Flags: MW
HStem: -192 26<479 500 479 503> -12 30<177 268.5> -1 31<485 510> 512 30<215 318>
VStem: 50 32<95 164 95 170> 420 30<-144.5 -116> 422 32 424 30<204 287 287 287 316 326> 485 25<-1 30>
AnchorPoint: "Anchor-3" 264 530 basechar 0
AnchorPoint: "Anchor-2" 510 0 basechar 0
AnchorPoint: "Anchor-0" 264 0 basechar 0
LayerCount: 2
Fore
SplineSet
220 -12 m 0xda
 118 -12 50 44 50 130 c 0
 50 210 117 258 211 276 c 2
 424 316 l 1xd9
 424 454 372 512 264 512 c 0
 166 512 107 461 92 370 c 1
 59 373 l 1
 77 481 149 542 264 542 c 0
 386 542 454 472 454 326 c 2
 454 100 l 2xba
 454 43 470 30 504 30 c 2
 510 30 l 1
 510 0 l 1
 484 -40 l 2
 464 -70 450 -98 450 -130 c 0
 450 -159 468 -166 490 -166 c 0
 510 -166 527 -160 539 -151 c 1
 553 -173 l 1
 535 -185 516 -192 490 -192 c 0
 452 -192 420 -176 420 -132 c 0xbc80
 420 -100 442 -65 468 -26 c 2
 485 -1 l 1xba80
 448 3 425 25 422 108 c 1
 392 43 317 -12 220 -12 c 0xda
222 18 m 0
 338 18 424 98 424 204 c 2
 424 287 l 1
 220 248 l 2
 136 232 82 196 82 132 c 0
 82 58 132 18 222 18 c 0
EndSplineSet
Substitution2: "'ss02' Style Set 2 in Latin lookup 35 subtable" aogonek.ss02
Substitution2: "'ss01' Style Set 1 in Latin lookup 34 subtable" aogonek.ss01
AlternateSubs2: "'aalt' Access All Alternates in Latin lookup 1 subtable" aogonek.ss01 aogonek.ss02
EndChar

StartChar: aring
Encoding: 229 229 180
Width: 539
GlyphClass: 2
Flags: MW
HStem: -12 30<177 268.5> -1 31<473.5 510> 512 30<215 318> 592 25<250 278 250 285> 708 26<250 278>
VStem: 50 32<95 164 95 170> 192 26<649 677 649 683.5> 309 26<649 677> 422 32 424 30<204 287 287 287 316 326>
AnchorPoint: "Anchor-3" 264 530 basechar 0
AnchorPoint: "Anchor-2" 510 0 basechar 0
AnchorPoint: "Anchor-0" 264 0 basechar 0
LayerCount: 2
Fore
SplineSet
264 592 m 0xbf80
 222 592 192 621 192 663 c 0
 192 704 222 734 264 734 c 0
 305 734 335 704 335 663 c 0
 335 622 306 592 264 592 c 0xbf80
264 617 m 0
 292 617 309 635 309 663 c 0
 309 691 292 708 264 708 c 0
 236 708 218 691 218 663 c 0
 218 635 236 617 264 617 c 0
220 -12 m 0
 118 -12 50 44 50 130 c 0
 50 210 117 258 211 276 c 2
 424 316 l 1xbf40
 424 454 372 512 264 512 c 0
 166 512 107 461 92 370 c 1
 59 373 l 1
 77 481 149 542 264 542 c 0
 386 542 454 472 454 326 c 2
 454 100 l 2
 454 43 470 30 504 30 c 2
 510 30 l 1
 510 0 l 1
 504 -1 500 -1 495 -1 c 0x7f80
 452 -1 425 18 422 108 c 1
 392 43 317 -12 220 -12 c 0
222 18 m 0
 338 18 424 98 424 204 c 2
 424 287 l 1
 220 248 l 2
 136 232 82 196 82 132 c 0
 82 58 132 18 222 18 c 0
EndSplineSet
Substitution2: "'ss02' Style Set 2 in Latin lookup 35 subtable" aring.ss02
Substitution2: "'ss01' Style Set 1 in Latin lookup 34 subtable" aring.ss01
AlternateSubs2: "'aalt' Access All Alternates in Latin lookup 1 subtable" aring.ss01 aring.ss02
EndChar

StartChar: atilde
Encoding: 227 227 181
Width: 539
GlyphClass: 2
Flags: MW
HStem: -12 30<177 268.5> -1 31<473.5 510> 512 30<215 318> 630 24<311 332 311 340> 690 24<186 213> 703 20G<363 389 389 389>
VStem: 50 32<95 164 95 170> 125 26<625 625> 363 26<723 723> 422 32 424 30<204 287 287 287 316 326>
AnchorPoint: "Anchor-3" 264 530 basechar 0
AnchorPoint: "Anchor-2" 510 0 basechar 0
AnchorPoint: "Anchor-0" 264 0 basechar 0
LayerCount: 2
Fore
SplineSet
319 630 m 0xb7c0
 291 630 274 641 255 662 c 0
 239 680 225 690 201 690 c 0
 171 690 153 669 151 625 c 1
 125 625 l 1
 129 681 159 714 201 714 c 0xbbc0
 233 714 253 699 273 678 c 0
 291 660 303 654 319 654 c 0
 345 654 359 673 363 723 c 1
 389 723 l 1
 385 665 361 630 319 630 c 0xb7c0
220 -12 m 0
 118 -12 50 44 50 130 c 0
 50 210 117 258 211 276 c 2
 424 316 l 1xbba0
 424 454 372 512 264 512 c 0
 166 512 107 461 92 370 c 1
 59 373 l 1
 77 481 149 542 264 542 c 0
 386 542 454 472 454 326 c 2
 454 100 l 2
 454 43 470 30 504 30 c 2
 510 30 l 1
 510 0 l 1
 504 -1 500 -1 495 -1 c 0x7bc0
 452 -1 425 18 422 108 c 1
 392 43 317 -12 220 -12 c 0
222 18 m 0
 338 18 424 98 424 204 c 2
 424 287 l 1
 220 248 l 2
 136 232 82 196 82 132 c 0
 82 58 132 18 222 18 c 0
EndSplineSet
Substitution2: "'ss02' Style Set 2 in Latin lookup 35 subtable" atilde.ss02
Substitution2: "'ss01' Style Set 1 in Latin lookup 34 subtable" atilde.ss01
AlternateSubs2: "'aalt' Access All Alternates in Latin lookup 1 subtable" atilde.ss01 atilde.ss02
EndChar

StartChar: ae
Encoding: 230 230 182
Width: 926
GlyphClass: 2
Flags: MW
HStem: -12 30<180.5 274.5 599.5 703> 260 28<458 843 458 876 458 843> 512 30<217.5 313 205 317.5 600.5 712>
VStem: 50 32<92.5 163 92.5 169.5> 424 34<260 260 260 267 260 267> 843 33<260 288>
AnchorPoint: "Anchor-3" 463 530 basechar 0
AnchorPoint: "Anchor-2" 800 39 basechar 0
AnchorPoint: "Anchor-0" 463 0 basechar 0
LayerCount: 2
Fore
SplineSet
223 -12 m 0
 116 -12 50 44 50 131 c 0
 50 208 113 261 211 272 c 2
 424 296 l 1
 424 453 367 512 268 512 c 0
 167 512 104 459 92 370 c 1
 59 373 l 1
 74 476 150 542 260 542 c 0
 366 542 428 493 448 396 c 1
 481 482 549 542 652 542 c 0
 804 542 876 416 876 272 c 2
 876 260 l 1
 458 260 l 1
 460 110 538 18 656 18 c 0
 750 18 810 69 832 145 c 1
 865 143 l 1
 839 53 764 -12 656 -12 c 0
 543 -12 471 58 441 155 c 1
 420 48 326 -12 223 -12 c 0
458 288 m 1
 843 288 l 1
 839 424 772 512 652 512 c 0
 540 512 465 427 458 288 c 1
222 18 m 0
 346 18 424 104 424 205 c 2
 424 267 l 1
 220 244 l 2
 132 234 82 195 82 131 c 0
 82 54 139 18 222 18 c 0
EndSplineSet
EndChar

StartChar: b
Encoding: 98 98 183
Width: 570
GlyphClass: 2
Flags: MW
HStem: -12 30<253 357 244 367> 0 21G<85 107 85 85> 512 30<255 357> 690 20G<85 115 115 115>
VStem: 85 23.5 85 30<192 336.5 400 710> 488 32<189 340>
AnchorPoint: "Anchor-3" 285 530 basechar 0
AnchorPoint: "Anchor-1" 143 265 basechar 0
AnchorPoint: "Anchor-0" 285 0 basechar 0
LayerCount: 2
Fore
SplineSet
299 -12 m 0xb6
 207 -12 139 53 110 134 c 1
 107 0 l 1x7a
 85 0 l 1x76
 85 710 l 1
 115 710 l 1
 115 400 l 1
 143 482 211 542 299 542 c 0
 435 542 520 433 520 265 c 0
 520 95 435 -12 299 -12 c 0xb6
299 18 m 0
 415 18 488 113 488 265 c 0
 488 415 415 512 299 512 c 0
 189 512 115 408 115 265 c 0xb6
 115 119 189 18 299 18 c 0
EndSplineSet
EndChar

StartChar: c
Encoding: 99 99 184
Width: 531
GlyphClass: 2
Flags: MW
HStem: -12 30<216 324 216 335> 512 30<216 324>
VStem: 50 32<190 340>
AnchorPoint: "Anchor-3" 275 530 basechar 0
AnchorPoint: "Anchor-0" 275 0 basechar 0
LayerCount: 2
Fore
SplineSet
275 -12 m 0
 125 -12 50 115 50 265 c 0
 50 415 125 542 275 542 c 0
 395 542 462 465 488 365 c 1
 456 363 l 1
 432 457 373 512 275 512 c 0
 157 512 82 417 82 265 c 0
 82 113 157 18 275 18 c 0
 373 18 439 78 459 178 c 1
 491 175 l 1
 467 67 395 -12 275 -12 c 0
EndSplineSet
EndChar

StartChar: cacute
Encoding: 263 263 185
Width: 531
GlyphClass: 2
Flags: MW
HStem: -12 30<216 324 216 335> 512 30<216 324> 610 116<261 367 261 367>
VStem: 50 32<190 340>
AnchorPoint: "Anchor-3" 275 530 basechar 0
AnchorPoint: "Anchor-0" 275 0 basechar 0
LayerCount: 2
Fore
SplineSet
261 610 m 1
 333 726 l 1
 367 726 l 1
 287 610 l 1
 261 610 l 1
275 -12 m 0
 125 -12 50 115 50 265 c 0
 50 415 125 542 275 542 c 0
 395 542 462 465 488 365 c 1
 456 363 l 1
 432 457 373 512 275 512 c 0
 157 512 82 417 82 265 c 0
 82 113 157 18 275 18 c 0
 373 18 439 78 459 178 c 1
 491 175 l 1
 467 67 395 -12 275 -12 c 0
EndSplineSet
EndChar

StartChar: ccaron
Encoding: 269 269 186
Width: 531
GlyphClass: 2
Flags: MW
HStem: -12 30<216 324 216 335> 512 30<216 324> 610 25<275 275 275 286 264 275>
VStem: 50 32<190 340>
AnchorPoint: "Anchor-3" 275 530 basechar 0
AnchorPoint: "Anchor-0" 275 0 basechar 0
LayerCount: 2
Fore
SplineSet
176 734 m 1
 204 734 l 1
 275 635 l 1
 346 734 l 1
 374 734 l 1
 286 610 l 1
 264 610 l 1
 176 734 l 1
275 -12 m 0
 125 -12 50 115 50 265 c 0
 50 415 125 542 275 542 c 0
 395 542 462 465 488 365 c 1
 456 363 l 1
 432 457 373 512 275 512 c 0
 157 512 82 417 82 265 c 0
 82 113 157 18 275 18 c 0
 373 18 439 78 459 178 c 1
 491 175 l 1
 467 67 395 -12 275 -12 c 0
EndSplineSet
EndChar

StartChar: ccedilla
Encoding: 231 231 187
Width: 531
GlyphClass: 2
Flags: MW
HStem: -204 26<244 286 244 295> -72 24<263 263 263 278.5> -11 29<255 255> 512 30<216 324>
VStem: 50 32<193.5 340> 333 28<-143 -106.5>
AnchorPoint: "Anchor-3" 275 530 basechar 0
AnchorPoint: "Anchor-0" 275 0 basechar 0
LayerCount: 2
Fore
SplineSet
267 -204 m 0
 217 -204 183 -182 171 -144 c 1
 195 -134 l 1
 203 -160 223 -178 265 -178 c 0
 307 -178 333 -162 333 -124 c 0
 333 -89 310 -72 247 -72 c 1
 233 -54 l 1
 255 -11 l 1
 118 0 50 122 50 265 c 0
 50 415 125 542 275 542 c 0
 395 542 462 465 488 365 c 1
 456 363 l 1
 432 457 373 512 275 512 c 0
 157 512 82 417 82 265 c 0
 82 113 157 18 275 18 c 0
 373 18 439 78 459 178 c 1
 491 175 l 1
 468 69 398 -9 282 -12 c 1
 263 -48 l 1
 325 -50 361 -74 361 -126 c 0
 361 -176 323 -204 267 -204 c 0
EndSplineSet
EndChar

StartChar: ccircumflex
Encoding: 265 265 188
Width: 531
GlyphClass: 2
Flags: MW
HStem: -12 30<216 324 216 335> 512 30<216 324> 709 25<276 276>
VStem: 50 32<190 340>
AnchorPoint: "Anchor-3" 275 530 basechar 0
AnchorPoint: "Anchor-0" 275 0 basechar 0
LayerCount: 2
Fore
SplineSet
177 610 m 1
 265 734 l 1
 287 734 l 1
 375 610 l 1
 347 610 l 1
 276 709 l 1
 205 610 l 1
 177 610 l 1
275 -12 m 0
 125 -12 50 115 50 265 c 0
 50 415 125 542 275 542 c 0
 395 542 462 465 488 365 c 1
 456 363 l 1
 432 457 373 512 275 512 c 0
 157 512 82 417 82 265 c 0
 82 113 157 18 275 18 c 0
 373 18 439 78 459 178 c 1
 491 175 l 1
 467 67 395 -12 275 -12 c 0
EndSplineSet
EndChar

StartChar: cdotaccent
Encoding: 267 267 189
Width: 531
GlyphClass: 2
Flags: MW
HStem: -12 30<216 324 216 335> 512 30<216 324> 628 70<258 292 258 292>
VStem: 50 32<190 340> 258 34<628 698 628 698>
AnchorPoint: "Anchor-3" 275 530 basechar 0
AnchorPoint: "Anchor-0" 275 0 basechar 0
LayerCount: 2
Fore
SplineSet
258 628 m 1
 258 698 l 1
 292 698 l 1
 292 628 l 1
 258 628 l 1
275 -12 m 0
 125 -12 50 115 50 265 c 0
 50 415 125 542 275 542 c 0
 395 542 462 465 488 365 c 1
 456 363 l 1
 432 457 373 512 275 512 c 0
 157 512 82 417 82 265 c 0
 82 113 157 18 275 18 c 0
 373 18 439 78 459 178 c 1
 491 175 l 1
 467 67 395 -12 275 -12 c 0
EndSplineSet
Substitution2: "'ss08' Style Set 8 in Latin lookup 41 subtable" cdotaccent.ss08
Substitution2: "'aalt' Access All Alternates in Latin lookup 0 subtable" cdotaccent.ss08
EndChar

StartChar: d
Encoding: 100 100 190
Width: 570
GlyphClass: 2
Flags: MW
HStem: -12 30<213 312> 0 21G<463 485 463 463> 512 30<213 316.5 202 327> 690 20G<455 485 485 485>
VStem: 50 32<190 340 190 350> 455 30<192 334 400 710 0 710> 461.5 23.5
AnchorPoint: "Anchor-4" 535 530 basechar 0
AnchorPoint: "Anchor-3" 285 530 basechar 0
AnchorPoint: "Anchor-1" 431 618 basechar 0
AnchorPoint: "Anchor-0" 285 0 basechar 0
LayerCount: 2
Fore
SplineSet
271 -12 m 0xba
 133 -12 50 95 50 265 c 0
 50 435 133 542 271 542 c 0
 362 542 431 482 455 400 c 1
 455 710 l 1
 485 710 l 1
 485 0 l 1x7c
 463 0 l 1x7a
 460 138 l 1
 430 44 353 -12 271 -12 c 0xba
271 18 m 0
 383 18 455 119 455 265 c 0
 455 403 383 512 271 512 c 0
 155 512 82 415 82 265 c 0xbc
 82 115 155 18 271 18 c 0
EndSplineSet
EndChar

StartChar: dcaron
Encoding: 271 271 191
Width: 621
GlyphClass: 2
Flags: MW
HStem: -12 30<213 312> 0 21G<463 485 463 463> 512 30<213 316.5 202 327> 690 20G<455 485 485 485 589 621 621 621>
VStem: 50 32<190 340 190 350> 455 30<192 334 400 710 0 710> 461.5 23.5
AnchorPoint: "Anchor-4" 535 530 basechar 0
AnchorPoint: "Anchor-3" 285 530 basechar 0
AnchorPoint: "Anchor-1" 431 618 basechar 0
AnchorPoint: "Anchor-0" 285 0 basechar 0
LayerCount: 2
Fore
SplineSet
271 -12 m 0xba
 133 -12 50 95 50 265 c 0
 50 435 133 542 271 542 c 0
 362 542 431 482 455 400 c 1
 455 710 l 1
 485 710 l 1
 485 0 l 1x7c
 463 0 l 1x7a
 460 138 l 1
 430 44 353 -12 271 -12 c 0xba
555 502 m 1
 589 710 l 1
 621 710 l 1
 581 502 l 1
 555 502 l 1
271 18 m 0
 383 18 455 119 455 265 c 0
 455 403 383 512 271 512 c 0
 155 512 82 415 82 265 c 0xbc
 82 115 155 18 271 18 c 0
EndSplineSet
EndChar

StartChar: dcroat
Encoding: 273 273 192
Width: 570
GlyphClass: 2
Flags: MW
HStem: -12 30<213 312> 0 21G<463 485 463 463> 512 30<213 316.5 202 327> 605 26<301 455 301 455 485 561> 605 105<301 485 455 485 455 561>
VStem: 50 32<190 340 190 350> 455 30<192 334 400 605 0 605 631 710> 461.5 23.5
AnchorPoint: "Anchor-4" 535 530 basechar 0
AnchorPoint: "Anchor-3" 285 530 basechar 0
AnchorPoint: "Anchor-1" 431 618 basechar 0
AnchorPoint: "Anchor-0" 285 0 basechar 0
LayerCount: 2
Fore
SplineSet
271 -12 m 0xb5
 133 -12 50 95 50 265 c 0
 50 435 133 542 271 542 c 0
 362 542 431 482 455 400 c 1
 455 605 l 1
 301 605 l 1
 301 631 l 1
 455 631 l 1xb6
 455 710 l 1
 485 710 l 1xae
 485 631 l 1
 561 631 l 1
 561 605 l 1
 485 605 l 1
 485 0 l 1x76
 463 0 l 1x75
 460 138 l 1
 430 44 353 -12 271 -12 c 0xb5
271 18 m 0
 383 18 455 119 455 265 c 0
 455 403 383 512 271 512 c 0
 155 512 82 415 82 265 c 0
 82 115 155 18 271 18 c 0
EndSplineSet
EndChar

StartChar: eth
Encoding: 240 240 193
Width: 550
GlyphClass: 1
Flags: MW
HStem: -12 30<215.5 334.5 215.5 342.5> 472 30<215.5 315.5 207.5 334.5> 702 20G<168 168>
VStem: 50 32<174 316 174 325> 468 32<179 321>
LayerCount: 2
Fore
SplineSet
275 -12 m 0
 140 -12 50 85 50 245 c 0
 50 405 140 502 275 502 c 0
 356 502 421 463 460 402 c 1
 444 489 411 557 355 606 c 1
 232 562 l 1
 222 590 l 1
 328 628 l 1
 283 659 227 681 158 694 c 1
 168 722 l 1
 248 704 311 676 359 639 c 1
 520 697 l 1
 530 669 l 1
 385 617 l 1
 470 536 500 416 500 255 c 0
 500 85 410 -12 275 -12 c 0
275 18 m 0
 394 18 468 103 468 255 c 0
 468 387 394 472 275 472 c 0
 156 472 82 387 82 245 c 0
 82 103 156 18 275 18 c 0
EndSplineSet
EndChar

StartChar: e
Encoding: 101 101 194
Width: 550
GlyphClass: 2
Flags: MW
HStem: -12 30<221 327 221 334> 260 28<82 467 82 500 82 467> 512 30<220 336>
VStem: 50 32<260 260 260 288 260 340> 467 33<260 288>
AnchorPoint: "Anchor-3" 275 530 basechar 0
AnchorPoint: "Anchor-2" 424 39 basechar 0
AnchorPoint: "Anchor-0" 275 0 basechar 0
LayerCount: 2
Fore
SplineSet
280 -12 m 0
 128 -12 50 115 50 265 c 0
 50 415 126 542 276 542 c 0
 428 542 500 416 500 272 c 2
 500 260 l 1
 82 260 l 1
 84 110 162 18 280 18 c 0
 374 18 434 69 456 145 c 1
 489 143 l 1
 463 53 388 -12 280 -12 c 0
82 288 m 1
 467 288 l 1
 463 424 396 512 276 512 c 0
 164 512 89 427 82 288 c 1
EndSplineSet
EndChar

StartChar: eacute
Encoding: 233 233 195
Width: 550
GlyphClass: 2
Flags: MW
HStem: -12 30<221 327 221 334> 260 28<82 467 82 500 82 467> 512 30<220 336> 610 116<261 367 261 367>
VStem: 50 32<260 260 260 288 260 340> 467 33<260 288>
AnchorPoint: "Anchor-3" 275 530 basechar 0
AnchorPoint: "Anchor-2" 424 39 basechar 0
AnchorPoint: "Anchor-0" 275 0 basechar 0
LayerCount: 2
Fore
SplineSet
261 610 m 1
 333 726 l 1
 367 726 l 1
 287 610 l 1
 261 610 l 1
280 -12 m 0
 128 -12 50 115 50 265 c 0
 50 415 126 542 276 542 c 0
 428 542 500 416 500 272 c 2
 500 260 l 1
 82 260 l 1
 84 110 162 18 280 18 c 0
 374 18 434 69 456 145 c 1
 489 143 l 1
 463 53 388 -12 280 -12 c 0
82 288 m 1
 467 288 l 1
 463 424 396 512 276 512 c 0
 164 512 89 427 82 288 c 1
EndSplineSet
EndChar

StartChar: ecaron
Encoding: 283 283 196
Width: 550
GlyphClass: 2
Flags: MW
HStem: -12 30<221 327 221 334> 260 28<82 467 82 500 82 467> 512 30<220 336> 610 25<275 275 275 286 264 275>
VStem: 50 32<260 260 260 288 260 340> 467 33<260 288>
AnchorPoint: "Anchor-3" 275 530 basechar 0
AnchorPoint: "Anchor-2" 424 39 basechar 0
AnchorPoint: "Anchor-0" 275 0 basechar 0
LayerCount: 2
Fore
SplineSet
176 734 m 1
 204 734 l 1
 275 635 l 1
 346 734 l 1
 374 734 l 1
 286 610 l 1
 264 610 l 1
 176 734 l 1
280 -12 m 0
 128 -12 50 115 50 265 c 0
 50 415 126 542 276 542 c 0
 428 542 500 416 500 272 c 2
 500 260 l 1
 82 260 l 1
 84 110 162 18 280 18 c 0
 374 18 434 69 456 145 c 1
 489 143 l 1
 463 53 388 -12 280 -12 c 0
82 288 m 1
 467 288 l 1
 463 424 396 512 276 512 c 0
 164 512 89 427 82 288 c 1
EndSplineSet
EndChar

StartChar: ecircumflex
Encoding: 234 234 197
Width: 550
GlyphClass: 2
Flags: MW
HStem: -12 30<221 327 221 334> 260 28<82 467 82 500 82 467> 512 30<220 336> 709 25<276 276>
VStem: 50 32<260 260 260 288 260 340> 467 33<260 288>
AnchorPoint: "Anchor-3" 275 530 basechar 0
AnchorPoint: "Anchor-2" 424 39 basechar 0
AnchorPoint: "Anchor-0" 275 0 basechar 0
LayerCount: 2
Fore
SplineSet
177 610 m 1
 265 734 l 1
 287 734 l 1
 375 610 l 1
 347 610 l 1
 276 709 l 1
 205 610 l 1
 177 610 l 1
280 -12 m 0
 128 -12 50 115 50 265 c 0
 50 415 126 542 276 542 c 0
 428 542 500 416 500 272 c 2
 500 260 l 1
 82 260 l 1
 84 110 162 18 280 18 c 0
 374 18 434 69 456 145 c 1
 489 143 l 1
 463 53 388 -12 280 -12 c 0
82 288 m 1
 467 288 l 1
 463 424 396 512 276 512 c 0
 164 512 89 427 82 288 c 1
EndSplineSet
EndChar

StartChar: edieresis
Encoding: 235 235 198
Width: 550
GlyphClass: 2
Flags: MW
HStem: -12 30<221 327 221 334> 260 28<82 467 82 500 82 467> 512 30<220 336> 628 70<194 228 194 228 322 356>
VStem: 50 32<260 260 260 288 260 340> 194 34<628 698 628 698> 322 34<628 698 628 698> 467 33<260 288>
AnchorPoint: "Anchor-3" 275 530 basechar 0
AnchorPoint: "Anchor-2" 424 39 basechar 0
AnchorPoint: "Anchor-0" 275 0 basechar 0
LayerCount: 2
Fore
SplineSet
194 628 m 1
 194 698 l 1
 228 698 l 1
 228 628 l 1
 194 628 l 1
322 628 m 1
 322 698 l 1
 356 698 l 1
 356 628 l 1
 322 628 l 1
280 -12 m 0
 128 -12 50 115 50 265 c 0
 50 415 126 542 276 542 c 0
 428 542 500 416 500 272 c 2
 500 260 l 1
 82 260 l 1
 84 110 162 18 280 18 c 0
 374 18 434 69 456 145 c 1
 489 143 l 1
 463 53 388 -12 280 -12 c 0
82 288 m 1
 467 288 l 1
 463 424 396 512 276 512 c 0
 164 512 89 427 82 288 c 1
EndSplineSet
Substitution2: "'ss08' Style Set 8 in Latin lookup 41 subtable" edieresis.ss08
Substitution2: "'aalt' Access All Alternates in Latin lookup 0 subtable" edieresis.ss08
EndChar

StartChar: edotaccent
Encoding: 279 279 199
Width: 550
GlyphClass: 2
Flags: MW
HStem: -12 30<221 327 221 334> 260 28<82 467 82 500 82 467> 512 30<220 336> 628 70<258 292 258 292>
VStem: 50 32<260 260 260 288 260 340> 258 34<628 698 628 698> 467 33<260 288>
AnchorPoint: "Anchor-3" 275 530 basechar 0
AnchorPoint: "Anchor-2" 424 39 basechar 0
AnchorPoint: "Anchor-0" 275 0 basechar 0
LayerCount: 2
Fore
SplineSet
258 628 m 1
 258 698 l 1
 292 698 l 1
 292 628 l 1
 258 628 l 1
280 -12 m 0
 128 -12 50 115 50 265 c 0
 50 415 126 542 276 542 c 0
 428 542 500 416 500 272 c 2
 500 260 l 1
 82 260 l 1
 84 110 162 18 280 18 c 0
 374 18 434 69 456 145 c 1
 489 143 l 1
 463 53 388 -12 280 -12 c 0
82 288 m 1
 467 288 l 1
 463 424 396 512 276 512 c 0
 164 512 89 427 82 288 c 1
EndSplineSet
Substitution2: "'ss08' Style Set 8 in Latin lookup 41 subtable" edotaccent.ss08
Substitution2: "'aalt' Access All Alternates in Latin lookup 0 subtable" edotaccent.ss08
EndChar

StartChar: egrave
Encoding: 232 232 200
Width: 550
GlyphClass: 2
Flags: MW
HStem: -12 30<221 327 221 334> 260 28<82 467 82 500 82 467> 512 30<220 336> 618 116<182 262 182 288>
VStem: 50 32<260 260 260 288 260 340> 467 33<260 288>
AnchorPoint: "Anchor-3" 275 530 basechar 0
AnchorPoint: "Anchor-2" 424 39 basechar 0
AnchorPoint: "Anchor-0" 275 0 basechar 0
LayerCount: 2
Fore
SplineSet
262 618 m 1
 182 734 l 1
 216 734 l 1
 288 618 l 1
 262 618 l 1
280 -12 m 0
 128 -12 50 115 50 265 c 0
 50 415 126 542 276 542 c 0
 428 542 500 416 500 272 c 2
 500 260 l 1
 82 260 l 1
 84 110 162 18 280 18 c 0
 374 18 434 69 456 145 c 1
 489 143 l 1
 463 53 388 -12 280 -12 c 0
82 288 m 1
 467 288 l 1
 463 424 396 512 276 512 c 0
 164 512 89 427 82 288 c 1
EndSplineSet
EndChar

StartChar: emacron
Encoding: 275 275 201
Width: 550
GlyphClass: 2
Flags: MW
HStem: -12 30<221 327 221 334> 260 28<82 467 82 500 82 467> 512 30<220 336> 644 28<151 399 151 399>
VStem: 50 32<260 260 260 288 260 340> 467 33<260 288>
AnchorPoint: "Anchor-3" 275 530 basechar 0
AnchorPoint: "Anchor-2" 424 39 basechar 0
AnchorPoint: "Anchor-0" 275 0 basechar 0
LayerCount: 2
Fore
SplineSet
151 644 m 1
 151 672 l 1
 399 672 l 1
 399 644 l 1
 151 644 l 1
280 -12 m 0
 128 -12 50 115 50 265 c 0
 50 415 126 542 276 542 c 0
 428 542 500 416 500 272 c 2
 500 260 l 1
 82 260 l 1
 84 110 162 18 280 18 c 0
 374 18 434 69 456 145 c 1
 489 143 l 1
 463 53 388 -12 280 -12 c 0
82 288 m 1
 467 288 l 1
 463 424 396 512 276 512 c 0
 164 512 89 427 82 288 c 1
EndSplineSet
EndChar

StartChar: eogonek
Encoding: 281 281 202
Width: 550
GlyphClass: 2
Flags: MW
HStem: -192 26<380 403 380 405> -12 30<221 298> 260 28<82 467 82 500 82 467> 512 30<220 336>
VStem: 50 32<260 260 260 288 260 340> 318 30<-134 -98 -134 -96> 467 33<260 288>
AnchorPoint: "Anchor-3" 275 530 basechar 0
AnchorPoint: "Anchor-2" 424 39 basechar 0
AnchorPoint: "Anchor-0" 275 0 basechar 0
LayerCount: 2
Fore
SplineSet
280 -12 m 0
 128 -12 50 115 50 265 c 0
 50 415 126 542 276 542 c 0
 428 542 500 416 500 272 c 2
 500 260 l 1
 82 260 l 1
 84 110 162 18 280 18 c 0
 374 18 434 69 456 145 c 1
 489 143 l 1
 481 114 467 87 448 64 c 2
 392 -8 l 2
 366 -41 348 -80 348 -116 c 0
 348 -152 366 -166 394 -166 c 0
 412 -166 429 -160 441 -151 c 1
 455 -173 l 1
 437 -185 418 -192 392 -192 c 0
 352 -192 318 -173 318 -120 c 0
 318 -72 344 -32 370 0 c 2
 377 8 l 1
 349 -5 316 -12 280 -12 c 0
82 288 m 1
 467 288 l 1
 463 424 396 512 276 512 c 0
 164 512 89 427 82 288 c 1
EndSplineSet
EndChar

StartChar: uni1EBD
Encoding: 7869 7869 203
Width: 550
GlyphClass: 2
Flags: MW
HStem: -12 30<221 327 221 334> 260 28<82 467 82 500 82 467> 512 30<220 336> 630 24<322 343 322 351> 690 24<197 224> 703 20G<374 400 400 400>
VStem: 50 32<260 260 260 288 260 340> 136 26<625 625> 374 26<723 723> 467 33<260 288>
AnchorPoint: "Anchor-3" 275 530 basechar 0
AnchorPoint: "Anchor-2" 424 39 basechar 0
AnchorPoint: "Anchor-0" 275 0 basechar 0
LayerCount: 2
Fore
SplineSet
330 630 m 0xf7c0
 302 630 285 641 266 662 c 0
 250 680 236 690 212 690 c 0
 182 690 164 669 162 625 c 1
 136 625 l 1
 140 681 170 714 212 714 c 0xfbc0
 244 714 264 699 284 678 c 0
 302 660 314 654 330 654 c 0
 356 654 370 673 374 723 c 1
 400 723 l 1
 396 665 372 630 330 630 c 0xf7c0
280 -12 m 0
 128 -12 50 115 50 265 c 0
 50 415 126 542 276 542 c 0
 428 542 500 416 500 272 c 2
 500 260 l 1
 82 260 l 1
 84 110 162 18 280 18 c 0
 374 18 434 69 456 145 c 1
 489 143 l 1
 463 53 388 -12 280 -12 c 0
82 288 m 1
 467 288 l 1
 463 424 396 512 276 512 c 0
 164 512 89 427 82 288 c 1
EndSplineSet
EndChar

StartChar: uni0259
Encoding: 601 601 204
Width: 550
GlyphClass: 2
Flags: MW
HStem: -12 30<214 330 214 349> 242 28<83 468 83 83> 512 30<223 329>
VStem: 50 33<242 270 242 270> 468 32<242 242 270 270>
AnchorPoint: "Anchor-3" 275 530 basechar 0
AnchorPoint: "Anchor-2" 126 491 basechar 0
AnchorPoint: "Anchor-0" 275 0 basechar 0
LayerCount: 2
Fore
SplineSet
270 542 m 0
 422 542 500 415 500 265 c 0
 500 115 424 -12 274 -12 c 0
 122 -12 50 114 50 258 c 2
 50 270 l 1
 468 270 l 1
 466 420 388 512 270 512 c 0
 176 512 116 461 94 385 c 1
 61 387 l 1
 87 477 162 542 270 542 c 0
468 242 m 1
 83 242 l 1
 87 106 154 18 274 18 c 0
 386 18 461 103 468 242 c 1
EndSplineSet
EndChar

StartChar: f
Encoding: 102 102 205
Width: 364
GlyphClass: 2
Flags: MW
HStem: 0 21G<146 146 146 176> 502 28<65 146 65 146 176 319> 682 28<260 264 264 319>
VStem: 146 30<0 502 0 502 530 597> 146 173<0 530 502 530 502 600 502 634.5>
AnchorPoint: "Anchor-3" 182 710 basechar 0
AnchorPoint: "Anchor-0" 182 0 basechar 0
LayerCount: 2
Fore
SplineSet
146 0 m 1xf0
 146 502 l 1
 65 502 l 1
 65 530 l 1
 146 530 l 1
 146 600 l 2xf0
 146 669 185 710 260 710 c 2
 319 710 l 1
 319 682 l 1xe8
 264 682 l 2
 200 682 176 650 176 597 c 2
 176 530 l 1xf0
 319 530 l 1
 319 502 l 1xe8
 176 502 l 1
 176 0 l 1
 146 0 l 1xf0
EndSplineSet
EndChar

StartChar: g
Encoding: 103 103 206
Width: 570
GlyphClass: 2
Flags: MW
HStem: -162 30<223 329.5 223 338> -6 21G<76 76> 25 30<212 314> 510 20G<455 485 485 485> 512 30<212 315 202 325>
VStem: 50 32<214.5 354 214.5 363> 76 32<-6 -4> 455 30<57 159 159 159 214.5 350 402 530>
AnchorPoint: "Anchor-3" 271 530 basechar 0
AnchorPoint: "Anchor-0" 272 -150 basechar 0
LayerCount: 2
Fore
SplineSet
272 -162 m 0xf5
 161 -162 80 -96 76 -6 c 1
 108 -4 l 1xeb
 112 -80 174 -132 272 -132 c 0
 387 -132 455 -63 455 57 c 2
 455 159 l 1
 423 79 359 25 269 25 c 0
 135 25 50 125 50 285 c 0
 50 441 135 542 269 542 c 0xed
 361 542 427 482 455 402 c 1
 455 530 l 1
 485 530 l 1
 485 55 l 2
 485 -80 404 -162 272 -162 c 0xf5
269 55 m 0
 381 55 455 144 455 285 c 0
 455 415 381 512 269 512 c 0
 155 512 82 423 82 285 c 0xed
 82 144 155 55 269 55 c 0
EndSplineSet
EndChar

StartChar: gbreve
Encoding: 287 287 207
Width: 570
GlyphClass: 2
Flags: MW
HStem: -162 30<223 329.5 223 338> -6 21G<76 76> 25 30<212 314> 510 20G<455 485 485 485> 512 30<212 315 202 325> 618 28<245 297 245 306>
VStem: 50 32<214.5 354 214.5 363> 76 32<-6 -4> 455 30<57 159 159 159 214.5 350 402 530>
AnchorPoint: "Anchor-3" 271 530 basechar 0
AnchorPoint: "Anchor-0" 272 -150 basechar 0
LayerCount: 2
Fore
SplineSet
271 618 m 0xf680
 201 618 157 664 147 734 c 1
 173 734 l 1
 181 676 219 646 271 646 c 0
 323 646 361 676 369 734 c 1
 395 734 l 1
 385 664 341 618 271 618 c 0xf680
272 -162 m 0
 161 -162 80 -96 76 -6 c 1
 108 -4 l 1xed80
 112 -80 174 -132 272 -132 c 0
 387 -132 455 -63 455 57 c 2
 455 159 l 1
 423 79 359 25 269 25 c 0
 135 25 50 125 50 285 c 0
 50 441 135 542 269 542 c 0xee80
 361 542 427 482 455 402 c 1
 455 530 l 1
 485 530 l 1
 485 55 l 2
 485 -80 404 -162 272 -162 c 0
269 55 m 0
 381 55 455 144 455 285 c 0
 455 415 381 512 269 512 c 0
 155 512 82 423 82 285 c 0xee80
 82 144 155 55 269 55 c 0
EndSplineSet
EndChar

StartChar: gcaron
Encoding: 487 487 208
Width: 570
GlyphClass: 2
Flags: MW
HStem: -162 30<223 329.5 223 338> -6 21G<76 76> 25 30<212 314> 510 20G<455 485 485 485> 512 30<212 315 202 325> 610 25<271 271 271 282 260 271>
VStem: 50 32<214.5 354 214.5 363> 76 32<-6 -4> 455 30<57 159 159 159 214.5 350 402 530>
AnchorPoint: "Anchor-3" 271 530 basechar 0
AnchorPoint: "Anchor-0" 272 -150 basechar 0
LayerCount: 2
Fore
SplineSet
172 734 m 1xf680
 200 734 l 1
 271 635 l 1
 342 734 l 1
 370 734 l 1
 282 610 l 1
 260 610 l 1
 172 734 l 1xf680
272 -162 m 0
 161 -162 80 -96 76 -6 c 1
 108 -4 l 1xed80
 112 -80 174 -132 272 -132 c 0
 387 -132 455 -63 455 57 c 2
 455 159 l 1
 423 79 359 25 269 25 c 0
 135 25 50 125 50 285 c 0
 50 441 135 542 269 542 c 0xee80
 361 542 427 482 455 402 c 1
 455 530 l 1
 485 530 l 1
 485 55 l 2
 485 -80 404 -162 272 -162 c 0
269 55 m 0
 381 55 455 144 455 285 c 0
 455 415 381 512 269 512 c 0
 155 512 82 423 82 285 c 0xee80
 82 144 155 55 269 55 c 0
EndSplineSet
EndChar

StartChar: gcircumflex
Encoding: 285 285 209
Width: 570
GlyphClass: 2
Flags: MW
HStem: -162 30<223 329.5 223 338> -6 21G<76 76> 25 30<212 314> 510 20G<455 485 485 485> 512 30<212 315 202 325> 709 25<272 272>
VStem: 50 32<214.5 354 214.5 363> 76 32<-6 -4> 455 30<57 159 159 159 214.5 350 402 530>
AnchorPoint: "Anchor-3" 271 530 basechar 0
AnchorPoint: "Anchor-0" 272 -150 basechar 0
LayerCount: 2
Fore
SplineSet
173 610 m 1xf680
 261 734 l 1
 283 734 l 1
 371 610 l 1
 343 610 l 1
 272 709 l 1
 201 610 l 1
 173 610 l 1xf680
272 -162 m 0
 161 -162 80 -96 76 -6 c 1
 108 -4 l 1xed80
 112 -80 174 -132 272 -132 c 0
 387 -132 455 -63 455 57 c 2
 455 159 l 1
 423 79 359 25 269 25 c 0
 135 25 50 125 50 285 c 0
 50 441 135 542 269 542 c 0xee80
 361 542 427 482 455 402 c 1
 455 530 l 1
 485 530 l 1
 485 55 l 2
 485 -80 404 -162 272 -162 c 0
269 55 m 0
 381 55 455 144 455 285 c 0
 455 415 381 512 269 512 c 0
 155 512 82 423 82 285 c 0xee80
 82 144 155 55 269 55 c 0
EndSplineSet
EndChar

StartChar: uni0123
Encoding: 291 291 210
Width: 570
GlyphClass: 2
Flags: MW
HStem: -162 30<223 329.5 223 338> -6 21G<76 76> 25 30<212 314> 510 20G<455 485 485 485> 512 30<212 315 202 325> 618 48<245 295 271 295 271 295>
VStem: 50 32<214.5 354 214.5 363> 76 32<-6 -4> 245 50<618 661 661 661> 455 30<57 159 159 159 214.5 350 402 530>
AnchorPoint: "Anchor-3" 271 530 basechar 0
AnchorPoint: "Anchor-0" 272 -150 basechar 0
LayerCount: 2
Fore
SplineSet
245 618 m 1xf6c0
 245 661 l 1
 285 741 l 1
 307 741 l 1
 271 666 l 1
 295 666 l 1
 295 618 l 1
 245 618 l 1xf6c0
272 -162 m 0
 161 -162 80 -96 76 -6 c 1
 108 -4 l 1xedc0
 112 -80 174 -132 272 -132 c 0
 387 -132 455 -63 455 57 c 2
 455 159 l 1
 423 79 359 25 269 25 c 0
 135 25 50 125 50 285 c 0
 50 441 135 542 269 542 c 0xeec0
 361 542 427 482 455 402 c 1
 455 530 l 1
 485 530 l 1
 485 55 l 2
 485 -80 404 -162 272 -162 c 0
269 55 m 0
 381 55 455 144 455 285 c 0
 455 415 381 512 269 512 c 0
 155 512 82 423 82 285 c 0xeec0
 82 144 155 55 269 55 c 0
EndSplineSet
EndChar

StartChar: gdotaccent
Encoding: 289 289 211
Width: 570
GlyphClass: 2
Flags: MW
HStem: -162 30<223 329.5 223 338> -6 21G<76 76> 25 30<212 314> 510 20G<455 485 485 485> 512 30<212 315 202 325> 628 70<254 288 254 288>
VStem: 50 32<214.5 354 214.5 363> 76 32<-6 -4> 254 34<628 698 628 698> 455 30<57 159 159 159 214.5 350 402 530>
AnchorPoint: "Anchor-3" 271 530 basechar 0
AnchorPoint: "Anchor-0" 272 -150 basechar 0
LayerCount: 2
Fore
SplineSet
254 628 m 1xf6c0
 254 698 l 1
 288 698 l 1
 288 628 l 1
 254 628 l 1xf6c0
272 -162 m 0
 161 -162 80 -96 76 -6 c 1
 108 -4 l 1xedc0
 112 -80 174 -132 272 -132 c 0
 387 -132 455 -63 455 57 c 2
 455 159 l 1
 423 79 359 25 269 25 c 0
 135 25 50 125 50 285 c 0
 50 441 135 542 269 542 c 0xeec0
 361 542 427 482 455 402 c 1
 455 530 l 1
 485 530 l 1
 485 55 l 2
 485 -80 404 -162 272 -162 c 0
269 55 m 0
 381 55 455 144 455 285 c 0
 455 415 381 512 269 512 c 0
 155 512 82 423 82 285 c 0xeec0
 82 144 155 55 269 55 c 0
EndSplineSet
Substitution2: "'ss08' Style Set 8 in Latin lookup 41 subtable" gdotaccent.ss08
Substitution2: "'aalt' Access All Alternates in Latin lookup 0 subtable" gdotaccent.ss08
EndChar

StartChar: uni1E21
Encoding: 7713 7713 212
Width: 570
GlyphClass: 2
Flags: MW
HStem: -162 30<223 329.5 223 338> -6 21G<76 76> 25 30<212 314> 510 20G<455 485 485 485> 512 30<212 315 202 325> 644 28<147 395 147 395>
VStem: 50 32<214.5 354 214.5 363> 76 32<-6 -4> 455 30<57 159 159 159 214.5 350 402 530>
AnchorPoint: "Anchor-3" 271 530 basechar 0
AnchorPoint: "Anchor-0" 272 -150 basechar 0
LayerCount: 2
Fore
SplineSet
147 644 m 1xf680
 147 672 l 1
 395 672 l 1
 395 644 l 1
 147 644 l 1xf680
272 -162 m 0
 161 -162 80 -96 76 -6 c 1
 108 -4 l 1xed80
 112 -80 174 -132 272 -132 c 0
 387 -132 455 -63 455 57 c 2
 455 159 l 1
 423 79 359 25 269 25 c 0
 135 25 50 125 50 285 c 0
 50 441 135 542 269 542 c 0xee80
 361 542 427 482 455 402 c 1
 455 530 l 1
 485 530 l 1
 485 55 l 2
 485 -80 404 -162 272 -162 c 0
269 55 m 0
 381 55 455 144 455 285 c 0
 455 415 381 512 269 512 c 0
 155 512 82 423 82 285 c 0xee80
 82 144 155 55 269 55 c 0
EndSplineSet
EndChar

StartChar: uni01E5
Encoding: 485 485 213
Width: 599
GlyphClass: 2
Flags: MW
HStem: -162 30<223 329.5 223 338> -6 21G<76 76> 25 30<212 314> 266 28<234 455 234 455 485 554> 510 20G<455 485 485 485> 512 30<212 315 202 323.5>
VStem: 50 32<214.5 354 214.5 363> 76 32<-6 -4> 455 30<57 159 159 159 402 530>
AnchorPoint: "Anchor-3" 271 530 basechar 0
AnchorPoint: "Anchor-0" 272 -150 basechar 0
LayerCount: 2
Fore
SplineSet
272 -162 m 0xfa80
 161 -162 80 -96 76 -6 c 1
 108 -4 l 1xf580
 112 -80 174 -132 272 -132 c 0
 387 -132 455 -63 455 57 c 2
 455 159 l 1
 423 79 359 25 269 25 c 0
 135 25 50 125 50 285 c 0
 50 441 135 542 269 542 c 0xf680
 361 542 427 482 455 402 c 1
 455 530 l 1
 485 530 l 1
 485 294 l 1
 554 294 l 1
 554 266 l 1
 485 266 l 1
 485 55 l 2
 485 -80 404 -162 272 -162 c 0xfa80
269 55 m 0
 376 55 448 136 455 266 c 1
 234 266 l 1
 234 294 l 1
 455 294 l 1
 451 420 378 512 269 512 c 0
 155 512 82 423 82 285 c 0xf680
 82 144 155 55 269 55 c 0
EndSplineSet
EndChar

StartChar: h
Encoding: 104 104 214
Width: 556
GlyphClass: 2
Flags: MW
HStem: 0 21G<85 85 85 115 441 441 441 471> 512 30<253.5 344> 690 20G<85 115 115 115>
VStem: 85 30<0 317 412 710> 441 30<0 317 317 341 0 374.5>
AnchorPoint: "Anchor-3" 100 690 basechar 0
AnchorPoint: "Anchor-1" 140 618 basechar 0
AnchorPoint: "Anchor-0" 278 0 basechar 0
LayerCount: 2
Fore
SplineSet
85 0 m 1
 85 710 l 1
 115 710 l 1
 115 412 l 1
 134 498 210 542 297 542 c 0
 416 542 471 453 471 341 c 2
 471 0 l 1
 441 0 l 1
 441 317 l 2
 441 432 399 512 289 512 c 0
 179 512 115 431 115 317 c 2
 115 0 l 1
 85 0 l 1
EndSplineSet
EndChar

StartChar: hbar
Encoding: 295 295 215
Width: 556
GlyphClass: 2
Flags: MW
HStem: 0 21G<85 85 85 115 441 441 441 471> 512 30<253.5 344> 605 26<10 85 10 85 115 270> 605 105<10 115 10 115 85 115 85 270>
VStem: 85 30<0 317 412 605 631 710> 441 30<0 317 317 341 0 374.5>
AnchorPoint: "Anchor-3" 100 690 basechar 0
AnchorPoint: "Anchor-1" 140 618 basechar 0
AnchorPoint: "Anchor-0" 278 0 basechar 0
LayerCount: 2
Fore
SplineSet
85 0 m 1xec
 85 605 l 1
 10 605 l 1
 10 631 l 1
 85 631 l 1xec
 85 710 l 1
 115 710 l 1xdc
 115 631 l 1
 270 631 l 1
 270 605 l 1
 115 605 l 1
 115 412 l 1
 134 498 210 542 297 542 c 0
 416 542 471 453 471 341 c 2
 471 0 l 1
 441 0 l 1
 441 317 l 2
 441 432 399 512 289 512 c 0
 179 512 115 431 115 317 c 2
 115 0 l 1
 85 0 l 1xec
EndSplineSet
EndChar

StartChar: hcircumflex
Encoding: 293 293 216
Width: 556
GlyphClass: 2
Flags: MW
HStem: 0 21G<85 85 85 115 441 441 441 471> 512 30<253.5 344> 690 20G<85 115 115 115> 869 25<101 101>
VStem: 85 30<0 317 412 710> 441 30<0 317 317 341 0 374.5>
AnchorPoint: "Anchor-3" 100 690 basechar 0
AnchorPoint: "Anchor-1" 140 618 basechar 0
AnchorPoint: "Anchor-0" 278 0 basechar 0
LayerCount: 2
Fore
SplineSet
2 770 m 1
 90 894 l 1
 112 894 l 1
 200 770 l 1
 172 770 l 1
 101 869 l 1
 30 770 l 1
 2 770 l 1
85 0 m 1
 85 710 l 1
 115 710 l 1
 115 412 l 1
 134 498 210 542 297 542 c 0
 416 542 471 453 471 341 c 2
 471 0 l 1
 441 0 l 1
 441 317 l 2
 441 432 399 512 289 512 c 0
 179 512 115 431 115 317 c 2
 115 0 l 1
 85 0 l 1
EndSplineSet
EndChar

StartChar: i
Encoding: 105 105 217
Width: 200
GlyphClass: 2
Flags: MW
HStem: 0 21G<85 85 85 115> 510 20G<85 115 115 115> 628 70<83 117 83 117>
VStem: 83 34<628 698 628 698> 85 30<0 530 0 530>
AnchorPoint: "Anchor-3" 100 530 basechar 0
AnchorPoint: "Anchor-2" 115 0 basechar 0
AnchorPoint: "Anchor-0" 100 0 basechar 0
LayerCount: 2
Fore
SplineSet
83 628 m 1xf0
 83 698 l 1
 117 698 l 1
 117 628 l 1
 83 628 l 1xf0
85 0 m 1xe8
 85 530 l 1
 115 530 l 1
 115 0 l 1
 85 0 l 1xe8
EndSplineSet
Substitution2: "'ss08' Style Set 8 in Latin lookup 41 subtable" i.ss08
Substitution2: "'locl' Localized Forms in Latin lookup 9 subtable" i.loclTRK
Substitution2: "Single Substitution lookup 3 subtable" dotlessi
AlternateSubs2: "'aalt' Access All Alternates in Latin lookup 1 subtable" i.loclTRK i.ss08
EndChar

StartChar: dotlessi
Encoding: 305 305 218
Width: 200
GlyphClass: 2
Flags: MW
HStem: 0 21G<85 85 85 115> 510 20G<85 115 115 115>
VStem: 85 30<0 530 0 530>
AnchorPoint: "Anchor-3" 100 530 basechar 0
AnchorPoint: "Anchor-2" 115 0 basechar 0
AnchorPoint: "Anchor-0" 100 0 basechar 0
LayerCount: 2
Fore
SplineSet
85 0 m 1
 85 530 l 1
 115 530 l 1
 115 0 l 1
 85 0 l 1
EndSplineSet
EndChar

StartChar: iacute
Encoding: 237 237 219
Width: 200
GlyphClass: 2
Flags: MW
HStem: 0 21G<85 85 85 115> 510 20G<85 115 115 115> 610 116<86 192 86 192>
VStem: 85 30<0 530 0 530>
AnchorPoint: "Anchor-3" 100 530 basechar 0
AnchorPoint: "Anchor-2" 115 0 basechar 0
AnchorPoint: "Anchor-0" 100 0 basechar 0
LayerCount: 2
Fore
SplineSet
86 610 m 1
 158 726 l 1
 192 726 l 1
 112 610 l 1
 86 610 l 1
85 0 m 1
 85 530 l 1
 115 530 l 1
 115 0 l 1
 85 0 l 1
EndSplineSet
EndChar

StartChar: icircumflex
Encoding: 238 238 220
Width: 200
GlyphClass: 2
Flags: MW
HStem: 0 21G<85 85 85 115> 510 20G<85 115 115 115> 709 25<101 101>
VStem: 85 30<0 530 0 530>
AnchorPoint: "Anchor-3" 100 530 basechar 0
AnchorPoint: "Anchor-2" 115 0 basechar 0
AnchorPoint: "Anchor-0" 100 0 basechar 0
LayerCount: 2
Fore
SplineSet
2 610 m 1
 90 734 l 1
 112 734 l 1
 200 610 l 1
 172 610 l 1
 101 709 l 1
 30 610 l 1
 2 610 l 1
85 0 m 1
 85 530 l 1
 115 530 l 1
 115 0 l 1
 85 0 l 1
EndSplineSet
EndChar

StartChar: idieresis
Encoding: 239 239 221
Width: 200
GlyphClass: 2
Flags: MW
HStem: 0 21G<85 85 85 115> 510 20G<85 115 115 115> 628 70<19 53 19 53 147 181>
VStem: 19 34<628 698 628 698> 85 30<0 530 0 530> 147 34<628 698 628 698>
AnchorPoint: "Anchor-3" 100 530 basechar 0
AnchorPoint: "Anchor-2" 115 0 basechar 0
AnchorPoint: "Anchor-0" 100 0 basechar 0
LayerCount: 2
Fore
SplineSet
19 628 m 1
 19 698 l 1
 53 698 l 1
 53 628 l 1
 19 628 l 1
147 628 m 1
 147 698 l 1
 181 698 l 1
 181 628 l 1
 147 628 l 1
85 0 m 1
 85 530 l 1
 115 530 l 1
 115 0 l 1
 85 0 l 1
EndSplineSet
Substitution2: "'ss08' Style Set 8 in Latin lookup 41 subtable" idieresis.ss08
Substitution2: "'aalt' Access All Alternates in Latin lookup 0 subtable" idieresis.ss08
EndChar

StartChar: i.loclTRK
Encoding: 65576 -1 222
Width: 200
GlyphClass: 2
Flags: MW
HStem: 0 21G<85 85 85 115> 510 20G<85 115 115 115> 628 70<83 117 83 117>
VStem: 83 34<628 698 628 698> 85 30<0 530 0 530>
AnchorPoint: "Anchor-3" 100 530 basechar 0
AnchorPoint: "Anchor-2" 115 0 basechar 0
AnchorPoint: "Anchor-0" 100 0 basechar 0
LayerCount: 2
Fore
SplineSet
83 628 m 1xf0
 83 698 l 1
 117 698 l 1
 117 628 l 1
 83 628 l 1xf0
85 0 m 1xe8
 85 530 l 1
 115 530 l 1
 115 0 l 1
 85 0 l 1xe8
EndSplineSet
Substitution2: "'ss08' Style Set 8 in Latin lookup 41 subtable" i.loclTRK.ss08
Substitution2: "'aalt' Access All Alternates in Latin lookup 0 subtable" i.loclTRK.ss08
EndChar

StartChar: igrave
Encoding: 236 236 223
Width: 200
GlyphClass: 2
Flags: MW
HStem: 0 21G<85 85 85 115> 510 20G<85 115 115 115> 618 116<7 87 7 113>
VStem: 85 30<0 530 0 530>
AnchorPoint: "Anchor-3" 100 530 basechar 0
AnchorPoint: "Anchor-2" 115 0 basechar 0
AnchorPoint: "Anchor-0" 100 0 basechar 0
LayerCount: 2
Fore
SplineSet
87 618 m 1
 7 734 l 1
 41 734 l 1
 113 618 l 1
 87 618 l 1
85 0 m 1
 85 530 l 1
 115 530 l 1
 115 0 l 1
 85 0 l 1
EndSplineSet
EndChar

StartChar: imacron
Encoding: 299 299 224
Width: 200
GlyphClass: 2
Flags: MW
HStem: 0 21G<85 85 85 115> 510 20G<85 115 115 115> 644 28<-24 224 -24 224>
VStem: 85 30<0 530 0 530>
AnchorPoint: "Anchor-3" 100 530 basechar 0
AnchorPoint: "Anchor-2" 115 0 basechar 0
AnchorPoint: "Anchor-0" 100 0 basechar 0
LayerCount: 2
Fore
SplineSet
-24 644 m 1
 -24 672 l 1
 224 672 l 1
 224 644 l 1
 -24 644 l 1
85 0 m 1
 85 530 l 1
 115 530 l 1
 115 0 l 1
 85 0 l 1
EndSplineSet
EndChar

StartChar: iogonek
Encoding: 303 303 225
Width: 200
GlyphClass: 2
Flags: MW
HStem: -192 26<84 105 84 108> 0 21G<85 85 85 90 115 115> 510 20G<85 115 115 115> 628 70<83 117 83 117>
VStem: 25 30<-144.5 -116> 83 34<628 698 628 698> 85 30<0 530 0 530>
AnchorPoint: "Anchor-3" 100 530 basechar 0
AnchorPoint: "Anchor-2" 115 0 basechar 0
AnchorPoint: "Anchor-0" 100 0 basechar 0
LayerCount: 2
Fore
SplineSet
83 628 m 1xf4
 83 698 l 1
 117 698 l 1
 117 628 l 1
 83 628 l 1xf4
85 0 m 1xf2
 85 530 l 1
 115 530 l 1
 115 0 l 1xf2
 89 -40 l 2
 69 -70 55 -98 55 -130 c 0
 55 -159 73 -166 95 -166 c 0
 115 -166 132 -160 144 -151 c 1
 158 -173 l 1
 140 -185 121 -192 95 -192 c 0
 57 -192 25 -176 25 -132 c 0xf8
 25 -100 47 -65 73 -26 c 2
 90 0 l 1
 85 0 l 1xf2
EndSplineSet
Substitution2: "'ss08' Style Set 8 in Latin lookup 41 subtable" iogonek.ss08
Substitution2: "'aalt' Access All Alternates in Latin lookup 0 subtable" iogonek.ss08
EndChar

StartChar: itilde
Encoding: 297 297 226
Width: 200
GlyphClass: 2
Flags: MW
HStem: 0 21G<85 85 85 115> 510 20G<85 115 115 115> 630 24<147 168 147 176> 690 24<22 49> 703 20G<199 225 225 225>
VStem: -39 26<625 625> 85 30<0 530 0 530> 199 26<723 723>
AnchorPoint: "Anchor-3" 100 530 basechar 0
AnchorPoint: "Anchor-2" 115 0 basechar 0
AnchorPoint: "Anchor-0" 100 0 basechar 0
LayerCount: 2
Fore
SplineSet
155 630 m 0xef
 127 630 110 641 91 662 c 0
 75 680 61 690 37 690 c 0
 7 690 -11 669 -13 625 c 1
 -39 625 l 1
 -35 681 -5 714 37 714 c 0xf7
 69 714 89 699 109 678 c 0
 127 660 139 654 155 654 c 0
 181 654 195 673 199 723 c 1
 225 723 l 1
 221 665 197 630 155 630 c 0xef
85 0 m 1
 85 530 l 1
 115 530 l 1
 115 0 l 1
 85 0 l 1
EndSplineSet
EndChar

StartChar: ij
Encoding: 307 307 227
Width: 422
GlyphClass: 2
Flags: MW
HStem: -150 28<187 214 187 214 214 220> 0 21G<85 85 85 115> 510 20G<85 115 115 115 307 337 337 337> 628 70<83 117 83 117 305 339>
VStem: 83 34<628 698 628 698> 85 30<0 530 0 530> 305 34<628 698 628 698> 307 30<-24 530>
AnchorPoint: "Anchor-3" 322 530 basechar 0
AnchorPoint: "Anchor-2" 115 0 basechar 0
AnchorPoint: "Anchor-0" 307 -150 basechar 0
LayerCount: 2
Fore
SplineSet
83 628 m 1xfa
 83 698 l 1
 117 698 l 1
 117 628 l 1
 83 628 l 1xfa
305 628 m 1
 305 698 l 1
 339 698 l 1
 339 628 l 1
 305 628 l 1
85 0 m 1xf5
 85 530 l 1
 115 530 l 1
 115 0 l 1
 85 0 l 1xf5
187 -150 m 1
 187 -122 l 1
 214 -122 l 2
 284 -122 307 -102 307 -24 c 2
 307 530 l 1
 337 530 l 1
 337 -28 l 2
 337 -118 300 -150 220 -150 c 2
 187 -150 l 1
EndSplineSet
Substitution2: "'ss08' Style Set 8 in Latin lookup 41 subtable" ij.ss08
Substitution2: "'aalt' Access All Alternates in Latin lookup 0 subtable" ij.ss08
EndChar

StartChar: j
Encoding: 106 106 228
Width: 230
GlyphClass: 2
Flags: MW
HStem: -150 28<-5 22 -5 22 22 28> 510 20G<115 145 145 145> 628 70<113 147 113 147>
VStem: 113 34<628 698 628 698> 115 30<-24 530>
AnchorPoint: "Anchor-3" 130 530 basechar 0
AnchorPoint: "Anchor-0" 115 -150 basechar 0
LayerCount: 2
Fore
SplineSet
113 628 m 1xf0
 113 698 l 1
 147 698 l 1
 147 628 l 1
 113 628 l 1xf0
-5 -150 m 1
 -5 -122 l 1
 22 -122 l 2
 92 -122 115 -102 115 -24 c 2
 115 530 l 1
 145 530 l 1
 145 -28 l 2xe8
 145 -118 108 -150 28 -150 c 2
 -5 -150 l 1
EndSplineSet
Substitution2: "'ss08' Style Set 8 in Latin lookup 41 subtable" j.ss08
Substitution2: "Single Substitution lookup 16 subtable" uni006A0301
Substitution2: "Single Substitution lookup 3 subtable" uni0237
AlternateSubs2: "'aalt' Access All Alternates in Latin lookup 1 subtable" uni006A0301 j.ss08
EndChar

StartChar: uni0237
Encoding: 567 567 229
Width: 230
GlyphClass: 2
Flags: MW
HStem: -150 28<-5 22 -5 22 22 28> 510 20G<115 145 145 145>
VStem: 115 30<-24 530>
AnchorPoint: "Anchor-3" 130 530 basechar 0
AnchorPoint: "Anchor-0" 115 -150 basechar 0
LayerCount: 2
Fore
SplineSet
-5 -150 m 1
 -5 -122 l 1
 22 -122 l 2
 92 -122 115 -102 115 -24 c 2
 115 530 l 1
 145 530 l 1
 145 -28 l 2
 145 -118 108 -150 28 -150 c 2
 -5 -150 l 1
EndSplineSet
EndChar

StartChar: uni006A0301
Encoding: 65577 -1 230
Width: 230
GlyphClass: 2
Flags: MW
HStem: -150 28<-5 22 -5 22 22 28> 510 20G<115 145 145 145> 610 116<116 222 116 222>
VStem: 115 30<-24 530>
AnchorPoint: "Anchor-3" 130 530 basechar 0
AnchorPoint: "Anchor-0" 115 -150 basechar 0
LayerCount: 2
Fore
SplineSet
116 610 m 1
 188 726 l 1
 222 726 l 1
 142 610 l 1
 116 610 l 1
-5 -150 m 1
 -5 -122 l 1
 22 -122 l 2
 92 -122 115 -102 115 -24 c 2
 115 530 l 1
 145 530 l 1
 145 -28 l 2
 145 -118 108 -150 28 -150 c 2
 -5 -150 l 1
EndSplineSet
EndChar

StartChar: jcircumflex
Encoding: 309 309 231
Width: 230
GlyphClass: 2
Flags: MW
HStem: -150 28<-5 22 -5 22 22 28> 510 20G<115 145 145 145> 709 25<131 131>
VStem: 115 30<-24 530>
AnchorPoint: "Anchor-3" 130 530 basechar 0
AnchorPoint: "Anchor-0" 115 -150 basechar 0
LayerCount: 2
Fore
SplineSet
32 610 m 1
 120 734 l 1
 142 734 l 1
 230 610 l 1
 202 610 l 1
 131 709 l 1
 60 610 l 1
 32 610 l 1
-5 -150 m 1
 -5 -122 l 1
 22 -122 l 2
 92 -122 115 -102 115 -24 c 2
 115 530 l 1
 145 530 l 1
 145 -28 l 2
 145 -118 108 -150 28 -150 c 2
 -5 -150 l 1
EndSplineSet
EndChar

StartChar: k
Encoding: 107 107 232
Width: 570
GlyphClass: 2
Flags: MW
HStem: 0 21G<85 85 85 115 485 485 485 521> 510 20G<461 501 501 501> 690 20G<85 115 115 115>
VStem: 85 30<0 156 194 710>
AnchorPoint: "Anchor-3" 100 670 basechar 0
AnchorPoint: "Anchor-0" 299 0 basechar 0
LayerCount: 2
Fore
SplineSet
85 0 m 1
 85 710 l 1
 115 710 l 1
 115 194 l 1
 461 530 l 1
 501 530 l 1
 266 302 l 1
 521 0 l 1
 485 0 l 1
 246 284 l 1
 115 156 l 1
 115 0 l 1
 85 0 l 1
EndSplineSet
EndChar

StartChar: uni01E9
Encoding: 489 489 233
Width: 570
GlyphClass: 2
Flags: MW
HStem: 0 21G<85 85 85 115 485 485 485 521> 510 20G<461 501 501 501> 690 20G<85 115 115 115> 750 25<100 100 100 111 89 100>
VStem: 85 30<0 156 194 710>
AnchorPoint: "Anchor-3" 100 670 basechar 0
AnchorPoint: "Anchor-0" 299 0 basechar 0
LayerCount: 2
Fore
SplineSet
1 874 m 1
 29 874 l 1
 100 775 l 1
 171 874 l 1
 199 874 l 1
 111 750 l 1
 89 750 l 1
 1 874 l 1
85 0 m 1
 85 710 l 1
 115 710 l 1
 115 194 l 1
 461 530 l 1
 501 530 l 1
 266 302 l 1
 521 0 l 1
 485 0 l 1
 246 284 l 1
 115 156 l 1
 115 0 l 1
 85 0 l 1
EndSplineSet
EndChar

StartChar: uni0137
Encoding: 311 311 234
Width: 570
GlyphClass: 2
Flags: MW
HStem: -94 48<274 298 274 324> 0 21G<85 85 85 115 485 485 485 521> 510 20G<461 501 501 501> 690 20G<85 115 115 115>
VStem: 85 30<0 156 194 710> 274 50<-89 -46 -89 -46 -89 -46>
AnchorPoint: "Anchor-3" 100 670 basechar 0
AnchorPoint: "Anchor-0" 299 -169 basechar 0
LayerCount: 2
Fore
SplineSet
85 0 m 1
 85 710 l 1
 115 710 l 1
 115 194 l 1
 461 530 l 1
 501 530 l 1
 266 302 l 1
 521 0 l 1
 485 0 l 1
 246 284 l 1
 115 156 l 1
 115 0 l 1
 85 0 l 1
262 -169 m 1
 298 -94 l 1
 274 -94 l 1
 274 -46 l 1
 324 -46 l 1
 324 -89 l 1
 284 -169 l 1
 262 -169 l 1
EndSplineSet
EndChar

StartChar: l
Encoding: 108 108 235
Width: 237
GlyphClass: 2
Flags: MW
HStem: 0 28<140.5 203 171 203 171 203> 690 20G<85 115 115 115>
VStem: 85 30<80 710>
AnchorPoint: "Anchor-4" 165 530 basechar 0
AnchorPoint: "Anchor-3" 100 670 basechar 0
AnchorPoint: "Anchor-1" 122 348 basechar 0
AnchorPoint: "Anchor-0" 144 0 basechar 0
LayerCount: 2
Fore
SplineSet
168 0 m 2
 113 0 85 27 85 80 c 2
 85 710 l 1
 115 710 l 1
 115 80 l 2
 115 46 133 28 171 28 c 2
 203 28 l 1
 203 0 l 1
 168 0 l 2
EndSplineSet
Substitution2: "'ss03' Style Set 3 in Latin lookup 36 subtable" l.ss03
Substitution2: "'aalt' Access All Alternates in Latin lookup 0 subtable" l.ss03
EndChar

StartChar: lacute
Encoding: 314 314 236
Width: 237
GlyphClass: 2
Flags: MW
HStem: 0 28<140.5 203 171 203 171 203> 690 20G<85 115 115 115> 750 116<86 192 86 192>
VStem: 85 30<80 710>
AnchorPoint: "Anchor-4" 165 530 basechar 0
AnchorPoint: "Anchor-3" 100 670 basechar 0
AnchorPoint: "Anchor-1" 122 348 basechar 0
AnchorPoint: "Anchor-0" 144 0 basechar 0
LayerCount: 2
Fore
SplineSet
86 750 m 1
 158 866 l 1
 192 866 l 1
 112 750 l 1
 86 750 l 1
168 0 m 2
 113 0 85 27 85 80 c 2
 85 710 l 1
 115 710 l 1
 115 80 l 2
 115 46 133 28 171 28 c 2
 203 28 l 1
 203 0 l 1
 168 0 l 2
EndSplineSet
Substitution2: "'ss03' Style Set 3 in Latin lookup 36 subtable" lacute.ss03
Substitution2: "'aalt' Access All Alternates in Latin lookup 0 subtable" lacute.ss03
EndChar

StartChar: lcaron
Encoding: 318 318 237
Width: 251
GlyphClass: 2
Flags: MW
HStem: 0 28<140.5 203 171 203 171 203> 690 20G<85 115 115 115 219 251 251 251>
VStem: 85 30<80 710>
AnchorPoint: "Anchor-4" 165 530 basechar 0
AnchorPoint: "Anchor-3" 100 670 basechar 0
AnchorPoint: "Anchor-1" 122 348 basechar 0
AnchorPoint: "Anchor-0" 144 0 basechar 0
LayerCount: 2
Fore
SplineSet
168 0 m 2
 113 0 85 27 85 80 c 2
 85 710 l 1
 115 710 l 1
 115 80 l 2
 115 46 133 28 171 28 c 2
 203 28 l 1
 203 0 l 1
 168 0 l 2
185 502 m 1
 219 710 l 1
 251 710 l 1
 211 502 l 1
 185 502 l 1
EndSplineSet
Substitution2: "'ss03' Style Set 3 in Latin lookup 36 subtable" lcaron.ss03
Substitution2: "'aalt' Access All Alternates in Latin lookup 0 subtable" lcaron.ss03
EndChar

StartChar: uni013C
Encoding: 316 316 238
Width: 237
GlyphClass: 2
Flags: MW
HStem: -94 48<119 143 119 169> 0 28<140.5 203 171 203 171 203> 690 20G<85 115 115 115>
VStem: 85 30<80 710> 119 50<-89 -46 -89 -46 -89 -46>
AnchorPoint: "Anchor-4" 165 530 basechar 0
AnchorPoint: "Anchor-3" 100 670 basechar 0
AnchorPoint: "Anchor-1" 122 348 basechar 0
AnchorPoint: "Anchor-0" 144 -169 basechar 0
LayerCount: 2
Fore
SplineSet
168 0 m 2
 113 0 85 27 85 80 c 2
 85 710 l 1
 115 710 l 1
 115 80 l 2
 115 46 133 28 171 28 c 2
 203 28 l 1
 203 0 l 1
 168 0 l 2
107 -169 m 1
 143 -94 l 1
 119 -94 l 1
 119 -46 l 1
 169 -46 l 1
 169 -89 l 1xe8
 129 -169 l 1
 107 -169 l 1
EndSplineSet
Substitution2: "'ss03' Style Set 3 in Latin lookup 36 subtable" uni013C.ss03
Substitution2: "'locl' Localized Forms in Latin lookup 11 subtable" uni013C.loclMAH
AlternateSubs2: "'aalt' Access All Alternates in Latin lookup 1 subtable" uni013C.loclMAH uni013C.ss03
EndChar

StartChar: lslash
Encoding: 322 322 239
Width: 237
GlyphClass: 2
Flags: MW
HStem: 0 28<140.5 203 171 203 171 203> 690 20G<85 115 115 115>
VStem: 85 30<80 312 312 312 358 710> 85 137<80 422 312 422 394 422 394 710>
AnchorPoint: "Anchor-4" 165 530 basechar 0
AnchorPoint: "Anchor-3" 100 670 basechar 0
AnchorPoint: "Anchor-1" 122 348 basechar 0
AnchorPoint: "Anchor-0" 144 0 basechar 0
LayerCount: 2
Fore
SplineSet
168 0 m 2xe0
 113 0 85 27 85 80 c 2
 85 312 l 1
 22 274 l 1
 22 302 l 1
 85 340 l 1
 85 710 l 1
 115 710 l 1
 115 358 l 1xe0
 222 422 l 1
 222 394 l 1xd0
 115 330 l 1
 115 80 l 2
 115 46 133 28 171 28 c 2
 203 28 l 1
 203 0 l 1
 168 0 l 2xe0
EndSplineSet
Substitution2: "'ss03' Style Set 3 in Latin lookup 36 subtable" lslash.ss03
Substitution2: "'aalt' Access All Alternates in Latin lookup 0 subtable" lslash.ss03
EndChar

StartChar: m
Encoding: 109 109 240
Width: 846
GlyphClass: 2
Flags: MW
HStem: 0 21G<85 85 85 115 405 405 405 435 731 731 731 761> 510 20G<85 113 113 113> 512 30<244 319.5 561 639.5>
VStem: 85 30<0 317> 405 30<0 308 0 317 0 377> 731 30<0 314 314 338 0 375>
AnchorPoint: "Anchor-3" 420 530 basechar 0
AnchorPoint: "Anchor-0" 420 0 basechar 0
LayerCount: 2
Fore
SplineSet
85 0 m 1xbc
 85 530 l 1
 113 530 l 1xdc
 115 414 l 1
 133 488 202 542 286 542 c 0
 355 542 410 487 428 399 c 1
 450 487 519 542 603 542 c 0
 696 542 761 458 761 338 c 2
 761 0 l 1
 731 0 l 1
 731 314 l 2
 731 436 680 512 599 512 c 0
 507 512 435 422 435 308 c 2
 435 0 l 1
 405 0 l 1
 405 317 l 2
 405 437 359 512 280 512 c 0
 187 512 115 426 115 317 c 2
 115 0 l 1
 85 0 l 1xbc
EndSplineSet
EndChar

StartChar: n
Encoding: 110 110 241
Width: 556
GlyphClass: 2
Flags: MW
HStem: 0 21G<85 85 85 115 441 441 441 471> 510 20G<85 113 113 113> 512 30<253 345>
VStem: 85 30<0 317> 441 30<0 317 317 341 0 374>
AnchorPoint: "Anchor-3" 278 530 basechar 0
AnchorPoint: "Anchor-0" 278 0 basechar 0
LayerCount: 2
Fore
SplineSet
85 0 m 1xb8
 85 530 l 1
 113 530 l 1xd8
 115 412 l 1
 135 498 210 542 296 542 c 0
 416 542 471 453 471 341 c 2
 471 0 l 1
 441 0 l 1
 441 317 l 2
 441 431 400 512 290 512 c 0
 180 512 115 431 115 317 c 2
 115 0 l 1
 85 0 l 1xb8
EndSplineSet
EndChar

StartChar: nacute
Encoding: 324 324 242
Width: 556
GlyphClass: 2
Flags: MW
HStem: 0 21G<85 85 85 115 441 441 441 471> 510 20G<85 113 113 113> 512 30<253 345> 610 116<264 370 264 370> 706 20G<336 370 370 370>
VStem: 85 30<0 317> 441 30<0 317 317 341 0 374>
AnchorPoint: "Anchor-3" 278 530 basechar 0
AnchorPoint: "Anchor-0" 278 0 basechar 0
LayerCount: 2
Fore
SplineSet
264 610 m 1xb6
 336 726 l 1
 370 726 l 1
 290 610 l 1
 264 610 l 1xb6
85 0 m 1
 85 530 l 1
 113 530 l 1xce
 115 412 l 1
 135 498 210 542 296 542 c 0
 416 542 471 453 471 341 c 2
 471 0 l 1
 441 0 l 1
 441 317 l 2
 441 431 400 512 290 512 c 0
 180 512 115 431 115 317 c 2
 115 0 l 1
 85 0 l 1
EndSplineSet
EndChar

StartChar: ncaron
Encoding: 328 328 243
Width: 556
GlyphClass: 2
Flags: MW
HStem: 0 21G<85 85 85 115 441 441 441 471> 510 20G<85 113 113 113> 512 30<253 345> 610 25<278 278 278 289 267 278>
VStem: 85 30<0 317> 441 30<0 317 317 341 0 374>
AnchorPoint: "Anchor-3" 278 530 basechar 0
AnchorPoint: "Anchor-0" 278 0 basechar 0
LayerCount: 2
Fore
SplineSet
179 734 m 1xbc
 207 734 l 1
 278 635 l 1
 349 734 l 1
 377 734 l 1
 289 610 l 1
 267 610 l 1
 179 734 l 1xbc
85 0 m 1
 85 530 l 1
 113 530 l 1xdc
 115 412 l 1
 135 498 210 542 296 542 c 0
 416 542 471 453 471 341 c 2
 471 0 l 1
 441 0 l 1
 441 317 l 2
 441 431 400 512 290 512 c 0
 180 512 115 431 115 317 c 2
 115 0 l 1
 85 0 l 1
EndSplineSet
EndChar

StartChar: uni0146
Encoding: 326 326 244
Width: 556
GlyphClass: 2
Flags: MW
HStem: -94 48<253 277 253 303> 0 21G<85 85 85 115 441 441 441 471> 510 20G<85 113 113 113> 512 30<253 345>
VStem: 85 30<0 317> 253 50<-89 -46 -89 -46 -89 -46> 441 30<0 317 317 341 0 374>
AnchorPoint: "Anchor-3" 278 530 basechar 0
AnchorPoint: "Anchor-0" 278 -169 basechar 0
LayerCount: 2
Fore
SplineSet
85 0 m 1xde
 85 530 l 1
 113 530 l 1xee
 115 412 l 1
 135 498 210 542 296 542 c 0
 416 542 471 453 471 341 c 2
 471 0 l 1
 441 0 l 1
 441 317 l 2
 441 431 400 512 290 512 c 0
 180 512 115 431 115 317 c 2
 115 0 l 1
 85 0 l 1xde
241 -169 m 1
 277 -94 l 1
 253 -94 l 1
 253 -46 l 1
 303 -46 l 1
 303 -89 l 1
 263 -169 l 1
 241 -169 l 1
EndSplineSet
Substitution2: "'locl' Localized Forms in Latin lookup 11 subtable" uni0146.loclMAH
Substitution2: "'aalt' Access All Alternates in Latin lookup 0 subtable" uni0146.loclMAH
EndChar

StartChar: ntilde
Encoding: 241 241 245
Width: 556
GlyphClass: 2
Flags: MW
HStem: 0 21G<85 85 85 115 441 441 441 471> 510 20G<85 113 113 113> 512 30<253 345> 630 24<325 346 325 354> 690 24<200 227> 703 20G<377 403 403 403>
VStem: 85 30<0 317> 139 26<625 625> 377 26<723 723> 441 30<0 317 317 341 0 374>
AnchorPoint: "Anchor-3" 278 530 basechar 0
AnchorPoint: "Anchor-0" 278 0 basechar 0
LayerCount: 2
Fore
SplineSet
333 630 m 0xb6c0
 305 630 288 641 269 662 c 0
 253 680 239 690 215 690 c 0
 185 690 167 669 165 625 c 1
 139 625 l 1
 143 681 173 714 215 714 c 0xb9c0
 247 714 267 699 287 678 c 0
 305 660 317 654 333 654 c 0
 359 654 373 673 377 723 c 1
 403 723 l 1
 399 665 375 630 333 630 c 0xb6c0
85 0 m 1xbac0
 85 530 l 1
 113 530 l 1xdac0
 115 412 l 1
 135 498 210 542 296 542 c 0
 416 542 471 453 471 341 c 2
 471 0 l 1
 441 0 l 1
 441 317 l 2
 441 431 400 512 290 512 c 0
 180 512 115 431 115 317 c 2
 115 0 l 1
 85 0 l 1xbac0
EndSplineSet
EndChar

StartChar: eng
Encoding: 331 331 246
Width: 556
GlyphClass: 2
Flags: MW
HStem: -150 28<271 347 271 349> 0 21G<85 85 85 115> 510 20G<85 113 113 113> 512 30<253 345>
VStem: 85 30<0 317> 441 30<-30 317 317 341>
AnchorPoint: "Anchor-3" 278 530 basechar 0
AnchorPoint: "Anchor-0" 278 0 basechar 0
LayerCount: 2
Fore
SplineSet
85 0 m 1xdc
 85 530 l 1
 113 530 l 1xec
 115 412 l 1
 135 498 210 542 296 542 c 0
 416 542 471 453 471 341 c 2
 471 -30 l 2
 471 -100 420 -150 347 -150 c 2
 271 -150 l 1
 271 -122 l 1
 349 -122 l 2
 403 -122 441 -83 441 -30 c 2
 441 317 l 2
 441 431 400 512 290 512 c 0
 180 512 115 431 115 317 c 2
 115 0 l 1
 85 0 l 1xdc
EndSplineSet
EndChar

StartChar: o
Encoding: 111 111 247
Width: 550
GlyphClass: 2
Flags: MW
HStem: -12 30<215.5 334.5 215.5 344> 512 30<215.5 334.5>
VStem: 50 32<189 341 189 350> 468 32<189 341>
AnchorPoint: "Anchor-3" 275 530 basechar 0
AnchorPoint: "Anchor-1" 275 265 basechar 0
AnchorPoint: "Anchor-0" 275 0 basechar 0
LayerCount: 2
Fore
SplineSet
275 -12 m 0
 137 -12 50 95 50 265 c 0
 50 435 137 542 275 542 c 0
 413 542 500 435 500 265 c 0
 500 95 413 -12 275 -12 c 0
275 18 m 0
 394 18 468 113 468 265 c 0
 468 417 394 512 275 512 c 0
 156 512 82 417 82 265 c 0
 82 113 156 18 275 18 c 0
EndSplineSet
Substitution2: "Single Substitution lookup 27 subtable" ordmasculine
Substitution2: "'aalt' Access All Alternates in Latin lookup 0 subtable" ordmasculine
EndChar

StartChar: oacute
Encoding: 243 243 248
Width: 550
GlyphClass: 2
Flags: MW
HStem: -12 30<215.5 334.5 215.5 344> 512 30<215.5 334.5> 610 116<261 367 261 367>
VStem: 50 32<189 341 189 350> 468 32<189 341>
AnchorPoint: "Anchor-3" 275 530 basechar 0
AnchorPoint: "Anchor-1" 275 265 basechar 0
AnchorPoint: "Anchor-0" 275 0 basechar 0
LayerCount: 2
Fore
SplineSet
261 610 m 1
 333 726 l 1
 367 726 l 1
 287 610 l 1
 261 610 l 1
275 -12 m 0
 137 -12 50 95 50 265 c 0
 50 435 137 542 275 542 c 0
 413 542 500 435 500 265 c 0
 500 95 413 -12 275 -12 c 0
275 18 m 0
 394 18 468 113 468 265 c 0
 468 417 394 512 275 512 c 0
 156 512 82 417 82 265 c 0
 82 113 156 18 275 18 c 0
EndSplineSet
EndChar

StartChar: ocircumflex
Encoding: 244 244 249
Width: 550
GlyphClass: 2
Flags: MW
HStem: -12 30<215.5 334.5 215.5 344> 512 30<215.5 334.5> 709 25<276 276>
VStem: 50 32<189 341 189 350> 468 32<189 341>
AnchorPoint: "Anchor-3" 275 530 basechar 0
AnchorPoint: "Anchor-1" 275 265 basechar 0
AnchorPoint: "Anchor-0" 275 0 basechar 0
LayerCount: 2
Fore
SplineSet
177 610 m 1
 265 734 l 1
 287 734 l 1
 375 610 l 1
 347 610 l 1
 276 709 l 1
 205 610 l 1
 177 610 l 1
275 -12 m 0
 137 -12 50 95 50 265 c 0
 50 435 137 542 275 542 c 0
 413 542 500 435 500 265 c 0
 500 95 413 -12 275 -12 c 0
275 18 m 0
 394 18 468 113 468 265 c 0
 468 417 394 512 275 512 c 0
 156 512 82 417 82 265 c 0
 82 113 156 18 275 18 c 0
EndSplineSet
EndChar

StartChar: odieresis
Encoding: 246 246 250
Width: 550
GlyphClass: 2
Flags: MW
HStem: -12 30<215.5 334.5 215.5 344> 512 30<215.5 334.5> 628 70<194 228 194 228 322 356>
VStem: 50 32<189 341 189 350> 194 34<628 698 628 698> 322 34<628 698 628 698> 468 32<189 341>
AnchorPoint: "Anchor-3" 275 530 basechar 0
AnchorPoint: "Anchor-1" 275 265 basechar 0
AnchorPoint: "Anchor-0" 275 0 basechar 0
LayerCount: 2
Fore
SplineSet
194 628 m 1
 194 698 l 1
 228 698 l 1
 228 628 l 1
 194 628 l 1
322 628 m 1
 322 698 l 1
 356 698 l 1
 356 628 l 1
 322 628 l 1
275 -12 m 0
 137 -12 50 95 50 265 c 0
 50 435 137 542 275 542 c 0
 413 542 500 435 500 265 c 0
 500 95 413 -12 275 -12 c 0
275 18 m 0
 394 18 468 113 468 265 c 0
 468 417 394 512 275 512 c 0
 156 512 82 417 82 265 c 0
 82 113 156 18 275 18 c 0
EndSplineSet
Substitution2: "'ss08' Style Set 8 in Latin lookup 41 subtable" odieresis.ss08
Substitution2: "'aalt' Access All Alternates in Latin lookup 0 subtable" odieresis.ss08
EndChar

StartChar: ograve
Encoding: 242 242 251
Width: 550
GlyphClass: 2
Flags: MW
HStem: -12 30<215.5 334.5 215.5 344> 512 30<215.5 334.5> 618 116<182 262 182 288>
VStem: 50 32<189 341 189 350> 468 32<189 341>
AnchorPoint: "Anchor-3" 275 530 basechar 0
AnchorPoint: "Anchor-1" 275 265 basechar 0
AnchorPoint: "Anchor-0" 275 0 basechar 0
LayerCount: 2
Fore
SplineSet
262 618 m 1
 182 734 l 1
 216 734 l 1
 288 618 l 1
 262 618 l 1
275 -12 m 0
 137 -12 50 95 50 265 c 0
 50 435 137 542 275 542 c 0
 413 542 500 435 500 265 c 0
 500 95 413 -12 275 -12 c 0
275 18 m 0
 394 18 468 113 468 265 c 0
 468 417 394 512 275 512 c 0
 156 512 82 417 82 265 c 0
 82 113 156 18 275 18 c 0
EndSplineSet
EndChar

StartChar: ohungarumlaut
Encoding: 337 337 252
Width: 550
GlyphClass: 2
Flags: MW
HStem: -12 30<215.5 334.5 215.5 344> 512 30<215.5 334.5> 610 116<215 321 215 321 309 321 287 335 309 309>
VStem: 50 32<189 341 189 350> 468 32<189 341>
AnchorPoint: "Anchor-3" 275 530 basechar 0
AnchorPoint: "Anchor-1" 275 265 basechar 0
AnchorPoint: "Anchor-0" 275 0 basechar 0
LayerCount: 2
Fore
SplineSet
215 610 m 1
 287 726 l 1
 321 726 l 1
 241 610 l 1
 215 610 l 1
309 610 m 1
 381 726 l 1
 415 726 l 1
 335 610 l 1
 309 610 l 1
275 -12 m 0
 137 -12 50 95 50 265 c 0
 50 435 137 542 275 542 c 0
 413 542 500 435 500 265 c 0
 500 95 413 -12 275 -12 c 0
275 18 m 0
 394 18 468 113 468 265 c 0
 468 417 394 512 275 512 c 0
 156 512 82 417 82 265 c 0
 82 113 156 18 275 18 c 0
EndSplineSet
EndChar

StartChar: omacron
Encoding: 333 333 253
Width: 550
GlyphClass: 2
Flags: MW
HStem: -12 30<215.5 334.5 215.5 344> 512 30<215.5 334.5> 644 28<151 399 151 399>
VStem: 50 32<189 341 189 350> 468 32<189 341>
AnchorPoint: "Anchor-3" 275 530 basechar 0
AnchorPoint: "Anchor-1" 275 265 basechar 0
AnchorPoint: "Anchor-0" 275 0 basechar 0
LayerCount: 2
Fore
SplineSet
151 644 m 1
 151 672 l 1
 399 672 l 1
 399 644 l 1
 151 644 l 1
275 -12 m 0
 137 -12 50 95 50 265 c 0
 50 435 137 542 275 542 c 0
 413 542 500 435 500 265 c 0
 500 95 413 -12 275 -12 c 0
275 18 m 0
 394 18 468 113 468 265 c 0
 468 417 394 512 275 512 c 0
 156 512 82 417 82 265 c 0
 82 113 156 18 275 18 c 0
EndSplineSet
EndChar

StartChar: oslash
Encoding: 248 248 254
Width: 550
GlyphClass: 2
Flags: MW
HStem: -12 30<251.5 334.5 251.5 344> 512 30<215.5 298.5>
VStem: 50 32<225 341 225 350> 468 32<189 305>
AnchorPoint: "Anchor-3" 275 530 basechar 0
AnchorPoint: "Anchor-1" 275 265 basechar 0
AnchorPoint: "Anchor-0" 275 0 basechar 0
LayerCount: 2
Fore
SplineSet
80 -14 m 1
 122 50 l 1
 76 98 50 172 50 265 c 0
 50 435 137 542 275 542 c 0
 329 542 375 526 411 496 c 1
 442 544 l 1
 470 544 l 1
 428 480 l 1
 474 432 500 358 500 265 c 0
 500 95 413 -12 275 -12 c 0
 221 -12 175 4 139 34 c 1
 108 -14 l 1
 80 -14 l 1
82 265 m 0
 82 185 103 121 139 78 c 1
 394 469 l 1
 362 497 322 512 275 512 c 0
 156 512 82 417 82 265 c 0
275 18 m 0
 394 18 468 113 468 265 c 0
 468 345 447 409 411 452 c 1
 156 61 l 1
 188 33 228 18 275 18 c 0
EndSplineSet
EndChar

StartChar: otilde
Encoding: 245 245 255
Width: 550
GlyphClass: 2
Flags: MW
HStem: -12 30<215.5 334.5 215.5 344> 512 30<215.5 334.5> 630 24<322 343 322 351> 690 24<197 224> 703 20G<374 400 400 400>
VStem: 50 32<189 341 189 350> 136 26<625 625> 374 26<723 723> 468 32<189 341>
AnchorPoint: "Anchor-3" 275 530 basechar 0
AnchorPoint: "Anchor-1" 275 265 basechar 0
AnchorPoint: "Anchor-0" 275 0 basechar 0
LayerCount: 2
Fore
SplineSet
330 630 m 0xef80
 302 630 285 641 266 662 c 0
 250 680 236 690 212 690 c 0
 182 690 164 669 162 625 c 1
 136 625 l 1
 140 681 170 714 212 714 c 0xf780
 244 714 264 699 284 678 c 0
 302 660 314 654 330 654 c 0
 356 654 370 673 374 723 c 1
 400 723 l 1
 396 665 372 630 330 630 c 0xef80
275 -12 m 0
 137 -12 50 95 50 265 c 0
 50 435 137 542 275 542 c 0
 413 542 500 435 500 265 c 0
 500 95 413 -12 275 -12 c 0
275 18 m 0
 394 18 468 113 468 265 c 0
 468 417 394 512 275 512 c 0
 156 512 82 417 82 265 c 0
 82 113 156 18 275 18 c 0
EndSplineSet
EndChar

StartChar: oe
Encoding: 339 339 256
Width: 970
GlyphClass: 2
Flags: MW
HStem: -12 30<215.5 327.5 643.5 747> 260 28<502 887 502 920 502 887> 512 30<215.5 327.5 206 334.5 640.5 756>
VStem: 50 32<189 341 189 350> 468 34<260 260 260 288 260 341> 887 33<260 288>
AnchorPoint: "Anchor-3" 485 530 basechar 0
AnchorPoint: "Anchor-2" 844 39 basechar 0
AnchorPoint: "Anchor-1" 275 265 basechar 0
AnchorPoint: "Anchor-0" 485 0 basechar 0
LayerCount: 2
Fore
SplineSet
275 -12 m 0
 137 -12 50 95 50 265 c 0
 50 435 137 542 275 542 c 0
 380 542 455 480 485 376 c 1
 515 473 585 542 696 542 c 0
 848 542 920 416 920 272 c 2
 920 260 l 1
 502 260 l 1
 504 110 582 18 700 18 c 0
 794 18 854 69 876 145 c 1
 909 143 l 1
 883 53 808 -12 700 -12 c 0
 587 -12 515 58 486 155 c 1
 456 50 380 -12 275 -12 c 0
275 18 m 0
 394 18 468 113 468 265 c 0
 468 417 394 512 275 512 c 0
 156 512 82 417 82 265 c 0
 82 113 156 18 275 18 c 0
502 288 m 1
 887 288 l 1
 883 424 816 512 696 512 c 0
 584 512 509 427 502 288 c 1
EndSplineSet
EndChar

StartChar: p
Encoding: 112 112 257
Width: 570
GlyphClass: 2
Flags: MW
HStem: -150 21G<85 85 85 115> -12 30<260.5 361.5 250 371> 510 20G<85 111 111 111> 512 30<258.5 360>
VStem: 85 27 85 30<-150 133 195 335> 488 32<189 341>
AnchorPoint: "Anchor-3" 285 530 basechar 0
AnchorPoint: "Anchor-0" 285 0 basechar 0
LayerCount: 2
Fore
SplineSet
85 -150 m 1xd6
 85 530 l 1xe6
 111 530 l 1xea
 113 391 l 1xda
 144 488 214 542 303 542 c 0
 437 542 520 435 520 265 c 0
 520 95 437 -12 305 -12 c 0
 216 -12 140 56 115 133 c 1
 115 -150 l 1
 85 -150 l 1xd6
305 18 m 0
 418 18 488 113 488 265 c 0
 488 417 417 512 303 512 c 0xd6
 193 512 115 405 115 265 c 0
 115 125 195 18 305 18 c 0
EndSplineSet
EndChar

StartChar: thorn
Encoding: 254 254 258
Width: 572
GlyphClass: 2
Flags: MW
HStem: -150 21G<85 85 85 117> -12 29<262 362 251.5 368> 509 30<260.5 362> 690 20G<85 117 117 117>
VStem: 85 32<-150 114 195.5 333.5 407 710> 493 29<189 340>
AnchorPoint: "Anchor-3" 286 530 basechar 0
AnchorPoint: "Anchor-0" 286 0 basechar 0
LayerCount: 2
Fore
SplineSet
85 -150 m 1
 85 710 l 1
 117 710 l 1
 117 407 l 1
 146 485 221 539 300 539 c 0
 436 539 522 433 522 265 c 0
 522 95 436 -12 300 -12 c 0
 224 -12 155 36 117 114 c 1
 117 -150 l 1
 85 -150 l 1
304 17 m 0
 420 17 493 113 493 265 c 0
 493 415 420 509 304 509 c 0
 199 509 117 402 117 265 c 0
 117 126 199 17 304 17 c 0
EndSplineSet
EndChar

StartChar: q
Encoding: 113 113 259
Width: 570
GlyphClass: 2
Flags: MW
HStem: -150 21G<455 485 455 455> -12 30<208.5 309.5> 510 20G<459 485 485 485> 512 30<210 311.5 200 322>
VStem: 50 32<189 341 189 350> 455 30<-150 133 133 133 195 335> 458 27
AnchorPoint: "Anchor-3" 267 530 basechar 0
AnchorPoint: "Anchor-0" 267 0 basechar 0
LayerCount: 2
Fore
SplineSet
485 -150 m 1xec
 455 -150 l 1
 455 133 l 1
 430 56 354 -12 265 -12 c 0
 133 -12 50 95 50 265 c 0
 50 435 133 542 267 542 c 0xdc
 356 542 426 488 457 391 c 1
 459 530 l 1xea
 485 530 l 1
 485 -150 l 1xec
265 18 m 0
 375 18 455 125 455 265 c 0
 455 405 377 512 267 512 c 0
 153 512 82 417 82 265 c 0
 82 113 152 18 265 18 c 0
EndSplineSet
EndChar

StartChar: r
Encoding: 114 114 260
Width: 343
GlyphClass: 2
Flags: MW
HStem: 0 21G<85 85 85 115> 498 32<258 293>
VStem: 85 26 85 30<0 328 0 530>
AnchorPoint: "Anchor-3" 179 530 basechar 0
AnchorPoint: "Anchor-0" 100 0 basechar 0
LayerCount: 2
Fore
SplineSet
85 0 m 1xd0
 85 530 l 1xd0
 109 530 l 1
 113 411 l 1xe0
 138 489 181 530 258 530 c 2
 293 530 l 1
 293 498 l 1
 250 498 l 2
 172 498 115 418 115 328 c 2
 115 0 l 1
 85 0 l 1xd0
EndSplineSet
EndChar

StartChar: racute
Encoding: 341 341 261
Width: 343
GlyphClass: 2
Flags: MW
HStem: 0 21G<85 85 85 115> 498 32<258 293> 610 116<165 271 165 271> 706 20G<237 271 271 271>
VStem: 85 26 85 30<0 328 0 530>
AnchorPoint: "Anchor-3" 179 530 basechar 0
AnchorPoint: "Anchor-0" 100 0 basechar 0
LayerCount: 2
Fore
SplineSet
165 610 m 1xe4
 237 726 l 1
 271 726 l 1
 191 610 l 1
 165 610 l 1xe4
85 0 m 1
 85 530 l 1xd4
 109 530 l 1
 113 411 l 1xd8
 138 489 181 530 258 530 c 2
 293 530 l 1
 293 498 l 1
 250 498 l 2
 172 498 115 418 115 328 c 2
 115 0 l 1
 85 0 l 1
EndSplineSet
EndChar

StartChar: rcaron
Encoding: 345 345 262
Width: 343
GlyphClass: 2
Flags: MW
HStem: 0 21G<85 85 85 115> 498 32<258 293> 610 25<179 179 179 190 168 179>
VStem: 85 26 85 30<0 328 0 530>
AnchorPoint: "Anchor-3" 179 530 basechar 0
AnchorPoint: "Anchor-0" 100 0 basechar 0
LayerCount: 2
Fore
SplineSet
80 734 m 1xe8
 108 734 l 1
 179 635 l 1
 250 734 l 1
 278 734 l 1
 190 610 l 1
 168 610 l 1
 80 734 l 1xe8
85 0 m 1
 85 530 l 1xe8
 109 530 l 1
 113 411 l 1xf0
 138 489 181 530 258 530 c 2
 293 530 l 1
 293 498 l 1
 250 498 l 2
 172 498 115 418 115 328 c 2
 115 0 l 1
 85 0 l 1
EndSplineSet
EndChar

StartChar: uni0157
Encoding: 343 343 263
Width: 343
GlyphClass: 2
Flags: MW
HStem: -94 48<75 99 75 125> 0 21G<85 85 85 115> 498 32<258 293>
VStem: 75 40 85 26 85 30<0 328 0 530> 85 40
AnchorPoint: "Anchor-3" 179 530 basechar 0
AnchorPoint: "Anchor-0" 100 -169 basechar 0
LayerCount: 2
Fore
SplineSet
85 0 m 1xe4
 85 530 l 1xe4
 109 530 l 1
 113 411 l 1xe8
 138 489 181 530 258 530 c 2
 293 530 l 1
 293 498 l 1
 250 498 l 2
 172 498 115 418 115 328 c 2
 115 0 l 1
 85 0 l 1xe4
63 -169 m 1
 99 -94 l 1
 75 -94 l 1
 75 -46 l 1xf0
 125 -46 l 1
 125 -89 l 1xe2
 85 -169 l 1
 63 -169 l 1
EndSplineSet
EndChar

StartChar: s
Encoding: 115 115 264
Width: 508
GlyphClass: 2
Flags: MW
HStem: -12 30<210 318 210 326.5> 512 30<203 298>
VStem: 50 31<155 159> 68 32<355 429 355 436> 426 32<92 157>
AnchorPoint: "Anchor-3" 248 530 basechar 0
AnchorPoint: "Anchor-0" 262 0 basechar 0
LayerCount: 2
Fore
SplineSet
265 -12 m 0xd8
 135 -12 56 61 50 155 c 1
 81 159 l 1xe8
 85 75 155 18 265 18 c 0
 371 18 426 56 426 128 c 0
 426 186 404 219 248 246 c 0
 100 272 68 312 68 390 c 0
 68 482 140 542 248 542 c 0
 362 542 427 471 443 385 c 1
 412 379 l 1
 402 449 348 512 248 512 c 0
 158 512 100 468 100 390 c 0
 100 320 132 294 262 273 c 0
 412 249 458 208 458 130 c 0
 458 38 388 -12 265 -12 c 0xd8
EndSplineSet
EndChar

